<svg width="775" height="119" viewBox="0 0 775 119" fill="none" xmlns="http://www.w3.org/2000/svg">
<path d="M0.333333 116C0.333333 117.473 1.52724 118.667 3 118.667C4.47276 118.667 5.66667 117.473 5.66667 116C5.66667 114.527 4.47276 113.333 3 113.333C1.52724 113.333 0.333333 114.527 0.333333 116ZM211.5 0V73.5798H212.5V0H211.5ZM192 93.0798H23V94.0798H192V93.0798ZM2.5 113.58V116H3.5V113.58H2.5ZM23 93.0798C11.6782 93.0798 2.5 102.258 2.5 113.58H3.5C3.5 102.81 12.2304 94.0798 23 94.0798V93.0798ZM211.5 73.5798C211.5 84.3494 202.77 93.0798 192 93.0798V94.0798C203.322 94.0798 212.5 84.9017 212.5 73.5798H211.5Z" fill="#C2D4E0"/>
<path d="M383.333 114C383.333 115.473 384.527 116.667 386 116.667C387.473 116.667 388.667 115.473 388.667 114C388.667 112.527 387.473 111.333 386 111.333C384.527 111.333 383.333 112.527 383.333 114ZM385.5 2.18557e-08L385.5 114L386.5 114L386.5 -2.18557e-08L385.5 2.18557e-08Z" fill="#C2D4E0"/>
<path d="M774.667 114C774.667 115.473 773.473 116.667 772 116.667C770.527 116.667 769.333 115.473 769.333 114C769.333 112.527 770.527 111.333 772 111.333C773.473 111.333 774.667 112.527 774.667 114ZM560.5 2V71.7931H559.5V2H560.5ZM580 91.2931H752V92.2931H580V91.2931ZM772.5 111.793V114H771.5V111.793H772.5ZM752 91.2931C763.322 91.2931 772.5 100.471 772.5 111.793H771.5C771.5 101.024 762.77 92.2931 752 92.2931V91.2931ZM560.5 71.7931C560.5 82.5627 569.23 91.2931 580 91.2931V92.2931C568.678 92.2931 559.5 83.115 559.5 71.7931H560.5Z" fill="#C2D4E0"/>
</svg>
