<svg width="752" height="119" viewBox="0 0 752 119" fill="none" xmlns="http://www.w3.org/2000/svg">
<path d="M0.333333 116C0.333333 117.473 1.52724 118.667 3 118.667C4.47276 118.667 5.66667 117.473 5.66667 116C5.66667 114.527 4.47276 113.333 3 113.333C1.52724 113.333 0.333333 114.527 0.333333 116ZM211.5 0V73.5798H212.5V0H211.5ZM192 93.0798H23V94.0798H192V93.0798ZM2.5 113.58V116H3.5V113.58H2.5ZM23 93.0798C11.6782 93.0798 2.5 102.258 2.5 113.58H3.5C3.5 102.81 12.2304 94.0798 23 94.0798V93.0798ZM211.5 73.5798C211.5 84.3494 202.77 93.0798 192 93.0798V94.0798C203.322 94.0798 212.5 84.9017 212.5 73.5798H211.5Z" fill="#C2D4E0"/>
<path d="M360.333 114C360.333 115.473 361.527 116.667 363 116.667C364.473 116.667 365.667 115.473 365.667 114C365.667 112.527 364.473 111.333 363 111.333C361.527 111.333 360.333 112.527 360.333 114ZM362.5 2.18557e-08L362.5 114L363.5 114L363.5 -2.18557e-08L362.5 2.18557e-08Z" fill="#C2D4E0"/>
<path d="M751.667 114C751.667 115.473 750.473 116.667 749 116.667C747.527 116.667 746.333 115.473 746.333 114C746.333 112.527 747.527 111.333 749 111.333C750.473 111.333 751.667 112.527 751.667 114ZM537.5 2V71.7931H536.5V2H537.5ZM557 91.2931H729V92.2931H557V91.2931ZM749.5 111.793V114H748.5V111.793H749.5ZM729 91.2931C740.322 91.2931 749.5 100.471 749.5 111.793H748.5C748.5 101.024 739.77 92.2931 729 92.2931V91.2931ZM537.5 71.7931C537.5 82.5627 546.23 91.2931 557 91.2931V92.2931C545.678 92.2931 536.5 83.115 536.5 71.7931H537.5Z" fill="#C2D4E0"/>
</svg>
