<svg width="44" height="34" viewBox="0 0 44 34" fill="none" xmlns="http://www.w3.org/2000/svg">
<path d="M26.0989 24.5625C23.9553 27.0863 20.7584 28.6875 17.1875 28.6875C10.7326 28.6875 5.5 23.4549 5.5 17C5.5 10.5451 10.7326 5.3125 17.1875 5.3125C18.6395 5.3125 20.0296 5.516 21.3125 6C21.3125 6 24.6544 7.25056 24.8696 9.32131V9.32337C25.6101 9.62862 26.2941 10.0432 26.895 10.554C27.5 10.2811 28.1689 10.125 28.875 10.125C29.1087 10.125 29.3377 10.1477 29.5625 10.18V10.125C29.5625 4.84775 21.8226 2.67663 21.5084 2.59069C21.362 2.54738 21.2142 2.49925 21.0657 2.45044C20.8251 2.37206 20.5796 2.29162 20.3246 2.22494L19.7436 0.5H14.6307L14.0532 2.21256C12.2203 2.59756 10.5043 3.30638 8.94162 4.32525L7.32806 3.525L3.7125 7.13988L4.51275 8.75481C3.49456 10.3161 2.78506 12.0321 2.39937 13.8671L0.6875 14.4439V19.5561L2.40006 20.1336C2.78575 21.9686 3.49525 23.6839 4.51344 25.2459L3.7125 26.8601L7.32737 30.475L8.94231 29.6748C10.505 30.6936 12.221 31.4031 14.0539 31.7874L14.6314 33.5H19.7443L20.3218 31.7874C22.1547 31.4024 23.8707 30.6936 25.4334 29.6748L27.0483 30.475L30.6467 26.8773L29.6264 24.5625H26.0989Z" fill="#FFA2A2"/>
<path d="M38.5 15.625C38.0669 15.625 37.6386 15.6841 37.2206 15.8003C36.4581 14.9691 35.4468 14.4418 34.3379 14.2933C34.0175 11.5633 31.6896 9.4375 28.875 9.4375C28.2363 9.4375 27.6114 9.5475 27.0126 9.76544C26.5347 9.399 26.0177 9.09375 25.4781 8.84144C24.9205 6.67787 21.9147 5.49056 21.5559 5.3565C20.2682 4.87113 18.799 4.625 17.1875 4.625C10.3641 4.625 4.8125 10.1766 4.8125 17C4.8125 23.8234 10.3641 29.375 17.1875 29.375C20.7144 29.375 24.0446 27.8694 26.3931 25.25H38.5C41.1538 25.25 43.3125 23.0906 43.3125 20.4375C43.3125 17.7844 41.1538 15.625 38.5 15.625ZM17.1875 28C11.1224 28 6.1875 23.0651 6.1875 17C6.1875 10.9349 11.1224 6 17.1875 6C18.6326 6 19.9389 6.21588 21.0705 6.64419C21.6329 6.85594 22.8271 7.43963 23.5648 8.21994C23.0512 8.11956 22.5287 8.0625 22 8.0625C17.7004 8.0625 14.1584 11.3687 13.7858 15.625C13.7734 15.625 13.7617 15.625 13.75 15.625C11.0963 15.625 8.9375 17.7844 8.9375 20.4375C8.9375 23.0906 11.0963 25.25 13.75 25.25H24.442C22.4469 27.0052 19.8832 28 17.1875 28ZM38.5 23.875H13.75C11.8546 23.875 10.3125 22.3329 10.3125 20.4375C10.3125 18.5421 11.8546 17 13.75 17C13.9288 17 14.1171 17.0172 14.3247 17.0522L15.125 17.1272V16.3125C15.125 12.5216 18.2091 9.4375 22 9.4375C23.6259 9.4375 25.2065 10.0205 26.4502 11.0779L26.7823 11.3597L27.1789 11.1803C27.7186 10.9362 28.2892 10.8125 28.875 10.8125C30.6673 10.8125 32.1915 11.9627 32.7594 13.5625H28.875V14.9375H30.25V21.125H28.875V22.5H33V21.125H31.625V14.9375H33V15.625H33.6875C34.7799 15.625 35.783 16.1303 36.4409 17.0124L36.7551 17.4331L37.2439 17.2413C37.6502 17.0811 38.0724 17 38.5 17C40.3954 17 41.9375 18.5421 41.9375 20.4375C41.9375 22.3329 40.3954 23.875 38.5 23.875Z" fill="#212121"/>
<path d="M19.25 13.5625C17.7334 13.5625 16.5 14.7959 16.5 16.3125V22.5H17.875V19.75H20.625V22.5H22V16.3125C22 14.7959 20.7666 13.5625 19.25 13.5625ZM17.875 18.375V16.3125C17.875 15.5542 18.4917 14.9375 19.25 14.9375C20.0083 14.9375 20.625 15.5542 20.625 16.3125V18.375H17.875Z" fill="#212121"/>
<path d="M26.125 13.5625H23.375V22.5H24.75V19.0625H26.125C27.6416 19.0625 28.875 17.8291 28.875 16.3125C28.875 14.7959 27.6416 13.5625 26.125 13.5625ZM26.125 17.6875H24.75V14.9375H26.125C26.8833 14.9375 27.5 15.5542 27.5 16.3125C27.5 17.0708 26.8833 17.6875 26.125 17.6875Z" fill="#212121"/>
</svg>
