<svg width="239" height="198" viewBox="0 0 239 198" fill="none" xmlns="http://www.w3.org/2000/svg">
<path d="M214.939 44.6187L139.514 1.07173C138.642 0.568039 137.851 0.521736 137.281 0.853768L135.031 2.16157C135.602 1.82953 136.392 1.87697 137.264 2.38066L212.689 45.9277C214.422 46.9283 215.822 49.353 215.817 51.3441L215.689 96.2938C215.687 97.2831 215.337 97.9788 214.774 98.3063L217.024 96.9985C217.587 96.671 217.936 95.9753 217.939 94.9859L218.066 50.0363C218.072 48.0452 216.672 45.6194 214.939 44.6199V44.6187Z" fill="#32862E"/>
<path d="M212.689 45.9265C214.421 46.9271 215.822 49.3518 215.816 51.3429L215.688 96.2926C215.683 98.2836 214.273 99.0866 212.541 98.086L137.116 54.539C135.383 53.5384 133.983 51.1136 133.988 49.1226L134.116 4.17292C134.122 2.18185 135.531 1.37888 137.263 2.37949L212.689 45.9265Z" fill="#3F963B"/>
<path opacity="0.2" d="M184.524 33.577C185.534 34.1609 186.352 35.576 186.349 36.7393C186.345 37.9014 185.522 38.3689 184.511 37.785L170.548 29.7237C169.536 29.1398 168.719 27.7247 168.723 26.5626C168.726 25.3993 169.548 24.9318 170.56 25.5157L184.524 33.577Z" fill="white"/>
<path opacity="0.2" d="M172.818 53.7598C173.579 54.1991 174.196 55.2663 174.193 56.1416L174.179 61.2655C174.176 62.1407 173.556 62.4931 172.794 62.0538L159.652 54.4656C158.891 54.0263 158.275 52.9602 158.277 52.0849L158.292 46.961C158.294 46.0858 158.914 45.7323 159.675 46.1716L172.818 53.7598Z" fill="white"/>
<path opacity="0.2" d="M185.239 73.5178C185.789 73.8352 186.233 74.6043 186.23 75.2356C186.228 75.8658 185.782 76.121 185.232 75.8037L169.011 66.4379C168.461 66.1205 168.017 65.3526 168.02 64.7213C168.022 64.0899 168.468 63.8347 169.018 64.1521L185.239 73.5178Z" fill="white"/>
<path opacity="0.2" d="M192.342 65.033C193.104 65.4724 193.719 66.5396 193.717 67.4149L193.702 72.5388C193.7 73.414 193.08 73.7664 192.319 73.3271L179.176 65.7389C178.415 65.2996 177.799 64.2335 177.801 63.3582L177.815 58.2343C177.818 57.359 178.438 57.0055 179.2 57.446L192.342 65.0342V65.033Z" fill="white"/>
<path opacity="0.2" d="M211.865 76.3052C212.627 76.7457 213.243 77.8118 213.24 78.687L213.226 83.811C213.223 84.6862 212.603 85.0386 211.841 84.5993L198.7 77.0122C197.937 76.5718 197.322 75.5068 197.324 74.6315L197.339 69.5076C197.341 68.6324 197.961 68.2789 198.724 68.7193L211.865 76.3064V76.3052Z" fill="white"/>
<path opacity="0.2" d="M164.683 61.6495C165.231 61.9668 165.675 62.7348 165.673 63.3661C165.671 63.9963 165.225 64.2515 164.676 63.9342L139.725 49.5281C139.176 49.2107 138.732 48.4427 138.734 47.8126C138.737 47.1812 139.183 46.926 139.732 47.2434L164.683 61.6495Z" fill="white"/>
<path opacity="0.2" d="M153.294 42.4877C154.057 42.9282 154.672 43.9943 154.67 44.8695L154.655 49.9935C154.653 50.8687 154.033 51.2211 153.271 50.7817L140.129 43.1947C139.367 42.7542 138.752 41.6893 138.754 40.814L138.769 35.6901C138.771 34.8148 139.391 34.4614 140.153 34.9018L153.294 42.4889V42.4877Z" fill="white"/>
<path d="M152.526 23.4048L152.513 27.6173L146.172 23.9548L146.183 19.7434L152.526 23.4048Z" fill="url(#paint0_linear_15_12966)"/>
<path d="M145.427 28.9986L145.415 33.21L140.917 30.6125C139.698 29.9089 138.715 28.2047 138.719 26.8065L138.723 25.1283L145.426 28.9986H145.427Z" fill="url(#paint1_linear_15_12966)"/>
<path d="M145.441 24.3692L145.429 28.165L138.727 24.2946L138.738 20.5L145.441 24.3692Z" fill="url(#paint2_linear_15_12966)"/>
<path d="M152.494 33.0778L152.482 37.2892L146.141 33.6278L146.152 29.4164L152.494 33.0778Z" fill="url(#paint3_linear_15_12966)"/>
<path d="M145.453 19.3256L145.441 23.5369L138.738 19.6666L138.743 17.9884C138.747 16.5891 139.737 16.0244 140.955 16.728L145.453 19.3256Z" fill="url(#paint4_linear_15_12966)"/>
<path d="M152.509 28.4497L152.499 32.2455L146.156 28.5841L146.168 24.7883L152.509 28.4497Z" fill="url(#paint5_linear_15_12966)"/>
<path d="M159.922 37.3671L159.918 39.0454C159.913 40.4447 158.924 41.0093 157.705 40.3057L153.207 37.7082L153.219 33.4968L159.922 37.3671Z" fill="url(#paint6_linear_15_12966)"/>
<path d="M159.937 32.7378L159.925 36.5336L153.223 32.6633L153.233 28.8687L159.937 32.7378Z" fill="url(#paint7_linear_15_12966)"/>
<path d="M157.748 26.4213C158.966 27.1249 159.949 28.8291 159.946 30.2272L159.941 31.9054L153.238 28.0351L153.251 23.8237L157.749 26.4213H157.748Z" fill="url(#paint8_linear_15_12966)"/>
<path opacity="0.2" d="M163.958 21.7018C164.969 22.2856 165.785 23.7007 165.783 24.8628C165.78 26.025 164.958 26.4936 163.947 25.9098L140.598 12.4297C139.587 11.8458 138.77 10.4308 138.773 9.26864C138.777 8.1054 139.599 7.63784 140.611 8.22172L163.959 21.7018H163.958Z" fill="white"/>
<path d="M111.025 189.212C110.171 189.708 110.169 190.507 111.019 190.999L121.009 196.774C121.86 197.265 123.241 197.262 124.094 196.767L134.122 190.947C134.976 190.451 134.978 189.651 134.129 189.16L124.139 183.384C123.288 182.893 121.907 182.897 121.053 183.391L111.025 189.212Z" fill="#F2F2F8"/>
<path d="M54.5432 171.654C53.0468 172.522 53.0423 173.925 54.5331 174.786L72.0483 184.912C73.5391 185.774 75.9604 185.768 77.4557 184.9L95.0387 174.695C96.5351 173.827 96.5408 172.424 95.05 171.562L77.5348 161.436C76.044 160.575 73.6227 160.58 72.1263 161.449L54.5432 171.654Z" fill="#F2F2F8"/>
<path d="M137.455 102.183C135.474 103.333 135.467 105.19 137.441 106.332L160.632 119.738C162.606 120.879 165.811 120.872 167.792 119.722L191.072 106.211C193.054 105.061 193.061 103.204 191.087 102.063L167.897 88.6559C165.923 87.5153 162.716 87.522 160.735 88.6717L137.455 102.183Z" fill="#E0E5F8"/>
<path d="M199.778 183.198C198.909 183.702 198.907 184.516 199.772 185.016L209.937 190.892C210.802 191.393 212.207 191.389 213.075 190.886L223.279 184.963C224.147 184.46 224.151 183.645 223.286 183.145L213.121 177.269C212.256 176.769 210.851 176.772 209.983 177.276L199.779 183.198H199.778Z" fill="#F2F2F8"/>
<path d="M80.0385 191.829C79.3745 192.214 79.3722 192.837 80.034 193.22L87.8097 197.715C88.4715 198.098 89.5466 198.094 90.2107 197.709L98.0168 193.178C98.6809 192.793 98.6831 192.17 98.0213 191.787L90.2457 187.292C89.5839 186.909 88.5087 186.911 87.8447 187.298L80.0385 191.829Z" fill="#F2F2F8"/>
<path d="M12.4168 107.095L41.8829 124.117L79.8825 146.07L158.663 191.578C163.767 194.531 170.06 194.531 175.163 191.582L215.418 168.241L235.465 156.613C237.389 155.502 238.455 153.655 238.668 151.732C238.945 149.214 237.77 146.56 235.184 145.236L195.896 122.62L120.064 78.9818L87.2538 60.1C82.4902 57.6549 76.8106 57.795 72.1735 60.467L51.8811 72.1853L50.7066 72.8663L52.9653 74.1729C54.1726 74.863 54.7712 76.0827 54.7712 77.2945C54.7712 78.5063 54.1726 79.726 52.9653 80.4206C50.0392 82.1123 46.4275 82.1123 43.4968 80.4206L40.5616 78.7243L29.4328 85.1481L12.4156 94.9701C7.74687 97.6693 7.74687 104.403 12.4156 107.097L12.4168 107.095Z" fill="#E0E5F8"/>
<path d="M236.854 147.635L236.835 141.052L10.7617 92.1694V98.0184C10.7617 100.253 11.9543 102.319 13.89 103.437L157.42 186.304C162.864 189.447 169.571 189.447 175.015 186.304L234.29 152.082C235.879 151.165 236.856 149.469 236.854 147.633V147.635Z" fill="#1D1C1A"/>
<path d="M87.8386 52.1448L233.394 135.912C237.887 138.219 238.044 144.584 233.67 147.109L174.334 181.514C169.312 184.414 163.123 184.413 158.101 181.512L14.2043 98.3865C9.61344 95.7347 9.61457 89.1065 14.2054 86.4559L73.0044 52.5096C77.5659 49.8759 83.1529 49.7381 87.8386 52.1448Z" fill="#1D1C1A"/>
<path opacity="0.2" d="M87.8386 52.1448L233.394 135.912C237.887 138.219 238.044 144.584 233.67 147.109L174.334 181.514C169.312 184.414 163.123 184.413 158.101 181.512L14.2043 98.3865C9.61344 95.7347 9.61457 89.1065 14.2054 86.4559L73.0044 52.5096C77.5659 49.8759 83.1529 49.7381 87.8386 52.1448Z" fill="url(#paint9_linear_15_12966)"/>
<path d="M18.904 99.1861L46.6536 115.216L82.4396 135.89L156.631 178.747C161.437 181.529 167.363 181.529 172.17 178.752L210.079 156.77L228.958 145.82C230.77 144.773 231.774 143.034 231.975 141.222C232.236 138.85 231.129 136.351 228.694 135.104L191.694 113.806L120.28 72.7094L89.3818 54.9276C84.896 52.6248 79.5462 52.757 75.1801 55.2732L56.069 66.3093L54.9623 66.9496L57.09 68.1806C58.2261 68.83 58.7908 69.9797 58.7908 71.1204C58.7908 72.261 58.2273 73.4107 57.09 74.0646C54.3343 75.6581 50.9338 75.6581 48.1737 74.0646L45.409 72.4665L34.9285 78.5165L18.9029 87.766C14.5063 90.3082 14.5063 96.6484 18.9029 99.1861H18.904Z" fill="#E8E9F8"/>
<path d="M55.0311 72.505C56.348 71.7438 56.348 70.4993 55.0311 69.7392C53.7143 68.9792 51.5584 68.9792 50.2415 69.7392C48.9247 70.4993 48.9247 71.7438 50.2415 72.505C51.5584 73.2662 53.7132 73.2662 55.0311 72.505Z" fill="#64645C"/>
<path d="M68.3561 131.143L79.1369 137.366C79.7355 137.712 80.1048 138.351 80.1048 139.042C80.1048 139.652 79.4452 140.033 78.9167 139.728L68.1358 133.504C67.5373 133.158 67.168 132.519 67.168 131.828C67.168 131.218 67.8286 130.838 68.3561 131.143Z" fill="#64645C"/>
<path d="M42.8299 116.264L63.5141 128.204C64.3092 128.664 64.7994 129.512 64.7994 130.43C64.7994 130.876 64.316 131.156 63.9286 130.932L42.2178 118.401C41.7401 118.125 41.4453 117.615 41.4453 117.063C41.4453 116.352 42.2144 115.909 42.8288 116.264H42.8299Z" fill="#64645C"/>
<path d="M19.0448 102.549L39.729 114.489C40.5241 114.948 41.0142 115.797 41.0142 116.715C41.0142 117.161 40.5308 117.441 40.1435 117.217L18.4326 104.686C17.9549 104.41 17.6602 103.9 17.6602 103.348C17.6602 102.637 18.4293 102.193 19.0436 102.549H19.0448Z" fill="#64645C"/>
<path d="M218.407 157.362L197.723 169.301C196.928 169.761 196.438 170.609 196.438 171.527C196.438 171.973 196.921 172.253 197.308 172.03L219.019 159.498C219.497 159.223 219.792 158.712 219.792 158.16C219.792 157.45 219.022 157.006 218.408 157.362H218.407Z" fill="#64645C"/>
<g opacity="0.38">
<path d="M79.3451 88.7735C63.603 97.8626 63.5205 112.598 79.161 121.688C94.8004 130.777 120.242 130.777 135.984 121.688C151.727 112.598 151.809 97.8614 136.17 88.7735C120.53 79.6844 95.0884 79.6844 79.3451 88.7735Z" fill="white"/>
</g>
<g opacity="0.38">
<path d="M85.027 92.0768C72.4448 99.3409 72.3782 111.12 84.8802 118.385C97.3811 125.65 117.716 125.65 130.299 118.385C142.882 111.12 142.949 99.3409 130.448 92.0768C117.946 84.8116 97.6104 84.8116 85.027 92.0768Z" fill="white"/>
</g>
<g opacity="0.67">
<path d="M90.0687 93.3901C80.2873 99.0369 80.2365 108.194 89.9546 113.841C99.6717 119.487 115.479 119.487 125.261 113.841C135.042 108.193 135.094 99.0369 125.377 93.3901C115.659 87.7422 99.8512 87.7422 90.0698 93.3901H90.0687Z" fill="white"/>
</g>
<g opacity="0.38">
<path d="M118.728 145.01C117.932 145.469 117.929 146.216 118.719 146.676L129.899 153.173C130.69 153.633 131.977 153.633 132.774 153.173L188.652 120.912C189.448 120.452 189.451 119.705 188.661 119.246L177.481 112.749C176.691 112.289 175.403 112.289 174.606 112.749L118.728 145.01Z" fill="white"/>
</g>
<path d="M111.916 154.368C117.669 157.711 127.025 157.711 132.816 154.368L193.674 119.231C196.588 117.55 198.042 115.34 198.037 113.136L198.044 116.037C198.051 118.242 196.595 120.451 193.682 122.132L132.824 157.269C127.034 160.612 117.677 160.612 111.924 157.269C109.067 155.609 107.636 153.435 107.629 151.259L107.621 148.357C107.627 150.534 109.058 152.708 111.916 154.368Z" fill="url(#paint10_linear_15_12966)"/>
<path d="M111.984 142.262C106.194 145.605 106.163 151.025 111.916 154.368C117.669 157.711 127.025 157.711 132.816 154.368L193.674 119.231C199.463 115.888 199.494 110.468 193.742 107.126C187.99 103.783 178.632 103.783 172.842 107.126L111.984 142.262Z" fill="#EA231C"/>
<path d="M98.9852 7.57123C93.4062 8.65429 87.0625 7.1737 80.1305 3.17124L74.6373 0L67.8047 3.97083L73.2968 7.14208C80.2288 11.1445 86.5724 12.624 92.1514 11.5421C94.3063 11.1242 95.9393 10.3833 97.0325 9.74751L103.865 5.77668C102.773 6.41138 101.14 7.15224 98.9841 7.57123H98.9852Z" fill="url(#paint11_linear_15_12966)"/>
<path d="M146.481 47.7742L145.999 41.2013L139.167 45.1721L139.649 51.745C139.694 52.3537 140.702 66.7971 137.196 80.6668C135.09 88.9936 131.787 95.4264 127.378 99.7857C125.917 101.232 124.336 102.448 122.641 103.434L129.473 99.4627C131.168 98.4779 132.75 97.2616 134.211 95.8149C138.62 91.4556 141.922 85.0216 144.028 76.696C147.535 62.8252 146.527 48.3818 146.481 47.7742Z" fill="url(#paint12_linear_15_12966)"/>
<path d="M140.508 38.0302C133.574 34.0277 127.244 28.19 121.689 20.6798C117.614 15.1708 115.422 10.6714 115.223 10.2547L110.422 1.39258L103.59 5.36341L108.391 14.2255C108.591 14.6422 110.783 19.1416 114.856 24.6506C120.411 32.1609 126.742 37.9985 133.675 42.001L139.166 45.1711L145.998 41.2003L140.508 38.0302Z" fill="url(#paint13_linear_15_12966)"/>
<path d="M103.587 5.36324L108.388 14.2253C108.587 14.6421 110.78 19.1414 114.853 24.6504C120.407 32.1607 126.739 37.9984 133.672 42.0008L139.163 45.1709L139.645 51.7438C139.69 52.3525 140.699 66.7959 137.192 80.6656C135.086 88.9924 131.783 95.4252 127.374 99.7845C121.733 105.365 114.327 107.522 105.361 106.198L103.251 105.886L101.147 103.766C92.2027 94.7498 84.8336 84.0616 79.2422 71.9955C74.8727 62.5676 71.6167 52.3469 69.5658 41.6213C66.1484 23.7526 67.2359 10.5199 67.2834 9.96538L67.8017 3.9696L73.2938 7.14085C80.2258 11.1433 86.5695 12.6228 92.1485 11.5408C96.2571 10.7435 98.4684 8.77277 98.6536 8.60111L103.586 5.36211L103.587 5.36324Z" fill="url(#paint14_linear_15_12966)"/>
<path d="M137.228 51.9222L136.839 46.6289L132.459 44.1002C125.236 39.9306 118.658 33.8716 112.904 26.0914C108.839 20.596 106.583 16.0616 106.228 15.3298L102.71 8.83707L100.128 10.5322C99.3684 11.1873 96.8578 13.097 92.608 13.9215C91.2822 14.1789 89.9021 14.3088 88.5051 14.3088C83.4308 14.3088 77.9049 12.6035 72.0808 9.24139L69.8864 7.97424L69.6956 10.1754C69.6493 10.7163 68.5865 23.6181 71.9441 41.1673C73.9578 51.6986 77.1527 61.7284 81.4387 70.9779C86.9115 82.7876 94.1214 93.2443 102.866 102.06L104.402 103.608L105.713 103.803C107.295 104.037 108.843 104.155 110.311 104.155C116.415 104.155 121.582 102.105 125.668 98.0645C129.757 94.0202 132.844 87.968 134.839 80.0737C138.252 66.5756 137.269 52.5151 137.226 51.9233L137.228 51.9222ZM132.493 79.4786C130.605 86.938 127.737 92.6108 123.966 96.3399C120.35 99.9166 115.755 101.73 110.312 101.73C108.961 101.73 107.534 101.621 106.069 101.404L105.555 101.328L104.587 100.353C96.0402 91.7378 88.993 81.5114 83.6375 69.9581C79.434 60.8882 76.3012 51.048 74.3237 40.711C71.6652 26.812 71.8255 15.9351 72.0108 11.9801C77.7953 15.1333 83.3382 16.7302 88.5039 16.7313C90.0557 16.7313 91.5916 16.5856 93.0699 16.2988C97.6326 15.4133 100.466 13.4076 101.582 12.4759L101.835 12.3099L104.07 16.4365C104.552 17.427 106.866 22.0054 110.953 27.5325C116.906 35.5815 123.733 41.8618 131.245 46.1986L134.514 48.0857L134.809 52.0995C134.852 52.6755 135.808 66.3577 132.49 79.4786H132.493Z" fill="white"/>
<path d="M101.419 16.9279L95.3669 60.2569L105.013 100.303C69.5045 65.3865 73.3929 17.9963 73.6086 15.5038C93.7338 27.1226 100.913 17.4372 101.419 16.9279Z" fill="url(#paint15_linear_15_12966)"/>
<path d="M101.419 16.928C101.921 18.0189 111.437 38.7438 131.563 50.3638C131.764 53.0969 139.408 105.383 105.013 100.304L95.3672 60.2581L101.419 16.9291V16.928Z" fill="url(#paint16_linear_15_12966)"/>
<path d="M101.419 16.9279C100.913 17.4372 93.7339 27.1238 73.6087 15.5038C73.4754 17.042 71.9451 35.664 79.1267 57.9034C79.1267 57.9034 73.3727 32.3956 75.9894 21.7412C75.9894 21.7412 87.7223 28.6078 97.6731 23.2806L95.3669 60.2558L101.419 16.9268V16.9279Z" fill="white"/>
<path d="M134.905 136.013L144.461 138.806L142.47 139.956L141.125 139.533L138.722 140.919L139.448 141.7L137.447 142.855L132.656 137.31L134.905 136.011V136.013ZM139.073 138.89L135.901 137.895L137.619 139.729L139.073 138.889V138.89Z" fill="white"/>
<path d="M132.32 140.414C133.796 141.272 133.697 142.529 132.252 143.362L131.293 143.915L133.446 145.166L131.599 146.232L124.426 142.063L127.232 140.443C128.676 139.609 130.845 139.555 132.321 140.413L132.32 140.414ZM129.551 142.904L130.51 142.35C130.922 142.112 130.924 141.744 130.472 141.481C130.021 141.217 129.395 141.224 128.983 141.463L128.024 142.016L129.551 142.904Z" fill="white"/>
<path d="M167.91 121.113C170.022 122.339 169.969 124.258 167.866 125.472C165.762 126.687 162.45 126.711 160.339 125.484C158.228 124.258 158.281 122.34 160.385 121.125C162.489 119.911 165.8 119.886 167.911 121.113H167.91ZM166.071 124.43C167.175 123.793 167.221 122.839 166.074 122.173C164.926 121.506 163.281 121.529 162.177 122.166C161.073 122.803 161.027 123.756 162.175 124.424C163.323 125.091 164.968 125.068 166.071 124.43Z" fill="white"/>
<path d="M149.039 127.855L156.213 132.023L158.059 130.957L154.451 128.86L160.607 129.487L162.031 128.664L154.858 124.495L153.021 125.555L156.628 127.651L150.472 127.027L149.039 127.855Z" fill="white"/>
<path d="M137.352 134.602L144.223 135.775L146.959 137.365L148.806 136.299L146.049 134.698L144.067 130.725L141.993 131.922L143.357 134.209L139.425 133.405L137.352 134.602Z" fill="white"/>
<path d="M165.336 118.444L174.531 121.446L176.48 120.321L173.587 117.301L178.791 118.987L180.74 117.861L175.578 112.531L173.597 113.675L176.992 116.95L171.185 115.067L169.73 115.907L172.959 119.278L167.327 117.295L165.336 118.444Z" fill="white"/>
<path d="M51.5244 162.778L40.6836 169.129C38.8518 170.188 36.5942 170.188 34.7624 169.13L1.16393 149.852C0.47389 149.453 0.0910368 148.79 0.0142403 148.1C-0.0851434 147.196 0.336108 146.244 1.26444 145.769L12.7094 139.184C14.4192 138.306 16.4566 138.357 18.1213 139.316L45.4179 154.902L51.5244 158.427C53.1992 159.396 53.1992 161.811 51.5244 162.778Z" fill="#F2F2F8"/>
<path d="M188.331 156.959C188.33 156.98 188.329 157 188.327 157.022C188.325 157.04 188.322 157.058 188.32 157.076C188.317 157.098 188.315 157.118 188.31 157.139C188.307 157.157 188.302 157.177 188.299 157.195C188.294 157.215 188.29 157.235 188.284 157.256C188.279 157.274 188.274 157.293 188.268 157.311C188.261 157.331 188.256 157.352 188.248 157.372C188.241 157.39 188.234 157.408 188.228 157.426C188.22 157.448 188.211 157.469 188.2 157.489C188.193 157.508 188.185 157.524 188.176 157.543C188.165 157.564 188.154 157.584 188.143 157.606C188.134 157.623 188.125 157.64 188.115 157.657C188.1 157.681 188.084 157.706 188.068 157.731C188.058 157.746 188.049 157.761 188.039 157.775C188.02 157.802 188.001 157.829 187.979 157.857C187.97 157.868 187.962 157.88 187.953 157.892C187.919 157.934 187.883 157.976 187.845 158.018C187.835 158.028 187.824 158.039 187.814 158.05C187.784 158.081 187.752 158.113 187.719 158.144C187.705 158.158 187.689 158.173 187.674 158.186C187.655 158.204 187.635 158.221 187.613 158.239C187.594 158.255 187.576 158.271 187.556 158.287C187.534 158.304 187.513 158.321 187.49 158.339C187.47 158.355 187.449 158.37 187.428 158.385C187.405 158.402 187.381 158.419 187.357 158.435C187.335 158.449 187.313 158.465 187.29 158.48C187.265 158.496 187.239 158.512 187.215 158.528C187.183 158.549 187.151 158.568 187.117 158.587L171.983 167.383C171.892 167.436 171.798 167.484 171.7 167.531C171.676 167.543 171.65 167.555 171.624 167.567C171.537 167.607 171.448 167.646 171.356 167.681C171.344 167.685 171.332 167.691 171.32 167.695C171.222 167.733 171.121 167.767 171.019 167.798C170.948 167.821 170.876 167.84 170.805 167.859C170.75 167.874 170.696 167.89 170.64 167.903C170.564 167.921 170.486 167.937 170.41 167.953C170.353 167.964 170.298 167.978 170.24 167.987C170.217 167.991 170.193 167.995 170.169 167.998C170.073 168.014 169.977 168.028 169.88 168.039C169.852 168.042 169.823 168.046 169.795 168.049C169.74 168.055 169.683 168.058 169.627 168.063C169.533 168.07 169.439 168.077 169.345 168.082C169.285 168.084 169.224 168.085 169.163 168.086C169.086 168.087 169.01 168.089 168.934 168.086C168.869 168.086 168.806 168.084 168.742 168.081C168.67 168.078 168.6 168.074 168.53 168.069C168.466 168.065 168.402 168.059 168.337 168.054C168.267 168.047 168.198 168.039 168.128 168.03C168.065 168.022 168.003 168.013 167.941 168.004C167.866 167.993 167.793 167.979 167.719 167.965C167.661 167.954 167.603 167.943 167.546 167.93C167.459 167.911 167.372 167.89 167.287 167.867C167.232 167.852 167.175 167.839 167.12 167.822C167.09 167.813 167.061 167.804 167.032 167.795C166.946 167.768 166.861 167.738 166.778 167.708C166.754 167.699 166.729 167.691 166.705 167.682C166.63 167.653 166.556 167.62 166.483 167.587C166.447 167.571 166.411 167.557 166.376 167.54C166.271 167.49 166.168 167.437 166.068 167.379L150.834 158.584C150.525 158.405 150.274 158.205 150.081 157.993C149.985 157.887 149.903 157.777 149.835 157.666C149.812 157.628 149.792 157.591 149.773 157.553C149.658 157.327 149.6 157.092 149.6 156.858L149.59 160.268C149.588 160.891 150 161.516 150.824 161.992L166.058 170.788C166.156 170.844 166.259 170.897 166.365 170.948C166.4 170.965 166.438 170.98 166.474 170.995C166.536 171.024 166.598 171.052 166.662 171.078C166.674 171.082 166.685 171.086 166.696 171.09C166.72 171.099 166.745 171.108 166.769 171.117C166.852 171.148 166.937 171.177 167.023 171.204C167.052 171.213 167.081 171.222 167.111 171.232C167.131 171.237 167.15 171.244 167.169 171.25C167.204 171.26 167.242 171.267 167.277 171.276C167.363 171.298 167.448 171.32 167.537 171.339C167.56 171.344 167.583 171.351 167.605 171.356C167.639 171.363 167.675 171.367 167.709 171.374C167.783 171.387 167.856 171.401 167.931 171.412C167.96 171.417 167.989 171.424 168.02 171.428C168.053 171.433 168.085 171.435 168.118 171.439C168.187 171.448 168.257 171.456 168.327 171.463C168.361 171.466 168.394 171.471 168.426 171.474C168.457 171.477 168.489 171.478 168.52 171.479C168.59 171.483 168.661 171.488 168.733 171.49C168.768 171.491 168.804 171.495 168.839 171.496C168.867 171.496 168.895 171.496 168.923 171.496C169 171.496 169.076 171.496 169.153 171.496C169.191 171.496 169.228 171.496 169.267 171.496C169.289 171.496 169.312 171.492 169.334 171.491C169.429 171.487 169.523 171.48 169.617 171.472C169.655 171.469 169.692 171.469 169.731 171.464C169.749 171.462 169.767 171.46 169.785 171.457C169.813 171.454 169.842 171.451 169.87 171.447C169.967 171.436 170.063 171.422 170.159 171.407C170.183 171.403 170.206 171.4 170.23 171.395C170.241 171.393 170.253 171.392 170.264 171.39C170.309 171.382 170.353 171.37 170.398 171.361C170.476 171.346 170.553 171.33 170.63 171.312C170.685 171.298 170.739 171.282 170.794 171.268C170.866 171.248 170.938 171.228 171.009 171.207C171.024 171.202 171.041 171.199 171.056 171.193C171.141 171.165 171.226 171.136 171.31 171.104C171.322 171.099 171.333 171.094 171.346 171.089C171.437 171.053 171.527 171.015 171.614 170.975C171.639 170.964 171.664 170.951 171.69 170.939C171.787 170.893 171.882 170.843 171.973 170.791L187.107 161.996C187.124 161.985 187.141 161.975 187.158 161.965C187.174 161.956 187.189 161.946 187.204 161.936C187.23 161.92 187.255 161.904 187.28 161.887C187.303 161.873 187.325 161.857 187.347 161.842C187.37 161.825 187.394 161.809 187.418 161.792C187.439 161.777 187.46 161.762 187.48 161.746C187.502 161.729 187.524 161.712 187.545 161.695C187.565 161.679 187.584 161.664 187.603 161.648C187.623 161.63 187.644 161.613 187.664 161.595C187.672 161.588 187.681 161.58 187.689 161.573C187.697 161.566 187.702 161.56 187.71 161.553C187.743 161.521 187.775 161.491 187.805 161.458C187.815 161.448 187.825 161.437 187.836 161.426C187.874 161.385 187.91 161.343 187.944 161.3C187.945 161.298 187.947 161.297 187.949 161.294C187.956 161.284 187.963 161.274 187.97 161.265C187.99 161.238 188.011 161.211 188.029 161.184C188.039 161.169 188.048 161.154 188.058 161.138C188.074 161.114 188.09 161.089 188.104 161.064C188.108 161.057 188.113 161.05 188.117 161.044C188.123 161.033 188.127 161.023 188.133 161.013C188.144 160.993 188.155 160.971 188.165 160.951C188.174 160.933 188.182 160.916 188.19 160.898C188.199 160.876 188.208 160.856 188.217 160.835C188.221 160.826 188.225 160.815 188.23 160.806C188.233 160.797 188.235 160.789 188.239 160.78C188.246 160.76 188.252 160.74 188.259 160.719C188.265 160.701 188.27 160.682 188.275 160.664C188.281 160.644 188.285 160.623 188.29 160.603C188.292 160.592 188.295 160.582 188.298 160.57C188.299 160.562 188.3 160.556 188.301 160.548C188.304 160.526 188.308 160.506 188.311 160.485C188.313 160.466 188.316 160.448 188.318 160.43C188.32 160.409 188.321 160.389 188.322 160.367C188.322 160.355 188.325 160.342 188.325 160.33C188.325 160.317 188.325 160.305 188.325 160.293L188.335 156.883C188.335 156.908 188.333 156.932 188.331 156.956V156.959Z" fill="url(#paint17_linear_15_12966)"/>
<path d="M187.101 155.161C188.739 156.106 188.748 157.64 187.12 158.586L171.986 167.381C170.358 168.327 167.711 168.327 166.073 167.381L150.839 158.586C149.202 157.641 149.193 156.107 150.82 155.161L165.955 146.365C167.582 145.42 170.229 145.42 171.867 146.365L187.101 155.161Z" fill="url(#paint18_linear_15_12966)"/>
<path d="M163.684 155.07C163.913 154.938 163.915 154.724 163.686 154.59C163.459 154.458 163.087 154.458 162.858 154.59C162.056 155.053 161.652 155.663 161.648 156.269C161.645 156.875 162.044 157.485 162.84 157.948C163.067 158.08 163.438 158.08 163.668 157.948C163.897 157.816 163.898 157.6 163.67 157.468C163.099 157.136 162.817 156.703 162.82 156.269C162.823 155.833 163.109 155.401 163.684 155.069V155.07Z" fill="white"/>
<path d="M180.322 155.865C180.263 155.784 180.177 155.711 180.072 155.65C179.967 155.589 179.842 155.539 179.7 155.504C179.561 155.47 179.406 155.451 179.245 155.451H174.033C173.872 155.451 173.725 155.489 173.619 155.55C173.513 155.611 173.446 155.697 173.446 155.79V155.931H172.164C172.038 155.093 171.421 154.273 170.318 153.633C169.066 152.904 167.416 152.539 165.77 152.541C164.123 152.541 162.47 152.905 161.209 153.633C159.949 154.36 159.313 155.316 159.309 156.271C159.303 157.224 159.928 158.182 161.18 158.909C162.432 159.636 164.081 160.002 165.728 160.001C167.375 160.001 169.028 159.636 170.288 158.909C171.4 158.268 172.025 157.448 172.161 156.61H173.441V156.75C173.441 156.839 173.502 156.926 173.612 156.989C173.72 157.052 173.871 157.088 174.025 157.088H179.237C179.557 157.088 179.853 157.013 180.063 156.892C180.171 156.829 180.258 156.756 180.318 156.675C180.377 156.594 180.411 156.505 180.412 156.411V156.13C180.414 156.038 180.381 155.947 180.323 155.866L180.322 155.865ZM169.463 158.428C168.429 159.024 167.082 159.321 165.732 159.321C164.381 159.321 163.038 159.024 162.01 158.428C160.983 157.83 160.475 157.051 160.479 156.269C160.484 155.486 161 154.708 162.034 154.11C163.067 153.514 164.414 153.217 165.765 153.216C167.116 153.216 168.46 153.513 169.486 154.11C170.492 154.694 171 155.454 171.018 156.22C171.013 156.236 171.011 156.252 171.011 156.269C171.011 156.285 171.013 156.301 171.017 156.318C170.991 157.084 170.473 157.844 169.462 158.428H169.463ZM179.24 156.41H174.614V156.128H179.24V156.41Z" fill="white"/>
<path d="M215.566 139.328C215.565 139.349 215.564 139.37 215.561 139.391C215.559 139.409 215.557 139.427 215.555 139.445C215.551 139.467 215.549 139.487 215.544 139.509C215.541 139.527 215.536 139.546 215.533 139.564C215.529 139.584 215.524 139.604 215.518 139.625C215.514 139.643 215.508 139.662 215.503 139.68C215.496 139.7 215.49 139.721 215.482 139.741C215.475 139.759 215.469 139.777 215.462 139.795C215.454 139.817 215.445 139.838 215.435 139.859C215.427 139.877 215.419 139.894 215.41 139.912C215.4 139.933 215.388 139.953 215.377 139.975C215.368 139.992 215.359 140.009 215.349 140.026C215.334 140.051 215.318 140.075 215.303 140.1C215.292 140.115 215.283 140.13 215.273 140.144C215.254 140.171 215.235 140.199 215.213 140.226C215.204 140.237 215.196 140.249 215.187 140.261C215.154 140.304 215.117 140.345 215.079 140.387C215.069 140.397 215.059 140.409 215.049 140.419C215.018 140.45 214.986 140.482 214.954 140.514C214.939 140.527 214.923 140.542 214.909 140.555C214.889 140.573 214.869 140.59 214.848 140.609C214.828 140.624 214.81 140.64 214.79 140.656C214.768 140.673 214.747 140.69 214.724 140.708C214.704 140.724 214.684 140.739 214.662 140.754C214.64 140.771 214.615 140.788 214.591 140.804C214.57 140.819 214.547 140.834 214.525 140.849C214.5 140.865 214.474 140.881 214.449 140.898C214.417 140.918 214.386 140.937 214.352 140.956L199.217 149.752C199.127 149.805 199.032 149.853 198.935 149.9C198.91 149.912 198.884 149.925 198.858 149.936C198.771 149.977 198.682 150.015 198.59 150.05C198.578 150.054 198.567 150.06 198.554 150.065C198.456 150.102 198.355 150.136 198.254 150.167C198.183 150.19 198.11 150.209 198.039 150.228C197.984 150.243 197.931 150.259 197.874 150.272C197.799 150.291 197.721 150.306 197.644 150.322C197.588 150.333 197.532 150.347 197.475 150.356C197.451 150.361 197.427 150.364 197.403 150.367C197.307 150.383 197.211 150.397 197.114 150.408C197.086 150.411 197.058 150.415 197.03 150.418C196.974 150.424 196.918 150.427 196.861 150.432C196.768 150.44 196.674 150.446 196.579 150.451C196.519 150.453 196.458 150.454 196.397 150.455C196.32 150.457 196.245 150.458 196.168 150.455C196.104 150.455 196.04 150.453 195.976 150.45C195.905 150.447 195.835 150.443 195.765 150.438C195.7 150.434 195.636 150.428 195.572 150.423C195.502 150.416 195.433 150.408 195.363 150.399C195.299 150.391 195.237 150.382 195.175 150.373C195.101 150.362 195.027 150.348 194.954 150.335C194.895 150.323 194.838 150.312 194.78 150.3C194.693 150.28 194.606 150.259 194.521 150.236C194.466 150.222 194.409 150.208 194.354 150.191C194.325 150.182 194.295 150.173 194.266 150.164C194.18 150.137 194.096 150.108 194.012 150.077C193.988 150.068 193.963 150.06 193.94 150.051C193.864 150.022 193.791 149.989 193.717 149.956C193.681 149.94 193.645 149.926 193.61 149.909C193.505 149.859 193.402 149.806 193.303 149.748L178.069 140.953C177.759 140.775 177.509 140.575 177.315 140.362C177.22 140.256 177.137 140.147 177.069 140.035C177.047 139.998 177.026 139.96 177.007 139.922C176.892 139.696 176.834 139.461 176.834 139.227L176.824 142.637C176.822 143.26 177.234 143.885 178.059 144.361L193.293 153.157C193.391 153.213 193.494 153.266 193.6 153.317C193.635 153.334 193.672 153.349 193.708 153.365C193.77 153.393 193.832 153.421 193.897 153.447C193.908 153.452 193.919 153.455 193.931 153.459C193.954 153.469 193.979 153.478 194.003 153.487C194.086 153.517 194.171 153.546 194.257 153.574C194.286 153.583 194.316 153.592 194.345 153.601C194.365 153.606 194.385 153.613 194.404 153.619C194.439 153.629 194.476 153.636 194.511 153.645C194.597 153.667 194.683 153.689 194.771 153.708C194.795 153.714 194.817 153.72 194.84 153.725C194.874 153.732 194.91 153.736 194.944 153.743C195.017 153.757 195.09 153.77 195.165 153.781C195.194 153.786 195.224 153.793 195.254 153.797C195.287 153.802 195.32 153.804 195.353 153.808C195.421 153.818 195.491 153.825 195.561 153.832C195.595 153.836 195.628 153.84 195.661 153.843C195.691 153.846 195.723 153.847 195.755 153.848C195.825 153.853 195.896 153.857 195.967 153.859C196.002 153.86 196.038 153.864 196.073 153.865C196.101 153.865 196.13 153.865 196.158 153.865C196.235 153.865 196.31 153.865 196.387 153.865C196.425 153.865 196.463 153.865 196.501 153.865C196.524 153.865 196.546 153.862 196.568 153.86C196.663 153.856 196.756 153.849 196.85 153.841C196.888 153.838 196.926 153.838 196.964 153.833C196.982 153.831 197 153.829 197.018 153.827C197.047 153.823 197.075 153.82 197.103 153.816C197.2 153.805 197.296 153.792 197.392 153.776C197.416 153.772 197.44 153.769 197.463 153.764C197.475 153.762 197.486 153.761 197.497 153.759C197.542 153.751 197.586 153.74 197.632 153.731C197.709 153.715 197.786 153.699 197.863 153.681C197.918 153.667 197.973 153.651 198.027 153.637C198.099 153.618 198.171 153.597 198.243 153.576C198.257 153.571 198.274 153.568 198.289 153.562C198.375 153.534 198.459 153.505 198.543 153.473C198.555 153.469 198.567 153.463 198.579 153.458C198.671 153.422 198.76 153.384 198.847 153.344C198.873 153.333 198.898 153.321 198.924 153.308C199.021 153.262 199.116 153.212 199.206 153.16L214.34 144.365C214.357 144.355 214.374 144.344 214.391 144.334C214.407 144.325 214.422 144.315 214.438 144.305C214.464 144.289 214.488 144.273 214.513 144.256C214.536 144.242 214.558 144.226 214.58 144.211C214.604 144.194 214.627 144.178 214.651 144.161C214.672 144.146 214.693 144.131 214.713 144.115C214.736 144.098 214.757 144.081 214.779 144.064C214.798 144.049 214.817 144.033 214.836 144.017C214.857 143.999 214.877 143.982 214.897 143.964C214.905 143.957 214.914 143.949 214.922 143.942C214.93 143.936 214.936 143.929 214.944 143.922C214.976 143.89 215.008 143.86 215.038 143.827C215.049 143.817 215.059 143.806 215.069 143.796C215.107 143.754 215.143 143.712 215.177 143.669C215.178 143.667 215.181 143.666 215.182 143.663C215.19 143.653 215.196 143.643 215.203 143.634C215.224 143.607 215.244 143.58 215.262 143.553C215.272 143.538 215.281 143.523 215.291 143.508C215.307 143.483 215.323 143.458 215.338 143.433C215.341 143.426 215.347 143.419 215.35 143.413C215.356 143.403 215.36 143.392 215.366 143.382C215.377 143.362 215.388 143.34 215.399 143.32C215.408 143.302 215.416 143.285 215.423 143.267C215.433 143.246 215.442 143.225 215.451 143.204C215.454 143.195 215.459 143.185 215.463 143.176C215.466 143.166 215.469 143.159 215.472 143.15C215.479 143.129 215.486 143.109 215.492 143.089C215.498 143.071 215.504 143.051 215.508 143.033C215.514 143.013 215.518 142.993 215.523 142.972C215.525 142.961 215.529 142.951 215.531 142.94C215.532 142.932 215.533 142.925 215.534 142.917C215.538 142.895 215.541 142.875 215.544 142.854C215.547 142.836 215.549 142.818 215.551 142.799C215.553 142.778 215.555 142.758 215.556 142.736C215.556 142.724 215.558 142.711 215.558 142.699C215.558 142.687 215.558 142.674 215.558 142.662L215.568 139.252C215.568 139.277 215.566 139.301 215.565 139.326L215.566 139.328Z" fill="url(#paint19_linear_15_12966)"/>
<path d="M214.339 137.529C215.977 138.474 215.986 140.008 214.358 140.954L199.224 149.75C197.596 150.695 194.949 150.695 193.312 149.75L178.078 140.954C176.44 140.009 176.431 138.475 178.059 137.529L193.193 128.733C194.821 127.788 197.468 127.788 199.105 128.733L214.339 137.529Z" fill="url(#paint20_linear_15_12966)"/>
<path d="M193.126 132.697C192.897 132.829 192.895 133.044 193.124 133.177L193.948 133.656L194.774 134.136L195.599 134.616C195.828 134.748 196.199 134.748 196.427 134.616C196.657 134.484 196.659 134.269 196.43 134.136L195.604 133.656L194.778 133.176L193.954 132.697C193.726 132.565 193.355 132.565 193.126 132.697Z" fill="white"/>
<path d="M187.72 140.623C187.49 140.755 187.489 140.971 187.717 141.103C187.945 141.235 188.316 141.235 188.545 141.103L188.961 140.864L199.761 134.629L200.176 134.389C200.406 134.257 200.408 134.042 200.179 133.909C199.952 133.777 199.579 133.777 199.351 133.909L198.935 134.149L188.135 140.384L187.72 140.623Z" fill="white"/>
<path d="M199.353 133.909C199.582 133.777 199.954 133.777 200.181 133.909L197.27 132.217C197.162 132.154 197.011 132.119 196.857 132.119C196.702 132.119 196.551 132.155 196.443 132.217L194.781 133.177L195.607 133.657L196.854 132.938L198.938 134.15L199.354 133.91L199.353 133.909Z" fill="white"/>
<path d="M187.301 137.493L188.126 137.973L194.773 134.136L193.947 133.656L187.301 137.493Z" fill="white"/>
<path d="M185.65 137.014C185.42 137.146 185.418 137.36 185.647 137.494L186.472 137.972L187.297 138.452L188.123 138.932C188.351 139.065 188.723 139.065 188.951 138.932C189.18 138.8 189.182 138.586 188.953 138.452L188.127 137.972L187.302 137.492L186.477 137.014C186.249 136.882 185.879 136.882 185.65 137.014Z" fill="white"/>
<path d="M184.638 139.172C184.638 139.261 184.699 139.348 184.807 139.411L187.718 141.103C187.491 140.971 187.491 140.757 187.72 140.623L188.135 140.384L186.051 139.172L187.296 138.453L186.471 137.973L184.81 138.931C184.7 138.995 184.638 139.083 184.637 139.172H184.638Z" fill="white"/>
<path d="M194.743 139.411C194.514 139.543 194.513 139.759 194.741 139.891C194.969 140.023 195.339 140.023 195.569 139.891L195.983 139.652C196.212 139.52 196.215 139.305 195.985 139.172C195.758 139.04 195.387 139.04 195.157 139.172L194.743 139.411Z" fill="white"/>
<path d="M192.669 140.611C192.439 140.743 192.438 140.959 192.666 141.091C192.895 141.223 193.266 141.223 193.494 141.091L193.91 140.852C194.139 140.719 194.141 140.505 193.912 140.372C193.685 140.239 193.312 140.239 193.084 140.372L192.669 140.611Z" fill="white"/>
<path d="M198.899 137.014C198.67 137.146 198.67 137.36 198.897 137.493C199.125 137.625 199.495 137.625 199.724 137.493L200.14 137.253C200.369 137.121 200.371 136.906 200.142 136.773C199.915 136.641 199.544 136.641 199.314 136.773L198.899 137.013V137.014Z" fill="white"/>
<path d="M196.821 138.213C196.592 138.345 196.591 138.561 196.819 138.693C197.047 138.825 197.419 138.825 197.647 138.693L198.062 138.454C198.292 138.321 198.294 138.107 198.065 137.974C197.838 137.841 197.465 137.841 197.237 137.974L196.821 138.213Z" fill="white"/>
<path d="M197.22 140.85C196.99 140.982 196.989 141.198 197.217 141.33C197.445 141.462 197.816 141.462 198.045 141.33L198.46 141.091C198.689 140.959 198.691 140.744 198.462 140.611C198.235 140.479 197.863 140.479 197.634 140.611L197.22 140.85Z" fill="white"/>
<path d="M195.145 142.049C194.916 142.182 194.915 142.397 195.143 142.529C195.371 142.662 195.743 142.662 195.971 142.529L196.386 142.29C196.616 142.158 196.618 141.943 196.389 141.81C196.162 141.678 195.789 141.678 195.561 141.81L195.145 142.049Z" fill="white"/>
<path d="M199.298 139.652C199.068 139.784 199.067 140 199.295 140.132C199.524 140.264 199.895 140.264 200.123 140.132L200.539 139.893C200.768 139.76 200.77 139.546 200.541 139.413C200.314 139.28 199.941 139.28 199.713 139.413L199.298 139.652Z" fill="white"/>
<path d="M201.375 138.452C201.146 138.585 201.146 138.799 201.373 138.931C201.601 139.063 201.972 139.063 202.201 138.931L202.617 138.692C202.846 138.56 202.848 138.345 202.619 138.212C202.392 138.08 202.02 138.08 201.791 138.212L201.375 138.451V138.452Z" fill="white"/>
<path d="M188.547 141.103C188.317 141.235 187.947 141.235 187.719 141.103L195.125 145.407C195.234 145.47 195.384 145.507 195.537 145.507C195.691 145.507 195.843 145.47 195.953 145.407L207.583 138.692C207.693 138.629 207.755 138.542 207.755 138.453C207.755 138.363 207.694 138.275 207.585 138.213L200.179 133.909C200.407 134.041 200.405 134.257 200.177 134.389L199.761 134.629L206.342 138.453L195.542 144.688L188.961 140.864L188.545 141.103H188.547Z" fill="white"/>
<path d="M55.1535 48.4754L52.3866 50.0825L49.6016 48.4754L52.3685 46.8672L55.1535 48.4754Z" fill="#E6F9FF"/>
<path d="M55.153 48.4753L55.1146 87.6461L52.3477 89.2543L52.3861 50.0824L55.153 48.4753Z" fill="url(#paint21_linear_15_12966)"/>
<path d="M52.3859 50.0824L52.3475 89.2543L49.5625 87.6472L49.6009 48.4753L52.3859 50.0824Z" fill="url(#paint22_linear_15_12966)"/>
<path d="M45.1691 60.7437L42.4022 62.3519L39.6172 60.7437L42.3841 59.1355L45.1691 60.7437Z" fill="#E6F9FF"/>
<path d="M45.1686 60.7437L45.1302 92.4504L42.3633 94.0586L42.4017 62.3519L45.1686 60.7437Z" fill="url(#paint23_linear_15_12966)"/>
<path d="M42.4015 62.3519L42.3631 94.0586L39.5781 92.4504L39.6165 60.7437L42.4015 62.3519Z" fill="url(#paint24_linear_15_12966)"/>
<path d="M64.1183 50.0644L61.3514 51.6726L58.5664 50.0644L61.3333 48.4562L64.1183 50.0644Z" fill="#E6F9FF"/>
<path d="M64.1178 50.0643L64.0794 81.7711L61.3125 83.3793L61.3509 51.6725L64.1178 50.0643Z" fill="url(#paint25_linear_15_12966)"/>
<path d="M61.3507 51.6725L61.3124 83.3793L58.5273 81.7711L58.5657 50.0643L61.3507 51.6725Z" fill="url(#paint26_linear_15_12966)"/>
<path d="M35.6379 74.6506L32.8709 76.2588L30.0859 74.6506L32.8529 73.0424L35.6379 74.6506Z" fill="#E6F9FF"/>
<path d="M35.6374 74.6506L35.599 97.6749L32.832 99.2831L32.8704 76.2588L35.6374 74.6506Z" fill="url(#paint27_linear_15_12966)"/>
<path d="M32.8703 76.2588L32.8319 99.2831L30.0469 97.6749L30.0853 74.6506L32.8703 76.2588Z" fill="url(#paint28_linear_15_12966)"/>
<path opacity="0.8" d="M60.7958 135.331L12.2932 107.297C10.8296 106.453 9 107.509 9 109.198V122.786C9 124.348 9.83347 125.793 11.1864 126.573L60.0211 154.798C61.3221 155.549 62.9507 154.62 62.9653 153.118L63.0998 139.367C63.1156 137.704 62.2358 136.163 60.7958 135.331Z" fill="url(#paint29_linear_15_12966)"/>
<path d="M59.9294 145.155C59.9294 140.901 56.9151 135.68 53.2323 133.554C49.5483 131.427 46.5352 133.166 46.5352 137.421C46.5352 141.675 49.5494 146.895 53.2323 149.021C56.9162 151.148 59.9294 149.408 59.9294 145.155Z" fill="white"/>
<path opacity="0.8" d="M54.8557 139.211C54.8557 137.835 53.881 136.147 52.6896 135.459C51.4981 134.771 50.5234 135.334 50.5234 136.709C50.5234 138.085 51.4981 139.773 52.6896 140.461C53.881 141.149 54.8557 140.586 54.8557 139.211Z" fill="#ED8406"/>
<path opacity="0.8" d="M56.4331 148.564L49.9336 144.812V143.228C49.9336 141.709 51.5779 140.759 52.8936 141.519L53.3725 141.796C55.2664 142.889 56.4331 144.909 56.4331 147.097V148.566V148.564Z" fill="#ED8406"/>
<path opacity="0.5" d="M12.4051 113.295L43.7968 131.298C43.9933 131.411 44.1141 131.619 44.1141 131.845C44.1141 132.329 43.5901 132.633 43.17 132.392L11.7783 114.39C11.5818 114.277 11.4609 114.069 11.4609 113.843C11.4609 113.357 11.985 113.055 12.4051 113.295Z" fill="url(#paint30_linear_15_12966)"/>
<path opacity="0.5" d="M12.4051 116.155L43.7968 134.158C43.9933 134.271 44.1141 134.479 44.1141 134.705C44.1141 135.189 43.5901 135.493 43.17 135.251L11.7783 117.249C11.5818 117.136 11.4609 116.928 11.4609 116.703C11.4609 116.217 11.985 115.914 12.4051 116.155Z" fill="url(#paint31_linear_15_12966)"/>
<path opacity="0.5" d="M12.4051 119.014L43.7968 137.018C43.9933 137.131 44.1141 137.338 44.1141 137.564C44.1141 138.049 43.5901 138.353 43.17 138.111L11.7783 120.109C11.5818 119.996 11.4609 119.788 11.4609 119.562C11.4609 119.077 11.985 118.774 12.4051 119.014Z" fill="url(#paint32_linear_15_12966)"/>
<path opacity="0.5" d="M12.4051 121.862L43.7968 139.865C43.9933 139.978 44.1141 140.186 44.1141 140.411C44.1141 140.896 43.5901 141.2 43.17 140.958L11.7783 122.956C11.5818 122.843 11.4609 122.635 11.4609 122.409C11.4609 121.924 11.985 121.621 12.4051 121.862Z" fill="url(#paint33_linear_15_12966)"/>
<defs>
<linearGradient id="paint0_linear_15_12966" x1="160.782" y1="37.2812" x2="141.554" y2="14.4083" gradientUnits="userSpaceOnUse">
<stop stop-color="#FFBC00"/>
<stop offset="1" stop-color="#FFEBB3"/>
</linearGradient>
<linearGradient id="paint1_linear_15_12966" x1="154.062" y1="42.927" x2="134.834" y2="20.0552" gradientUnits="userSpaceOnUse">
<stop stop-color="#FFBC00"/>
<stop offset="1" stop-color="#FFEBB3"/>
</linearGradient>
<linearGradient id="paint2_linear_15_12966" x1="156.202" y1="41.1278" x2="136.975" y2="18.2548" gradientUnits="userSpaceOnUse">
<stop stop-color="#FFBC00"/>
<stop offset="1" stop-color="#FFEBB3"/>
</linearGradient>
<linearGradient id="paint3_linear_15_12966" x1="155.998" y1="41.2995" x2="136.77" y2="18.4277" gradientUnits="userSpaceOnUse">
<stop stop-color="#FFBC00"/>
<stop offset="1" stop-color="#FFEBB3"/>
</linearGradient>
<linearGradient id="paint4_linear_15_12966" x1="158.591" y1="39.1187" x2="139.363" y2="16.2458" gradientUnits="userSpaceOnUse">
<stop stop-color="#FFBC00"/>
<stop offset="1" stop-color="#FFEBB3"/>
</linearGradient>
<linearGradient id="paint5_linear_15_12966" x1="158.389" y1="39.2904" x2="139.162" y2="16.4186" gradientUnits="userSpaceOnUse">
<stop stop-color="#FFBC00"/>
<stop offset="1" stop-color="#FFEBB3"/>
</linearGradient>
<linearGradient id="paint6_linear_15_12966" x1="158.183" y1="39.4632" x2="138.956" y2="16.5903" gradientUnits="userSpaceOnUse">
<stop stop-color="#FFBC00"/>
<stop offset="1" stop-color="#FFEBB3"/>
</linearGradient>
<linearGradient id="paint7_linear_15_12966" x1="160.575" y1="37.4529" x2="141.346" y2="14.5811" gradientUnits="userSpaceOnUse">
<stop stop-color="#FFBC00"/>
<stop offset="1" stop-color="#FFEBB3"/>
</linearGradient>
<linearGradient id="paint8_linear_15_12966" x1="162.717" y1="35.6538" x2="143.49" y2="12.7808" gradientUnits="userSpaceOnUse">
<stop stop-color="#FFBC00"/>
<stop offset="1" stop-color="#FFEBB3"/>
</linearGradient>
<linearGradient id="paint9_linear_15_12966" x1="236.859" y1="117.06" x2="10.762" y2="117.06" gradientUnits="userSpaceOnUse">
<stop stop-color="#F5F5F5"/>
<stop offset="1" stop-color="#CBD4EC"/>
</linearGradient>
<linearGradient id="paint10_linear_15_12966" x1="152.833" y1="113.136" x2="152.833" y2="159.776" gradientUnits="userSpaceOnUse">
<stop stop-color="#E30613"/>
<stop offset="1" stop-color="#95060F"/>
</linearGradient>
<linearGradient id="paint11_linear_15_12966" x1="106.937" y1="11.2462" x2="58.4141" y2="1.35749" gradientUnits="userSpaceOnUse">
<stop stop-color="#B5B5B5"/>
<stop offset="1" stop-color="#CBD4EC"/>
</linearGradient>
<linearGradient id="paint12_linear_15_12966" x1="133.662" y1="108.075" x2="135.939" y2="41.7242" gradientUnits="userSpaceOnUse">
<stop stop-color="#878787"/>
<stop offset="0.55" stop-color="#DBE2F2"/>
<stop offset="1" stop-color="#B6BED4"/>
</linearGradient>
<linearGradient id="paint13_linear_15_12966" x1="139.383" y1="43.7289" x2="105.881" y2="3.72357" gradientUnits="userSpaceOnUse">
<stop stop-color="#B5B5B5"/>
<stop offset="1" stop-color="#CBD4EC"/>
</linearGradient>
<linearGradient id="paint14_linear_15_12966" x1="99.5707" y1="122.461" x2="104.775" y2="7.64793" gradientUnits="userSpaceOnUse">
<stop stop-color="#A8A8A8"/>
<stop offset="0.51" stop-color="#CBD4EC"/>
<stop offset="1" stop-color="#D7E0FA"/>
</linearGradient>
<linearGradient id="paint15_linear_15_12966" x1="102.573" y1="98.9398" x2="86.6505" y2="21.5334" gradientUnits="userSpaceOnUse">
<stop stop-color="#ABABAB"/>
<stop offset="0.51" stop-color="#EDF1FA"/>
<stop offset="1" stop-color="#E8EDFA"/>
</linearGradient>
<linearGradient id="paint16_linear_15_12966" x1="77.0117" y1="16.0979" x2="135.453" y2="99.9653" gradientUnits="userSpaceOnUse">
<stop stop-color="#D4D4D4"/>
<stop offset="1" stop-color="#EDF1FA"/>
</linearGradient>
<linearGradient id="paint17_linear_15_12966" x1="149.594" y1="164.18" x2="188.335" y2="164.18" gradientUnits="userSpaceOnUse">
<stop stop-color="#FFE148"/>
<stop offset="0.45" stop-color="#CF8C29"/>
<stop offset="1" stop-color="#C48527"/>
</linearGradient>
<linearGradient id="paint18_linear_15_12966" x1="149.605" y1="156.874" x2="188.335" y2="156.874" gradientUnits="userSpaceOnUse">
<stop stop-color="#FFF0C7"/>
<stop offset="0.32" stop-color="#F7D377"/>
<stop offset="1" stop-color="#FEA420"/>
</linearGradient>
<linearGradient id="paint19_linear_15_12966" x1="176.829" y1="146.548" x2="215.569" y2="146.548" gradientUnits="userSpaceOnUse">
<stop stop-color="#9DFF48"/>
<stop offset="0.45" stop-color="#4ABF26"/>
<stop offset="1" stop-color="#1C8C2B"/>
</linearGradient>
<linearGradient id="paint20_linear_15_12966" x1="176.842" y1="139.242" x2="215.573" y2="139.242" gradientUnits="userSpaceOnUse">
<stop stop-color="#E1FFC7"/>
<stop offset="0.32" stop-color="#9BE858"/>
<stop offset="1" stop-color="#45B32D"/>
</linearGradient>
<linearGradient id="paint21_linear_15_12966" x1="52.8209" y1="52.6077" x2="54.0993" y2="74.9803" gradientUnits="userSpaceOnUse">
<stop stop-color="#C7FFF5"/>
<stop offset="1" stop-color="#77BBF7"/>
</linearGradient>
<linearGradient id="paint22_linear_15_12966" x1="50.9742" y1="50.7375" x2="50.9742" y2="90.9483" gradientUnits="userSpaceOnUse">
<stop stop-color="#C7FFF5"/>
<stop offset="0.32" stop-color="#77BBF7"/>
<stop offset="1" stop-color="#3B8DEB"/>
</linearGradient>
<linearGradient id="paint23_linear_15_12966" x1="43.007" y1="64.1317" x2="44.0505" y2="82.3924" gradientUnits="userSpaceOnUse">
<stop stop-color="#C7FFF5"/>
<stop offset="1" stop-color="#77BBF7"/>
</linearGradient>
<linearGradient id="paint24_linear_15_12966" x1="40.9898" y1="62.5913" x2="40.9898" y2="95.4421" gradientUnits="userSpaceOnUse">
<stop stop-color="#C7FFF5"/>
<stop offset="0.32" stop-color="#77BBF7"/>
<stop offset="1" stop-color="#3B8DEB"/>
</linearGradient>
<linearGradient id="paint25_linear_15_12966" x1="61.9562" y1="53.4524" x2="62.9998" y2="71.713" gradientUnits="userSpaceOnUse">
<stop stop-color="#C7FFF5"/>
<stop offset="1" stop-color="#77BBF7"/>
</linearGradient>
<linearGradient id="paint26_linear_15_12966" x1="59.939" y1="51.912" x2="59.939" y2="84.7628" gradientUnits="userSpaceOnUse">
<stop stop-color="#C7FFF5"/>
<stop offset="0.32" stop-color="#77BBF7"/>
<stop offset="1" stop-color="#3B8DEB"/>
</linearGradient>
<linearGradient id="paint27_linear_15_12966" x1="33.6745" y1="77.1725" x2="34.4448" y2="90.6514" gradientUnits="userSpaceOnUse">
<stop stop-color="#C7FFF5"/>
<stop offset="1" stop-color="#77BBF7"/>
</linearGradient>
<linearGradient id="paint28_linear_15_12966" x1="31.4586" y1="76.0172" x2="31.4586" y2="100.306" gradientUnits="userSpaceOnUse">
<stop stop-color="#C7FFF5"/>
<stop offset="0.32" stop-color="#77BBF7"/>
<stop offset="1" stop-color="#3B8DEB"/>
</linearGradient>
<linearGradient id="paint29_linear_15_12966" x1="63.1957" y1="156.319" x2="10.8036" y2="107.459" gradientUnits="userSpaceOnUse">
<stop stop-color="#FFDCC7"/>
<stop offset="0.32" stop-color="#F7AC77"/>
<stop offset="1" stop-color="#FF8E07"/>
</linearGradient>
<linearGradient id="paint30_linear_15_12966" x1="41.4534" y1="116.011" x2="35.8517" y2="118.811" gradientUnits="userSpaceOnUse">
<stop stop-color="#1D4891"/>
<stop offset="1" stop-color="white"/>
</linearGradient>
<linearGradient id="paint31_linear_15_12966" x1="43.4399" y1="117.877" x2="37.8383" y2="120.678" gradientUnits="userSpaceOnUse">
<stop stop-color="#1D4891"/>
<stop offset="1" stop-color="white"/>
</linearGradient>
<linearGradient id="paint32_linear_15_12966" x1="45.4265" y1="119.743" x2="39.8248" y2="122.544" gradientUnits="userSpaceOnUse">
<stop stop-color="#1D4891"/>
<stop offset="1" stop-color="white"/>
</linearGradient>
<linearGradient id="paint33_linear_15_12966" x1="45.4265" y1="122.59" x2="39.8248" y2="125.391" gradientUnits="userSpaceOnUse">
<stop stop-color="#1D4891"/>
<stop offset="1" stop-color="white"/>
</linearGradient>
</defs>
</svg>
