<svg width="222" height="223" viewBox="0 0 222 223" fill="none" xmlns="http://www.w3.org/2000/svg">
<path d="M129.207 220.09C128.968 220.09 128.73 220.028 128.518 219.905L102.873 205C102.77 204.94 102.735 204.808 102.795 204.704C102.854 204.6 102.986 204.566 103.091 204.626L128.736 219.531C129.023 219.699 129.385 219.7 129.676 219.531L155.491 204.625C155.592 204.564 155.726 204.599 155.787 204.704C155.846 204.808 155.81 204.94 155.708 205L129.892 219.906C129.681 220.03 129.444 220.09 129.207 220.09Z" fill="#DBDEE4"/>
<path d="M108.852 204.768C110.418 205.672 110.427 207.14 108.871 208.043C107.315 208.947 104.782 208.947 103.215 208.043C101.649 207.14 101.641 205.673 103.197 204.768C104.753 203.864 107.285 203.863 108.852 204.768Z" fill="white"/>
<path d="M106.047 208.934C104.983 208.934 103.919 208.7 103.107 208.231C102.278 207.751 101.82 207.101 101.82 206.4C101.82 205.703 102.269 205.057 103.089 204.58C104.703 203.643 107.336 203.641 108.961 204.58C109.79 205.059 110.249 205.709 110.249 206.412C110.249 207.109 109.799 207.755 108.98 208.231C108.172 208.7 107.111 208.934 106.047 208.934ZM106.021 204.304C105.037 204.304 104.055 204.521 103.307 204.955C102.627 205.351 102.252 205.864 102.254 206.4C102.254 206.94 102.634 207.456 103.325 207.855C104.829 208.724 107.271 208.724 108.763 207.855C109.444 207.46 109.818 206.947 109.817 206.41C109.817 205.869 109.435 205.353 108.745 204.954C107.993 204.52 107.007 204.303 106.022 204.303L106.021 204.304Z" fill="#DBDEE4"/>
<path d="M106.047 207.44C105.437 207.44 104.846 207.301 104.425 207.058C104.088 206.863 103.895 206.625 103.895 206.401C103.895 206.182 104.084 205.945 104.415 205.753C104.832 205.511 105.42 205.372 106.03 205.372C106.64 205.372 107.231 205.511 107.651 205.753C107.988 205.948 108.181 206.187 108.183 206.409C108.183 206.628 107.993 206.866 107.662 207.057C107.245 207.299 106.657 207.437 106.048 207.437L106.047 207.44Z" fill="#ED8406"/>
<path d="M117.807 214.071C117.151 214.071 116.516 213.922 116.067 213.661C115.705 213.452 115.496 213.196 115.496 212.956C115.496 212.72 115.7 212.466 116.055 212.26C116.502 212 117.134 211.851 117.789 211.851C118.444 211.851 119.079 212 119.529 212.26C119.892 212.469 120.099 212.726 120.099 212.965C120.099 213.201 119.896 213.455 119.541 213.661C119.093 213.921 118.462 214.07 117.807 214.07V214.071Z" fill="#373B42"/>
<path d="M147.218 189.156C147.181 189.156 147.143 189.147 147.109 189.126L95.7718 159.296C95.668 159.236 95.6334 159.104 95.6936 159C95.7526 158.895 95.8846 158.861 95.9898 158.922L147.327 188.752C147.43 188.812 147.465 188.944 147.405 189.048C147.365 189.117 147.292 189.156 147.218 189.156Z" fill="#DBDEE4"/>
<path d="M123.507 173.936C124.163 173.936 124.798 174.084 125.248 174.346C125.609 174.555 125.818 174.811 125.818 175.051C125.818 175.287 125.614 175.541 125.259 175.747C124.812 176.007 124.18 176.156 123.525 176.156C122.87 176.156 122.235 176.007 121.785 175.747C121.423 175.538 121.215 175.28 121.215 175.042C121.215 174.806 121.419 174.552 121.774 174.346C122.221 174.086 122.852 173.937 123.507 173.937V173.936Z" fill="#373B42"/>
<path d="M66.8585 207.137C66.7842 207.137 66.7111 207.099 66.6701 207.029C66.6111 206.926 66.647 206.794 66.7496 206.733L89.8164 193.431C90.0164 193.315 90.1369 193.108 90.1381 192.876C90.1381 192.644 90.0189 192.436 89.819 192.321L56.8929 173.239C56.7891 173.179 56.7545 173.047 56.8147 172.943C56.8737 172.838 57.0083 172.805 57.1096 172.865L90.0356 191.946C90.3715 192.141 90.5714 192.489 90.5714 192.877C90.5714 193.265 90.3702 193.613 90.033 193.806L66.9662 207.109C66.9329 207.128 66.8957 207.137 66.8585 207.137Z" fill="#DBDEE4"/>
<path d="M71.1917 207.254C72.762 206.35 72.771 204.884 71.2109 203.98C69.6508 203.076 67.1126 203.076 65.5423 203.98C63.9719 204.884 63.9642 206.349 65.5243 207.253C67.0844 208.156 69.6213 208.156 71.1917 207.253V207.254Z" fill="white"/>
<path d="M68.3569 208.143C67.2904 208.143 66.2264 207.909 65.4175 207.441C64.5958 206.964 64.1433 206.319 64.1445 205.622C64.1445 204.921 64.6035 204.271 65.4354 203.793C67.0635 202.856 69.7042 202.856 71.322 203.793C72.1437 204.268 72.5949 204.914 72.5949 205.612C72.5949 206.313 72.1347 206.963 71.3027 207.442C70.4887 207.91 69.4222 208.145 68.3582 208.145L68.3569 208.143ZM68.3825 203.516C67.3942 203.516 66.4058 203.734 65.6521 204.168C64.9598 204.567 64.5778 205.084 64.5778 205.623C64.5778 206.159 64.9521 206.672 65.6341 207.067C67.1314 207.935 69.5773 207.933 71.0848 207.067C71.7783 206.668 72.1591 206.151 72.1603 205.61C72.1603 205.076 71.786 204.563 71.1041 204.167C70.3554 203.732 69.3683 203.516 68.3825 203.516Z" fill="#DBDEE4"/>
<path d="M68.3801 204.584C67.7674 204.584 67.1751 204.722 66.7546 204.964C66.4162 205.159 66.2227 205.398 66.2227 205.619C66.2227 205.839 66.4124 206.074 66.7444 206.267C67.1623 206.509 67.752 206.647 68.3634 206.647C68.9749 206.647 69.5672 206.509 69.9876 206.267C70.3261 206.072 70.5196 205.833 70.5209 205.61C70.5209 205.391 70.3312 205.155 69.9992 204.963C69.5826 204.721 68.9929 204.582 68.3814 204.582L68.3801 204.584Z" fill="#ED8406"/>
<path d="M71.1878 207.254C72.7581 206.35 72.7671 204.884 71.207 203.98C69.6469 203.076 67.1087 203.076 65.5384 203.98C63.968 204.884 63.9603 206.349 65.5204 207.253C67.0805 208.157 69.6174 208.157 71.1878 207.253V207.254Z" fill="white"/>
<path d="M68.353 208.144C67.2864 208.144 66.2225 207.909 65.4136 207.441C64.5919 206.964 64.1393 206.32 64.1406 205.622C64.1406 204.921 64.5996 204.271 65.4315 203.793C67.0595 202.856 69.7003 202.856 71.3181 203.793C72.1398 204.268 72.591 204.915 72.591 205.612C72.591 206.313 72.1308 206.963 71.2988 207.443C70.4848 207.91 69.4183 208.145 68.3543 208.145L68.353 208.144ZM68.3786 203.516C67.3903 203.516 66.4019 203.734 65.6482 204.169C64.9559 204.567 64.5739 205.084 64.5739 205.623C64.5739 206.159 64.9482 206.672 65.6302 207.067C67.1275 207.935 69.5734 207.933 71.0809 207.067C71.7744 206.668 72.1552 206.152 72.1564 205.611C72.1564 205.076 71.7821 204.563 71.1001 204.167C70.3515 203.733 69.3644 203.516 68.3786 203.516Z" fill="#DBDEE4"/>
<path d="M68.3762 204.584C67.7635 204.584 67.1712 204.722 66.7507 204.965C66.4123 205.159 66.2188 205.398 66.2188 205.62C66.2188 205.839 66.4085 206.075 66.7405 206.267C67.1584 206.509 67.7481 206.648 68.3595 206.648C68.971 206.648 69.5633 206.509 69.9837 206.267C70.3222 206.072 70.5157 205.834 70.517 205.611C70.517 205.391 70.3273 205.156 69.9953 204.963C69.5786 204.721 68.989 204.583 68.3775 204.583L68.3762 204.584Z" fill="#ED8406"/>
<path d="M80.7318 197.651C80.0741 197.651 79.4383 197.8 78.9858 198.06C78.623 198.269 78.4141 198.525 78.4141 198.764C78.4141 199 78.6179 199.254 78.9743 199.46C79.4229 199.72 80.0562 199.869 80.7125 199.869C81.3689 199.869 82.0047 199.72 82.4572 199.46C82.82 199.251 83.029 198.993 83.029 198.755C83.029 198.519 82.8251 198.265 82.4688 198.059C82.0214 197.8 81.3868 197.65 80.7305 197.65L80.7318 197.651Z" fill="#373B42"/>
<g opacity="0.1">
<path d="M118.926 153.274C120.681 154.286 120.68 155.932 118.938 156.945L21.8661 213.177C20.1227 214.19 17.291 214.19 15.536 213.177L1.32216 204.972C-0.432784 203.959 -0.441757 202.318 1.30165 201.306L98.3735 145.073C100.117 144.06 102.959 144.054 104.713 145.068L118.926 153.274Z" fill="#E0E3F1"/>
</g>
<path d="M121.552 144.969L121.52 151.347C121.52 152.007 121.086 152.657 120.22 153.166L23.1441 209.41C22.8737 209.573 22.5698 209.702 22.2558 209.811C20.8482 210.288 19.083 210.288 17.6857 209.801C17.3717 209.703 17.0794 209.562 16.8089 209.411L2.59119 201.204C1.71436 200.695 1.26953 200.024 1.26953 199.353L1.29132 192.986C1.29132 193.646 1.72461 194.318 2.62323 194.827L16.8192 203.023C17.0897 203.175 17.3717 203.305 17.6857 203.413C19.083 203.9 20.8482 203.912 22.2558 203.435C22.5801 203.326 22.8839 203.186 23.1544 203.023L120.23 146.79C121.097 146.302 121.53 145.631 121.552 144.971V144.969Z" fill="#D4D6F2"/>
<path d="M22.2575 203.434V209.811C20.85 210.288 19.0848 210.288 17.6875 209.801V203.413C19.0848 203.9 20.85 203.912 22.2575 203.435V203.434Z" fill="#E8E9F8"/>
<path d="M120.223 143.125C121.978 144.137 121.977 145.783 120.235 146.796L23.163 203.029C21.4196 204.041 18.5879 204.041 16.8329 203.029L2.61903 194.823C0.864091 193.81 0.855118 192.169 2.59852 191.157L99.6703 134.924C101.414 133.911 104.256 133.905 106.009 134.919L120.223 143.125Z" fill="#EFF0FF"/>
<path d="M110.514 5.11732C109.276 4.39176 107.562 4.49815 105.67 5.58137L23.1864 52.9917C22.3172 53.4917 21.4955 54.1583 20.7341 54.9441C18.8176 56.908 17.3178 59.6103 16.7114 62.2408C16.5089 63.0856 16.4025 63.9303 16.4025 64.7405L16.6166 191.172C16.6166 193.327 17.3896 194.825 18.6048 195.54L10.9992 191.136C9.78523 190.422 9.02377 188.911 9.01095 186.756L8.79688 60.3128C8.79688 59.5154 8.89174 58.6822 9.09428 57.8374C9.70191 55.2069 11.1889 52.5174 13.1182 50.542C13.8681 49.7562 14.7129 49.0781 15.5821 48.5781L98.0631 1.17799C99.9552 0.0832366 101.669 -0.0116253 102.907 0.689583L110.513 5.11732H110.514Z" fill="#E8E9F8"/>
<path d="M20.7348 54.943C18.8184 56.9069 17.3185 59.6092 16.7122 62.2397L9.09375 57.8363C9.70138 55.2058 11.1884 52.5163 13.1177 50.5409L20.7361 54.9443L20.7348 54.943Z" fill="#F0F2F5"/>
<path d="M16.4425 78.475C16.4054 78.475 16.3682 78.466 16.3349 78.4455L8.72925 74.0409C8.62542 73.9806 8.59081 73.8486 8.64978 73.7447C8.71003 73.6409 8.84463 73.6063 8.9459 73.6665L16.5515 78.0712C16.6553 78.1315 16.69 78.2635 16.631 78.3673C16.59 78.4366 16.5182 78.475 16.4425 78.475Z" fill="#373B42"/>
<path d="M16.6075 185.748C16.5703 185.748 16.5332 185.739 16.4985 185.719L8.89293 181.303C8.7891 181.242 8.75449 181.11 8.81474 181.006C8.8737 180.903 9.00702 180.868 9.11086 180.928L16.7165 185.344C16.8203 185.405 16.8549 185.537 16.7947 185.641C16.7549 185.71 16.6819 185.748 16.6075 185.748Z" fill="#373B42"/>
<path d="M100.642 8.70033C100.604 8.70033 100.567 8.69136 100.534 8.67085L92.9398 4.26747C92.836 4.20722 92.8014 4.07518 92.8616 3.97134C92.9206 3.86623 93.0539 3.8329 93.1565 3.89315L100.751 8.29653C100.854 8.35678 100.889 8.48882 100.829 8.59265C100.789 8.66187 100.716 8.70033 100.642 8.70033Z" fill="#373B42"/>
<path d="M112.505 9.47459C112.492 5.15966 109.427 3.42267 105.672 5.59039L23.1914 52.9905C19.4264 55.1634 16.3896 60.4231 16.4024 64.738L16.4408 78.2366L112.544 22.9744L112.505 9.47587V9.47459Z" fill="#131416"/>
<path d="M16.4414 78.4533C16.4042 78.4533 16.367 78.443 16.3337 78.4251C16.267 78.3866 16.226 78.3148 16.226 78.2379L16.1875 64.7393C16.176 60.3603 19.2693 55.0057 23.0855 52.8034L105.564 5.40327C107.459 4.30979 109.255 4.1393 110.616 4.92383C111.967 5.70196 112.715 7.31717 112.721 9.47463L112.759 22.9732C112.759 23.0501 112.718 23.1219 112.652 23.1617L16.549 78.4251C16.5157 78.4443 16.4785 78.4533 16.4414 78.4533ZM108.726 4.87127C107.827 4.87127 106.824 5.17637 105.781 5.77887L23.3009 53.1777C19.6051 55.3108 16.608 60.4975 16.6195 64.738L16.6567 77.8636L112.327 22.8489L112.289 9.47592C112.284 7.47997 111.613 5.9968 110.402 5.29943C109.906 5.01357 109.341 4.87256 108.728 4.87256L108.726 4.87127Z" fill="#373B42"/>
<path d="M16.4414 78.2378L16.6234 191.176C16.6363 195.501 19.6923 197.243 23.4573 195.069L105.937 147.67C109.693 145.503 112.738 140.238 112.726 135.913L112.544 22.9757L16.4414 78.2378Z" fill="white"/>
<path d="M27.1247 59.2452C28.3822 58.5196 29.3936 59.0952 29.3988 60.5399C29.4026 61.9731 28.3976 63.7255 27.14 64.4523C25.8825 65.1779 24.871 64.5895 24.8672 63.1563C24.8634 61.7116 25.8684 59.9707 27.1259 59.2452H27.1247Z" fill="white"/>
<path d="M36.5869 53.783C37.8342 53.0625 38.8559 53.633 38.8597 55.0777C38.8636 56.5109 37.8483 58.2697 36.601 58.9901C35.3434 59.7157 34.332 59.1273 34.3281 57.6941C34.3243 56.2494 35.3293 54.5085 36.5869 53.783Z" fill="white"/>
<path d="M46.0464 48.3142C47.2963 47.5925 48.3103 48.1706 48.3141 49.6192C48.318 51.0549 47.3104 52.8125 46.0605 53.5342C44.7991 54.2623 43.7851 53.6713 43.7813 52.2356C43.7774 50.787 44.785 49.0423 46.0451 48.3142H46.0464Z" fill="white"/>
<path d="M62.9081 164.273C62.7888 164.273 62.6914 164.175 62.6914 164.056V142.185C62.6914 142.066 62.7888 141.969 62.9081 141.969C63.0273 141.969 63.1247 142.066 63.1247 142.185V164.056C63.1247 164.175 63.0273 164.273 62.9081 164.273Z" fill="#373B42"/>
<path d="M62.9081 89.9357C62.7888 89.9357 62.6914 89.8382 62.6914 89.719V63.7295C62.6914 63.6102 62.7888 63.5128 62.9081 63.5128C63.0273 63.5128 63.1247 63.6102 63.1247 63.7295V89.719C63.1247 89.8382 63.0273 89.9357 62.9081 89.9357Z" fill="#373B42"/>
<path d="M37.6567 166.935C39.0668 166.121 40.2154 166.765 40.2192 168.386C40.2244 169.998 39.0835 171.973 37.6721 172.787C36.2696 173.597 35.1223 172.942 35.1172 171.331C35.1121 169.709 36.253 167.744 37.6554 166.935H37.6567Z" fill="url(#paint0_linear_15_12744)"/>
<path d="M88.3831 137.647C89.7855 136.838 90.9329 137.482 90.938 139.103C90.9431 140.715 89.8022 142.69 88.3998 143.499C86.9884 144.313 85.8411 143.659 85.836 142.048C85.8308 140.426 86.9717 138.461 88.3831 137.647Z" fill="url(#paint1_linear_15_12744)"/>
<path d="M88.3826 137.864C88.2634 137.864 88.166 137.768 88.166 137.647L88.139 128.135L73.5701 119.834C73.4662 119.775 73.4303 119.643 73.4893 119.538C73.5483 119.434 73.679 119.398 73.7841 119.457L88.4621 127.821C88.5287 127.86 88.571 127.932 88.571 128.01L88.598 137.647C88.598 137.766 88.5018 137.864 88.3826 137.864Z" fill="#373B42"/>
<path d="M63.0395 161.131C64.4496 160.317 65.5982 160.97 65.602 162.582C65.6072 164.203 64.4663 166.169 63.0549 166.983C61.6525 167.793 60.5051 167.148 60.5 165.526C60.4949 163.915 61.6358 161.939 63.0382 161.131H63.0395Z" fill="url(#paint2_linear_15_12744)"/>
<path d="M52.0262 107.524C51.9903 107.524 51.9531 107.515 51.9185 107.495L37.3546 99.1962C37.288 99.1578 37.2457 99.086 37.2457 99.0078L37.2188 89.3703C37.2188 89.2511 37.3149 89.1537 37.4341 89.1537C37.5533 89.1537 37.6508 89.2498 37.6508 89.3703L37.6777 98.8821L52.1326 107.12C52.2364 107.179 52.2723 107.311 52.2133 107.415C52.1736 107.485 52.1005 107.524 52.0249 107.524H52.0262Z" fill="#373B42"/>
<path d="M37.6576 167.152C37.5384 167.152 37.441 167.056 37.441 166.935L37.4141 157.298C37.4141 157.259 37.4243 157.222 37.4423 157.189L52.5612 130.995C52.6227 130.89 52.7548 130.857 52.8573 130.916C52.9611 130.976 52.9958 131.108 52.9368 131.212L37.8474 157.354L37.8743 166.934C37.8743 167.053 37.7781 167.151 37.6589 167.151L37.6576 167.152Z" fill="#373B42"/>
<path d="M72.1182 97.7708C72.081 97.7708 72.0438 97.7618 72.0105 97.7413C71.9067 97.681 71.8721 97.549 71.931 97.4451L87.9768 69.6609L87.9486 60.0811C87.9486 59.9619 88.0447 59.8645 88.1639 59.8645C88.2831 59.8645 88.3806 59.9606 88.3806 60.0811L88.4088 69.7186C88.4088 69.757 88.3985 69.7942 88.3806 69.8275L72.3066 97.6618C72.2656 97.731 72.1938 97.7695 72.1182 97.7695V97.7708Z" fill="#373B42"/>
<path d="M62.7504 60.0401C64.1605 59.226 65.3091 59.8696 65.313 61.4912C65.3181 63.1026 64.1772 65.078 62.7658 65.892C61.3634 66.7022 60.2161 66.0471 60.211 64.4358C60.2058 62.8141 61.3467 60.849 62.7492 60.0401H62.7504Z" fill="url(#paint3_linear_15_12744)"/>
<path d="M88.597 94.9095C89.2508 94.7095 89.7174 95.1146 89.72 95.885L89.7315 100.165C89.7341 100.946 89.2713 101.877 88.6175 102.423L83.4604 106.738C82.9271 109.946 81.9362 113.241 80.5927 116.423L83.4463 119.913C83.8091 120.348 83.7257 121.246 83.245 122.078L80.6209 126.623C80.344 127.107 79.9723 127.491 79.5992 127.706C79.3365 127.859 79.0724 127.927 78.8404 127.888L74.3665 127.204C72.2808 129.962 69.9182 132.475 67.3993 134.553L66.2545 141.155C66.1186 141.985 65.5353 142.857 64.8559 143.249L61.1307 145.4C60.4602 145.787 59.8731 145.591 59.7167 144.93L58.5476 139.665C56.0248 140.507 53.6648 140.721 51.5702 140.366L47.1142 146.205C46.8758 146.514 46.6117 146.751 46.3489 146.903C45.9759 147.118 45.608 147.162 45.3247 147L42.6839 145.495C42.2006 145.22 42.1211 144.415 42.4711 143.568L45.2952 136.799C43.9376 135.177 42.9326 133.034 42.3814 130.451L37.2165 132.097C36.5628 132.306 36.0961 131.912 36.0936 131.131L36.082 126.851C36.0795 126.081 36.5423 125.14 37.196 124.585L42.3532 120.28C42.8865 117.071 43.8774 113.777 45.2208 110.595L42.3673 107.104C42.0135 106.656 42.0878 105.771 42.5685 104.939L45.1926 100.395C45.4734 99.9089 45.84 99.5321 46.2117 99.3167C46.4758 99.1642 46.7412 99.0937 46.9809 99.1244L51.4548 99.809C53.5405 97.0298 55.8941 94.5326 58.413 92.4649L59.5488 85.8681C59.7013 85.0272 60.2846 84.1555 60.9563 83.7683L64.6816 81.6173C65.361 81.225 65.9481 81.4212 66.0878 82.0929L67.2659 87.3526C69.7887 86.5206 72.1564 86.3014 74.2524 86.6462L78.7083 80.8071C78.9403 80.5046 79.2044 80.2687 79.4685 80.1162C79.8402 79.9008 80.212 79.8521 80.4889 80.0162L83.1296 81.5211C83.6129 81.7968 83.7014 82.5877 83.3424 83.4479L80.5184 90.2164C81.8759 91.8393 82.881 93.9814 83.4309 96.5644L88.5957 94.9095H88.597ZM62.9446 128.392C70.0926 124.265 75.8817 114.238 75.8586 106.038C75.8355 97.8092 70.0079 94.5031 62.86 98.6309C55.712 102.759 49.9357 112.763 49.9588 120.991C49.9819 129.19 55.7966 132.518 62.9446 128.392Z" fill="url(#paint4_linear_15_12744)"/>
<path d="M88.3831 57.1558C89.7855 56.3469 90.9329 56.9904 90.938 58.612C90.9431 60.2234 89.8022 62.1988 88.3998 63.0077C86.9884 63.8217 85.8411 63.168 85.836 61.5566C85.8308 59.935 86.9717 57.9698 88.3831 57.1558Z" fill="url(#paint5_linear_15_12744)"/>
<path d="M37.6567 86.7962C39.0668 85.9821 40.2154 86.6257 40.2192 88.2473C40.2244 89.8587 39.0835 91.8341 37.6721 92.6481C36.2696 93.4583 35.1223 92.8032 35.1172 91.1919C35.1121 89.5702 36.253 87.6051 37.6554 86.7962H37.6567Z" fill="url(#paint6_linear_15_12744)"/>
<path d="M59.2683 112.11C59.4132 112.027 59.5362 112.02 59.6337 112.096C59.7337 112.166 59.7837 112.298 59.7837 112.488C59.7837 112.782 59.6696 113.064 59.4375 113.33L54.8175 118.703L59.4529 118.732C59.6849 118.732 59.8016 118.88 59.8029 119.171C59.8029 119.364 59.7542 119.553 59.6555 119.739C59.5593 119.926 59.4363 120.062 59.2914 120.145C59.2222 120.185 59.1542 120.205 59.085 120.212L53.9445 120.153C53.6369 120.151 53.4818 119.949 53.4805 119.544V119.408C53.4792 119.003 53.6317 118.622 53.9394 118.263L59.0632 112.282C59.1312 112.21 59.2004 112.151 59.2696 112.111L59.2683 112.11Z" fill="#ED8406"/>
<path d="M65.0257 105.549C65.1796 105.461 65.3052 105.456 65.4052 105.535C65.5052 105.611 65.5526 105.747 65.5539 105.94C65.5539 105.984 65.5513 106.034 65.5424 106.089C65.536 106.144 65.5257 106.185 65.5167 106.216L62.1478 121.26C62.1132 121.417 62.0543 121.563 61.9684 121.701C61.8812 121.841 61.7748 121.949 61.6466 122.023C61.4928 122.112 61.3646 122.118 61.2672 122.037C61.1672 121.962 61.1172 121.827 61.1172 121.633C61.1172 121.59 61.121 121.539 61.1313 121.483C61.1377 121.428 61.148 121.385 61.1569 121.357L64.5258 106.312C64.5591 106.157 64.6194 106.009 64.7053 105.871C64.7899 105.733 64.8963 105.625 65.027 105.549H65.0257Z" fill="#ED8406"/>
<path d="M67.38 107.426C67.4582 107.381 67.5248 107.362 67.5863 107.359L72.7243 107.417C73.0345 107.421 73.1896 107.622 73.1909 108.027V108.163C73.1922 108.568 73.0396 108.948 72.7294 109.307L67.6081 115.289C67.5466 115.357 67.4799 115.415 67.4017 115.46C67.2646 115.539 67.1441 115.543 67.0415 115.471C66.9364 115.403 66.8864 115.271 66.8864 115.079C66.8864 114.788 66.9992 114.507 67.23 114.241L71.8526 108.867L67.2146 108.839C66.9826 108.839 66.8685 108.69 66.8672 108.396C66.8672 108.207 66.9159 108.017 67.0197 107.829C67.121 107.639 67.2415 107.504 67.3787 107.425L67.38 107.426Z" fill="#ED8406"/>
<path d="M206.609 142.786C206.571 142.786 206.534 142.777 206.501 142.757L174.566 124.238C174.177 124.013 173.945 123.61 173.945 123.16C173.945 122.71 174.177 122.309 174.566 122.083L206.501 103.565C206.602 103.505 206.735 103.539 206.796 103.643C206.856 103.747 206.821 103.879 206.717 103.939L174.782 122.458C174.53 122.605 174.379 122.867 174.379 123.16C174.379 123.454 174.529 123.717 174.782 123.863L206.717 142.381C206.821 142.442 206.856 142.574 206.796 142.677C206.756 142.747 206.683 142.785 206.609 142.785V142.786Z" fill="#DBDEE4"/>
<path d="M197.107 169.023C197.033 169.023 196.96 168.985 196.919 168.916C196.86 168.812 196.896 168.68 196.999 168.62L217.831 156.59C218.158 156.402 218.353 156.063 218.353 155.686C218.353 155.309 218.159 154.971 217.832 154.781L197.143 142.757C197.04 142.697 197.005 142.565 197.065 142.461C197.124 142.357 197.256 142.322 197.361 142.383L218.05 154.407C218.512 154.675 218.786 155.154 218.786 155.688C218.786 156.221 218.509 156.699 218.048 156.966L197.215 168.995C197.182 169.016 197.145 169.025 197.107 169.025V169.023Z" fill="#DBDEE4"/>
<path d="M213.171 214.016C213.134 214.016 213.097 214.007 213.062 213.987L160.58 183.522C160.477 183.462 160.442 183.33 160.502 183.226C160.561 183.121 160.693 183.087 160.798 183.148L213.28 213.612C213.384 213.673 213.418 213.805 213.358 213.908C213.318 213.978 213.245 214.016 213.171 214.016Z" fill="#DBDEE4"/>
<path d="M209.643 214.652C208.075 213.748 208.066 212.28 209.623 211.376C211.181 210.473 213.716 210.473 215.284 211.376C216.852 212.28 216.86 213.747 215.302 214.65C213.745 215.554 211.21 215.555 209.643 214.65V214.652Z" fill="white"/>
<path d="M212.478 215.543C211.414 215.543 210.348 215.308 209.536 214.84C208.705 214.361 208.246 213.711 208.246 213.009C208.246 212.312 208.696 211.666 209.516 211.189C211.133 210.252 213.769 210.252 215.395 211.189C216.225 211.669 216.684 212.319 216.685 213.02C216.685 213.717 216.234 214.363 215.415 214.84C214.607 215.309 213.543 215.543 212.48 215.543H212.478ZM212.451 210.914C211.465 210.914 210.482 211.13 209.734 211.565C209.054 211.961 208.678 212.472 208.679 213.009C208.679 213.549 209.061 214.067 209.754 214.466C211.257 215.334 213.701 215.334 215.195 214.466C215.877 214.07 216.252 213.557 216.252 213.021C216.252 212.481 215.87 211.965 215.179 211.566C214.426 211.131 213.438 210.915 212.452 210.915L212.451 210.914Z" fill="#DBDEE4"/>
<path d="M212.456 211.981C213.067 211.981 213.658 212.12 214.079 212.362C214.416 212.557 214.61 212.795 214.611 213.019C214.611 213.238 214.421 213.474 214.09 213.667C213.674 213.909 213.084 214.048 212.474 214.048C211.864 214.048 211.271 213.909 210.852 213.667C210.515 213.472 210.32 213.233 210.32 213.011C210.32 212.792 210.51 212.556 210.841 212.363C211.257 212.121 211.846 211.983 212.457 211.983L212.456 211.981Z" fill="#ED8406"/>
<path d="M202.279 206.216C202.935 206.216 203.571 206.364 204.022 206.625C204.385 206.834 204.593 207.09 204.593 207.328C204.593 207.564 204.389 207.818 204.034 208.024C203.587 208.285 202.953 208.433 202.298 208.433C201.642 208.433 201.007 208.285 200.556 208.024C200.193 207.815 199.986 207.558 199.984 207.319C199.984 207.083 200.188 206.83 200.543 206.623C200.991 206.363 201.623 206.214 202.279 206.214V206.216Z" fill="#373B42"/>
<path d="M210.15 159.801C209.493 159.801 208.858 159.95 208.406 160.21C208.044 160.419 207.836 160.676 207.836 160.914C207.836 161.15 208.04 161.402 208.395 161.609C208.842 161.868 209.476 162.018 210.131 162.018C210.787 162.018 211.421 161.869 211.873 161.609C212.235 161.4 212.443 161.143 212.444 160.904C212.444 160.668 212.241 160.415 211.886 160.209C211.438 159.95 210.806 159.801 210.15 159.801Z" fill="#373B42"/>
<g opacity="0.1">
<path d="M210.72 185.583C213.565 187.225 213.58 189.893 210.753 191.536L160.409 220.794C157.573 222.441 152.976 222.436 150.132 220.794L130.959 209.724C128.115 208.082 128.09 205.418 130.926 203.771L181.271 174.514C184.097 172.872 188.703 172.872 191.548 174.514L210.72 185.583Z" fill="black"/>
</g>
<path d="M213.76 175.928L213.733 184.732C213.733 185.812 213.03 186.879 211.626 187.69L161.284 216.948C158.449 218.595 153.844 218.595 151.008 216.948L131.835 205.876C130.403 205.053 129.675 203.972 129.688 202.879L129.715 194.103C129.715 195.17 130.43 196.263 131.862 197.073L151.021 208.145C153.871 209.792 158.474 209.792 161.31 208.145L211.652 178.887C213.056 178.076 213.758 176.996 213.758 175.929L213.76 175.928Z" fill="white"/>
<path d="M211.615 172.932C214.459 174.574 214.475 177.242 211.648 178.886L161.303 208.143C158.469 209.79 153.871 209.785 151.026 208.143L131.854 197.073C129.009 195.431 128.985 192.767 131.82 191.12L182.165 161.863C184.992 160.221 189.598 160.221 192.442 161.863L211.615 172.932Z" fill="#3F963B"/>
<path d="M177.215 170.196L196.814 181.585L199.359 180.116L179.761 168.726L177.215 170.196Z" fill="white"/>
<path d="M173.543 174.034C175.578 173.946 177.631 174.401 179.375 175.415C181.163 176.453 182.009 177.556 182.046 178.722C182.103 180.331 180.65 182.03 178.171 183.46C177.403 183.904 176.657 184.283 175.956 184.537L183.804 189.098L181.258 190.567L161.898 179.317C162.932 178.494 164.358 177.467 166.399 176.289C168.922 174.833 171.332 174.097 173.542 174.034H173.543ZM173.884 183.333C174.586 183.105 175.332 182.725 176.187 182.231C179.258 180.457 179.641 178.52 176.96 176.961C174.366 175.454 171.28 175.796 168.471 177.417C167.352 178.064 166.606 178.596 166.275 178.912L173.883 183.333" fill="white"/>
<path d="M152.023 184.74L178.359 192.24L175.639 193.811L167.363 191.442L160.363 195.483L164.493 200.247L161.859 201.767L148.953 186.514L152.025 184.741L152.023 184.74ZM164.851 190.593L157.296 188.439C155.57 187.946 154.108 187.451 152.689 186.957L152.623 186.996C153.494 187.832 154.363 188.719 155.19 189.632L158.905 194.027L164.851 190.594" fill="white"/>
<path d="M186.538 142.921C185.357 143.603 185.351 144.709 186.524 145.39L201.526 154.109C202.699 154.791 204.609 154.791 205.79 154.109L220.891 145.39C222.072 144.708 222.078 143.602 220.905 142.92L205.903 134.2C204.73 133.518 202.82 133.518 201.639 134.2L186.538 142.92V142.921Z" fill="white"/>
<path d="M203.657 154.834C202.845 154.834 202.036 154.656 201.419 154.298L186.417 145.578C185.782 145.209 185.432 144.705 185.434 144.161C185.434 143.612 185.789 143.106 186.431 142.735L201.532 134.015C202.773 133.299 204.783 133.301 206.012 134.015L221.014 142.735C221.649 143.104 221.999 143.608 221.998 144.153C221.998 144.702 221.643 145.208 220.999 145.578L205.898 154.298C205.279 154.656 204.466 154.834 203.656 154.834H203.657ZM203.774 133.904C203.042 133.904 202.309 134.065 201.749 134.389L186.648 143.108C186.144 143.399 185.867 143.772 185.867 144.161C185.867 144.545 186.14 144.916 186.635 145.203L201.637 153.922C202.75 154.57 204.565 154.567 205.683 153.922L220.784 145.203C221.287 144.912 221.564 144.539 221.566 144.15C221.566 143.766 221.293 143.395 220.798 143.108L205.796 134.389C205.239 134.065 204.509 133.904 203.775 133.904H203.774Z" fill="#DBDEE4"/>
<path d="M209.766 140.639C213.127 142.58 213.145 145.726 209.801 147.67C206.461 149.611 201.031 149.611 197.669 147.67C194.313 145.732 194.295 142.586 197.635 140.645C200.981 138.701 206.411 138.701 209.767 140.639H209.766Z" fill="white"/>
<path d="M203.741 149.337C201.506 149.337 199.268 148.845 197.559 147.857C195.86 146.877 194.924 145.56 194.922 144.149C194.919 142.745 195.844 141.435 197.523 140.458C200.919 138.485 206.459 138.48 209.872 140.452C211.573 141.434 212.51 142.752 212.512 144.164C212.514 145.568 211.588 146.881 209.906 147.857C208.209 148.843 205.976 149.337 203.739 149.337H203.741ZM203.702 139.402C201.542 139.402 199.383 139.879 197.743 140.833C196.203 141.727 195.355 142.905 195.356 144.148C195.358 145.397 196.218 146.582 197.777 147.482C201.072 149.384 206.418 149.385 209.691 147.482C211.234 146.584 212.083 145.406 212.082 144.163C212.08 142.912 211.219 141.727 209.657 140.825C208.014 139.876 205.857 139.401 203.702 139.401V139.402Z" fill="#373B42"/>
<path d="M198.16 126.409L198.226 143.576C198.228 144.39 198.764 145.204 199.834 145.826C201.985 147.076 205.482 147.076 207.648 145.826C208.735 145.198 209.278 144.373 209.276 143.549L209.21 126.382C209.213 127.206 208.669 128.03 207.582 128.658C205.417 129.908 201.92 129.908 199.769 128.658C198.699 128.037 198.163 127.223 198.16 126.409Z" fill="white"/>
<path d="M199.769 128.659C200.838 129.28 202.238 129.591 203.643 129.595V146.76C202.26 146.747 200.886 146.438 199.834 145.828C198.764 145.205 198.228 144.392 198.226 143.578L198.16 126.41C198.163 127.224 198.699 128.038 199.769 128.659Z" fill="#DBDEE4"/>
<path d="M203.737 146.977C202.282 146.977 200.831 146.656 199.727 146.015C198.623 145.373 198.013 144.508 198.011 143.579L197.945 126.411C197.945 126.292 198.041 126.194 198.161 126.193C198.28 126.193 198.376 126.289 198.377 126.409V126.411C198.381 127.179 198.913 127.911 199.878 128.472C201.965 129.685 205.373 129.685 207.474 128.472C208.456 127.905 208.995 127.164 208.993 126.384C208.993 126.264 209.089 126.166 209.208 126.166C209.327 126.166 209.424 126.262 209.425 126.382L209.49 143.549C209.493 144.49 208.877 145.366 207.755 146.014C206.643 146.655 205.188 146.976 203.734 146.976L203.737 146.977ZM198.384 127.726L198.444 143.576C198.447 144.345 198.98 145.078 199.945 145.64C202.032 146.853 205.439 146.853 207.54 145.64C208.522 145.072 209.062 144.331 209.06 143.552L208.999 127.699C208.704 128.126 208.263 128.517 207.692 128.847C205.47 130.13 201.869 130.13 199.661 128.847C199.104 128.522 198.673 128.143 198.382 127.726H198.384Z" fill="#373B42"/>
<path d="M199.791 124.13C197.626 125.38 197.614 127.407 199.769 128.659C201.92 129.909 205.417 129.909 207.583 128.659C209.744 127.411 209.755 125.385 207.604 124.136C205.449 122.883 201.952 122.883 199.791 124.132V124.13Z" fill="white"/>
<path d="M203.672 129.808C202.217 129.808 200.766 129.488 199.662 128.847C198.553 128.202 197.944 127.334 197.945 126.401C197.945 125.462 198.563 124.591 199.684 123.943C201.904 122.661 205.506 122.664 207.715 123.947C208.821 124.591 209.43 125.459 209.427 126.391C209.427 127.328 208.81 128.201 207.692 128.845C206.58 129.486 205.125 129.807 203.672 129.807V129.808ZM199.9 124.318C198.92 124.884 198.379 125.624 198.379 126.401C198.377 127.173 198.911 127.908 199.88 128.471C201.967 129.684 205.374 129.684 207.475 128.471C208.454 127.906 208.994 127.166 208.994 126.389C208.995 125.618 208.463 124.883 207.496 124.322C205.406 123.108 201.997 123.106 199.899 124.318H199.9Z" fill="#373B42"/>
<path d="M200.023 114.529L200.067 125.9C200.068 126.441 200.425 126.983 201.137 127.396C202.568 128.228 204.893 128.228 206.333 127.396C207.056 126.978 207.418 126.43 207.416 125.882L207.373 114.511C207.374 115.058 207.012 115.607 206.289 116.025C204.85 116.857 202.523 116.857 201.094 116.025C200.381 115.611 200.025 115.07 200.023 114.529Z" fill="white"/>
<path d="M201.095 116.025C201.799 116.434 202.721 116.64 203.646 116.647V128.016C202.735 128.003 201.831 127.801 201.137 127.397C200.425 126.983 200.07 126.442 200.067 125.901L200.023 114.529C200.025 115.071 200.381 115.612 201.094 116.025H201.095Z" fill="#DBDEE4"/>
<path d="M203.733 128.233C202.752 128.233 201.772 128.016 201.029 127.584C200.271 127.143 199.853 126.546 199.852 125.901L199.809 114.53C199.809 114.411 199.905 114.314 200.024 114.312C200.143 114.312 200.239 114.409 200.241 114.528C200.242 115.014 200.584 115.478 201.203 115.838C202.571 116.633 204.805 116.633 206.182 115.838C206.81 115.474 207.158 115.003 207.157 114.512C207.157 114.392 207.253 114.296 207.372 114.294C207.491 114.294 207.587 114.391 207.589 114.51L207.632 125.88C207.633 126.534 207.21 127.138 206.441 127.583C205.693 128.015 204.711 128.231 203.731 128.231L203.733 128.233ZM200.246 115.617L200.285 125.9C200.285 126.384 200.628 126.85 201.247 127.21C202.615 128.005 204.849 128.005 206.226 127.21C206.857 126.846 207.203 126.375 207.2 125.884L207.162 115.598C206.969 115.825 206.713 116.033 206.399 116.212C204.9 117.077 202.474 117.076 200.985 116.212C200.683 116.037 200.434 115.835 200.246 115.616V115.617Z" fill="#373B42"/>
<path d="M201.108 113.014C199.668 113.846 199.661 115.193 201.094 116.025C202.524 116.857 204.85 116.857 206.289 116.025C207.726 115.196 207.734 113.847 206.303 113.016C204.87 112.183 202.545 112.183 201.108 113.014Z" fill="#ED8406"/>
<path d="M203.69 116.861C202.71 116.861 201.73 116.644 200.987 116.212C200.226 115.77 199.809 115.171 199.809 114.523C199.809 113.871 200.233 113.269 201.002 112.825C202.501 111.96 204.927 111.964 206.416 112.828C207.174 113.269 207.592 113.869 207.591 114.516C207.591 115.167 207.167 115.769 206.4 116.212C205.652 116.644 204.67 116.861 203.69 116.861ZM201.219 113.201C200.591 113.564 200.243 114.034 200.242 114.524C200.242 115.01 200.583 115.476 201.205 115.838C202.572 116.633 204.807 116.633 206.184 115.838C206.812 115.475 207.158 115.006 207.158 114.516C207.158 114.03 206.817 113.564 206.196 113.204C204.827 112.408 202.593 112.408 201.217 113.201H201.219Z" fill="#373B42"/>
<path d="M155.761 92.9428C155.282 92.9428 154.806 92.8184 154.379 92.5723L131.045 79.0417C130.941 78.9814 130.907 78.8494 130.967 78.7456C131.026 78.6405 131.159 78.6071 131.262 78.6674L154.595 92.198C155.315 92.6146 156.205 92.6146 156.925 92.198L186.113 75.2729C186.214 75.2126 186.347 75.2472 186.407 75.3511C186.468 75.4549 186.433 75.5869 186.329 75.6472L157.141 92.5723C156.716 92.8197 156.237 92.9428 155.759 92.9428H155.761Z" fill="#DBDEE4"/>
<path d="M147.381 114.989C147.306 114.989 147.233 114.951 147.194 114.881C147.133 114.778 147.168 114.646 147.272 114.585L186.02 92.0711C186.124 92.0108 186.256 92.0454 186.316 92.1493C186.377 92.2531 186.342 92.3852 186.238 92.4454L147.49 114.96C147.455 114.98 147.418 114.989 147.381 114.989Z" fill="#DBDEE4"/>
<path d="M216.817 51.7879L216.655 108.606C216.649 110.987 214.967 111.955 212.89 110.754L159.174 79.7093C157.096 78.5082 155.427 75.6046 155.434 73.2241L155.595 16.4058L216.817 51.7879Z" fill="white"/>
<path d="M221.75 48.9191L221.588 105.737C221.588 106.917 221.167 107.758 220.492 108.142L215.57 111.014C216.236 110.628 216.655 109.788 216.655 108.609L216.818 51.7906L221.75 48.9191Z" fill="#E8E9F8"/>
<path d="M155.598 16.4059L160.529 13.537L221.751 48.9192L216.819 51.7881L155.598 16.4059Z" fill="white"/>
<path d="M216.82 52.0047C216.783 52.0047 216.746 51.9945 216.712 51.9752L155.49 16.5931C155.424 16.5546 155.383 16.4828 155.383 16.4059C155.383 16.329 155.424 16.2572 155.49 16.2175L160.422 13.3485C160.49 13.3101 160.572 13.3101 160.64 13.3485L221.862 48.7307C221.928 48.7692 221.969 48.841 221.969 48.9179C221.969 48.9948 221.928 49.0666 221.862 49.1063L216.93 51.9752C216.897 51.9945 216.858 52.0047 216.821 52.0047H216.82ZM156.03 16.4059L216.82 51.5381L221.319 48.9204L160.53 13.7882L156.03 16.4059Z" fill="#212121"/>
<path d="M213.108 34.6732C215.186 35.8744 216.855 38.7689 216.849 41.1584L216.819 51.7868L155.598 16.4046L155.627 5.77627C155.634 3.38678 157.314 2.42791 159.392 3.62906L213.108 34.6732Z" fill="#212121"/>
<path d="M216.82 52.0047C216.783 52.0047 216.746 51.9944 216.712 51.9752L155.49 16.593C155.424 16.5545 155.383 16.4828 155.383 16.4046L155.412 5.77619C155.416 4.54299 155.846 3.61873 156.621 3.17262C157.402 2.72267 158.424 2.81753 159.502 3.44182L213.218 34.486C215.347 35.7166 217.074 38.7099 217.067 41.1596L217.037 51.788C217.037 51.8649 216.996 51.9367 216.929 51.9752C216.896 51.9944 216.858 52.0034 216.821 52.0034L216.82 52.0047ZM155.815 16.2815L216.603 51.4137L216.633 41.1596C216.639 38.8484 215.009 36.023 213 34.8616L159.285 3.81614C158.348 3.27517 157.477 3.17903 156.837 3.54694C156.201 3.91357 155.848 4.70579 155.846 5.77619L155.816 16.2802L155.815 16.2815Z" fill="#212121"/>
<path d="M221.788 38.2959L221.753 48.9191L216.82 51.7906L216.855 41.1558C216.855 38.774 215.187 35.8794 213.112 34.677L159.393 3.63413C158.355 3.02651 157.398 2.96882 156.723 3.36493L161.655 0.493439C162.332 0.0960453 163.277 0.155013 164.326 0.76136L218.043 31.803C220.119 33.0054 221.786 35.9 221.786 38.2933L221.788 38.2959Z" fill="#E8E9F8"/>
<path d="M213.109 34.6732L218.041 31.8043C220.119 33.0055 221.788 35.9 221.782 38.2895L216.85 41.1585C216.856 38.769 215.187 35.8731 213.109 34.6732Z" fill="#F0F2F5"/>
<path d="M161.531 10.4719C162.637 11.1116 163.538 12.6589 163.535 13.9382C163.531 15.2112 162.624 15.7214 161.518 15.0817C160.412 14.442 159.524 12.8948 159.527 11.6231C159.531 10.3437 160.425 9.83354 161.531 10.4732V10.4719Z" fill="white"/>
<path d="M167.808 14.0984C168.915 14.7381 169.816 16.2853 169.812 17.5647C169.808 18.8376 168.902 19.3478 167.796 18.7082C166.689 18.0685 165.801 16.5212 165.805 15.2496C165.809 13.9702 166.702 13.46 167.808 14.0997V14.0984Z" fill="white"/>
<path d="M174.088 17.7289C175.201 18.3724 176.089 19.912 176.085 21.1914C176.082 22.4643 175.188 22.9809 174.075 22.3387C172.969 21.699 172.074 20.1492 172.078 18.8762C172.082 17.5969 172.982 17.0905 174.088 17.7289Z" fill="white"/>
<path d="M167.264 30.475C167.227 30.475 167.19 30.466 167.157 30.4455L159.159 25.8242C159.055 25.764 159.02 25.6319 159.079 25.5281C159.14 25.423 159.274 25.3883 159.376 25.4486L167.373 30.0699C167.477 30.1302 167.512 30.2622 167.453 30.366C167.412 30.4353 167.34 30.4737 167.264 30.4737V30.475Z" fill="#212121"/>
<path d="M178.357 36.8846C178.32 36.8846 178.282 36.8756 178.249 36.8551L169.991 32.0825C169.887 32.0223 169.853 31.8902 169.911 31.7864C169.972 31.6813 170.106 31.6467 170.208 31.7069L178.466 36.4795C178.57 36.5397 178.604 36.6718 178.545 36.7756C178.504 36.8448 178.432 36.8833 178.357 36.8833V36.8846Z" fill="#ED8406"/>
<path d="M199.549 49.1358C199.512 49.1358 199.475 49.1268 199.441 49.1063L182.307 39.2035C182.204 39.1432 182.169 39.0112 182.228 38.9074C182.288 38.8022 182.421 38.7676 182.524 38.8279L199.658 48.7307C199.762 48.7909 199.797 48.923 199.738 49.0268C199.697 49.096 199.625 49.1345 199.549 49.1345V49.1358Z" fill="#212121"/>
<path d="M212.986 56.8978C212.949 56.8978 212.911 56.8888 212.878 56.8683L203.55 51.4765C203.446 51.4163 203.411 51.2843 203.47 51.1804C203.53 51.0753 203.664 51.0407 203.766 51.1009L213.095 56.4927C213.199 56.5529 213.233 56.685 213.174 56.7888C213.133 56.858 213.061 56.8965 212.986 56.8965V56.8978Z" fill="#ED8406"/>
<path d="M167.268 36.7346C167.231 36.7346 167.194 36.7257 167.161 36.7052L159.163 32.0838C159.059 32.0236 159.024 31.8916 159.083 31.7877C159.144 31.6826 159.278 31.648 159.379 31.7082L167.377 36.3296C167.481 36.3898 167.516 36.5218 167.457 36.6257C167.416 36.6949 167.344 36.7334 167.268 36.7334V36.7346Z" fill="#ED8406"/>
<path d="M181.792 45.1274C181.755 45.1274 181.718 45.1185 181.685 45.098L169.995 38.3423C169.891 38.282 169.856 38.15 169.915 38.0461C169.976 37.941 170.11 37.9064 170.212 37.9667L181.901 44.7224C182.005 44.7826 182.04 44.9147 181.981 45.0185C181.94 45.0877 181.868 45.1262 181.792 45.1262V45.1274Z" fill="#212121"/>
<path d="M203.658 57.7657C203.62 57.7657 203.583 57.7567 203.55 57.7362L185.608 47.3681C185.504 47.3078 185.47 47.1758 185.529 47.0719C185.59 46.9668 185.722 46.9335 185.825 46.9925L203.767 57.3606C203.87 57.4208 203.905 57.5529 203.846 57.6567C203.805 57.7259 203.733 57.7644 203.658 57.7644V57.7657Z" fill="#ED8406"/>
<path d="M212.984 63.1575C212.947 63.1575 212.909 63.1486 212.876 63.1281L206.479 59.431C206.375 59.3708 206.341 59.2387 206.4 59.1349C206.46 59.0298 206.593 58.9952 206.696 59.0554L213.093 62.7525C213.197 62.8127 213.231 62.9447 213.172 63.0486C213.131 63.1178 213.059 63.1563 212.984 63.1563V63.1575Z" fill="#212121"/>
<path d="M167.264 42.9929C167.227 42.9929 167.19 42.984 167.157 42.9635L159.159 38.3421C159.055 38.2819 159.02 38.1499 159.079 38.046C159.14 37.9409 159.274 37.9063 159.376 37.9665L167.373 42.5879C167.477 42.6481 167.512 42.7801 167.453 42.884C167.412 42.9532 167.34 42.9917 167.264 42.9917V42.9929Z" fill="#212121"/>
<path d="M176.862 48.5386C176.825 48.5386 176.788 48.5296 176.754 48.5091L169.991 44.6006C169.887 44.5403 169.853 44.4083 169.911 44.3044C169.972 44.1993 170.106 44.1647 170.208 44.225L176.971 48.1335C177.075 48.1938 177.109 48.3258 177.05 48.4296C177.009 48.4989 176.938 48.5373 176.862 48.5373V48.5386Z" fill="#ED8406"/>
<path d="M195.178 59.1248C195.141 59.1248 195.103 59.1158 195.07 59.0953L181.889 51.4781C181.786 51.4179 181.751 51.2858 181.81 51.182C181.87 51.0769 182.003 51.0423 182.106 51.1025L195.287 58.7197C195.391 58.7799 195.425 58.912 195.366 59.0158C195.325 59.085 195.253 59.1235 195.178 59.1235V59.1248Z" fill="#212121"/>
<path d="M212.983 69.4158C212.946 69.4158 212.909 69.4068 212.875 69.3863L199.647 61.7409C199.543 61.6807 199.509 61.5487 199.568 61.4448C199.629 61.3397 199.761 61.3051 199.864 61.3653L213.092 69.0107C213.196 69.0709 213.23 69.203 213.171 69.3068C213.13 69.376 213.059 69.4145 212.983 69.4145V69.4158Z" fill="#ED8406"/>
<path d="M167.268 49.2526C167.231 49.2526 167.194 49.2436 167.161 49.2231L159.163 44.6018C159.059 44.5415 159.024 44.4095 159.083 44.3057C159.144 44.2006 159.278 44.1659 159.379 44.2262L167.377 48.8475C167.481 48.9077 167.516 49.0398 167.457 49.1436C167.416 49.2128 167.344 49.2513 167.268 49.2513V49.2526Z" fill="#ED8406"/>
<path d="M180.499 56.8979C180.462 56.8979 180.425 56.8889 180.391 56.8684L169.995 50.8601C169.891 50.7998 169.856 50.6678 169.915 50.564C169.976 50.4588 170.11 50.4242 170.212 50.4845L180.608 56.4928C180.712 56.5531 180.746 56.6851 180.687 56.7889C180.646 56.8582 180.575 56.8966 180.499 56.8966V56.8979Z" fill="#212121"/>
<path d="M199.655 67.9711C199.618 67.9711 199.581 67.9622 199.548 67.9417L185.608 59.8861C185.504 59.8258 185.47 59.6938 185.529 59.59C185.59 59.4849 185.722 59.4502 185.825 59.5105L199.764 67.5661C199.868 67.6263 199.903 67.7583 199.844 67.8622C199.803 67.9314 199.731 67.9699 199.655 67.9699V67.9711Z" fill="#ED8406"/>
<path d="M212.985 75.6754C212.947 75.6754 212.91 75.6664 212.877 75.6459L204.136 70.5939C204.032 70.5336 203.997 70.4016 204.056 70.2978C204.118 70.1927 204.25 70.1593 204.352 70.2183L213.094 75.2703C213.197 75.3306 213.232 75.4626 213.173 75.5664C213.132 75.6357 213.06 75.6741 212.985 75.6741V75.6754Z" fill="#212121"/>
<path d="M167.264 55.5108C167.227 55.5108 167.19 55.5018 167.157 55.4813L159.159 50.86C159.055 50.7997 159.02 50.6677 159.079 50.5638C159.14 50.4587 159.274 50.4241 159.376 50.4844L167.373 55.1057C167.477 55.1659 167.512 55.298 167.453 55.4018C167.412 55.471 167.34 55.5095 167.264 55.5095V55.5108Z" fill="#212121"/>
<path d="M180.603 63.2189C180.566 63.2189 180.528 63.2099 180.495 63.1894L169.991 57.1183C169.887 57.058 169.853 56.926 169.911 56.8221C169.972 56.717 170.106 56.6824 170.208 56.7427L180.712 62.8138C180.815 62.8741 180.85 63.0061 180.791 63.1099C180.75 63.1792 180.678 63.2176 180.603 63.2176V63.2189Z" fill="#ED8406"/>
<path d="M203.659 76.5419C203.622 76.5419 203.585 76.5329 203.552 76.5124L184.823 65.6892C184.719 65.6289 184.685 65.4969 184.744 65.393C184.804 65.2892 184.937 65.2533 185.04 65.3136L203.768 76.1368C203.872 76.197 203.907 76.3291 203.848 76.4329C203.807 76.5021 203.735 76.5406 203.659 76.5406V76.5419Z" fill="#212121"/>
<path d="M212.986 81.9337C212.949 81.9337 212.912 81.9247 212.879 81.9042L206.983 78.4968C206.879 78.4366 206.845 78.3046 206.904 78.2007C206.964 78.0956 207.099 78.0623 207.2 78.1212L213.095 81.5286C213.199 81.5888 213.234 81.7209 213.175 81.8247C213.134 81.8939 213.062 81.9324 212.986 81.9324V81.9337Z" fill="#ED8406"/>
<path d="M167.268 61.7704C167.231 61.7704 167.194 61.7614 167.161 61.7409L159.163 57.1196C159.059 57.0594 159.024 56.9273 159.083 56.8235C159.144 56.7184 159.278 56.6838 159.379 56.744L167.377 61.3653C167.481 61.4256 167.516 61.5576 167.457 61.6614C167.416 61.7307 167.344 61.7691 167.268 61.7691V61.7704Z" fill="#ED8406"/>
<path d="M174.101 65.7187C174.064 65.7187 174.027 65.7097 173.993 65.6892L169.995 63.3779C169.891 63.3176 169.856 63.1856 169.915 63.0818C169.976 62.9779 170.11 62.942 170.212 63.0023L174.21 65.3136C174.314 65.3738 174.348 65.5059 174.289 65.6097C174.248 65.6789 174.176 65.7174 174.101 65.7174V65.7187Z" fill="#212121"/>
<path d="M194.01 77.224C193.973 77.224 193.936 77.2151 193.903 77.1946L178.514 68.3019C178.411 68.2417 178.376 68.1096 178.435 68.0058C178.495 67.9007 178.628 67.8673 178.731 67.9263L194.119 76.819C194.223 76.8792 194.258 77.0112 194.199 77.1151C194.158 77.1843 194.086 77.2228 194.01 77.2228V77.224Z" fill="#ED8406"/>
<path d="M212.985 88.1933C212.947 88.1933 212.91 88.1844 212.877 88.1639L198.428 79.8135C198.325 79.7532 198.29 79.6212 198.349 79.5173C198.409 79.4122 198.543 79.3776 198.645 79.4379L213.094 87.7883C213.197 87.8485 213.232 87.9805 213.173 88.0844C213.132 88.1536 213.06 88.1921 212.985 88.1921V88.1933Z" fill="#212121"/>
<path d="M167.264 68.03C167.227 68.03 167.19 68.021 167.157 68.0005L159.159 63.3792C159.055 63.319 159.02 63.1869 159.079 63.0831C159.14 62.9793 159.274 62.9434 159.376 63.0036L167.373 67.6249C167.477 67.6852 167.512 67.8172 167.453 67.921C167.412 67.9903 167.34 68.0287 167.264 68.0287V68.03Z" fill="#212121"/>
<path d="M180.027 75.4061C179.99 75.4061 179.953 75.3972 179.919 75.3767L169.987 69.6375C169.883 69.5773 169.849 69.4452 169.908 69.3414C169.968 69.2376 170.102 69.2017 170.204 69.2619L180.136 75.0011C180.24 75.0613 180.274 75.1933 180.215 75.2972C180.174 75.3664 180.103 75.4049 180.027 75.4049V75.4061Z" fill="#ED8406"/>
<path d="M203.909 89.2088C203.872 89.2088 203.835 89.1998 203.801 89.1793L184.389 77.9612C184.286 77.901 184.251 77.769 184.31 77.6651C184.371 77.5613 184.503 77.5254 184.606 77.5856L204.018 88.8037C204.122 88.8639 204.157 88.996 204.098 89.0998C204.057 89.169 203.985 89.2075 203.909 89.2075V89.2088Z" fill="#212121"/>
<path d="M212.986 94.4517C212.949 94.4517 212.911 94.4427 212.878 94.4222L207.608 91.3764C207.504 91.3161 207.47 91.1841 207.529 91.0802C207.589 90.9751 207.722 90.9418 207.825 91.0008L213.095 94.0466C213.199 94.1068 213.233 94.2389 213.174 94.3427C213.133 94.4119 213.061 94.4504 212.986 94.4504V94.4517Z" fill="#ED8406"/>
<path d="M167.268 74.2884C167.231 74.2884 167.194 74.2795 167.161 74.2589L159.163 69.6376C159.059 69.5774 159.024 69.4454 159.083 69.3415C159.144 69.2377 159.278 69.2018 159.379 69.262L167.377 73.8833C167.481 73.9436 167.516 74.0756 167.457 74.1795C167.416 74.2487 167.344 74.2872 167.268 74.2872V74.2884Z" fill="#ED8406"/>
<path d="M183.15 83.4668C183.113 83.4668 183.076 83.4578 183.042 83.4373L169.995 75.897C169.891 75.8368 169.856 75.7048 169.915 75.6009C169.976 75.4971 170.11 75.4612 170.212 75.5214L183.259 83.0617C183.363 83.1219 183.397 83.254 183.338 83.3578C183.297 83.427 183.226 83.4655 183.15 83.4655V83.4668Z" fill="#212121"/>
<path d="M196.664 91.2776C196.626 91.2776 196.589 91.2686 196.556 91.2481L186.862 85.6461C186.758 85.5859 186.724 85.4538 186.783 85.35C186.844 85.2461 186.976 85.2115 187.079 85.2705L196.773 90.8725C196.876 90.9327 196.911 91.0648 196.852 91.1686C196.811 91.2378 196.739 91.2763 196.664 91.2763V91.2776Z" fill="#ED8406"/>
<path d="M212.982 100.711C212.944 100.711 212.907 100.702 212.874 100.682L199.889 93.1774C199.786 93.1172 199.751 92.9851 199.81 92.8813C199.871 92.7775 200.004 92.7416 200.106 92.8018L213.091 100.306C213.194 100.366 213.229 100.498 213.17 100.602C213.129 100.672 213.057 100.71 212.982 100.71V100.711Z" fill="#212121"/>
<path d="M149.574 116.246C151.141 115.342 151.15 113.874 149.594 112.97C148.037 112.067 145.504 112.067 143.938 112.97C142.371 113.874 142.364 115.341 143.92 116.246C145.476 117.149 148.008 117.151 149.574 116.246Z" fill="white"/>
<path d="M146.745 117.137C145.681 117.137 144.62 116.902 143.812 116.434C142.992 115.957 142.542 115.311 142.543 114.614C142.543 113.913 143.002 113.263 143.83 112.784C145.454 111.846 148.089 111.846 149.704 112.784C150.523 113.261 150.974 113.906 150.973 114.603C150.972 115.305 150.514 115.956 149.683 116.434C148.872 116.903 147.808 117.137 146.745 117.137ZM146.771 112.508C145.785 112.508 144.799 112.724 144.047 113.159C143.356 113.557 142.976 114.074 142.975 114.615C142.975 115.151 143.348 115.664 144.029 116.06C145.523 116.928 147.962 116.928 149.465 116.06C150.156 115.661 150.537 115.144 150.538 114.603C150.538 114.068 150.164 113.555 149.485 113.159C148.738 112.724 147.754 112.508 146.771 112.508Z" fill="#DBDEE4"/>
<path d="M146.77 113.575C146.159 113.575 145.568 113.714 145.148 113.957C144.811 114.152 144.617 114.391 144.617 114.614C144.617 114.833 144.807 115.07 145.138 115.262C145.554 115.505 146.143 115.643 146.753 115.643C147.363 115.643 147.954 115.505 148.373 115.262C148.71 115.068 148.904 114.828 148.905 114.606C148.905 114.387 148.715 114.151 148.385 113.959C147.968 113.716 147.38 113.578 146.771 113.578L146.77 113.575Z" fill="#ED8406"/>
<path d="M158.507 107.085C157.85 107.085 157.216 107.234 156.766 107.495C156.404 107.704 156.195 107.961 156.195 108.199C156.195 108.435 156.399 108.689 156.754 108.895C157.202 109.155 157.834 109.304 158.489 109.304C159.144 109.304 159.778 109.155 160.228 108.895C160.591 108.686 160.799 108.429 160.799 108.19C160.799 107.954 160.595 107.7 160.24 107.494C159.792 107.234 159.162 107.085 158.507 107.085Z" fill="#373B42"/>
<path d="M187.964 113.663C187.307 113.663 186.673 113.811 186.223 114.073C185.861 114.282 185.652 114.538 185.652 114.777C185.652 115.012 185.856 115.266 186.211 115.473C186.659 115.733 187.291 115.882 187.946 115.882C188.601 115.882 189.235 115.733 189.685 115.473C190.048 115.264 190.256 115.006 190.256 114.768C190.256 114.532 190.052 114.278 189.697 114.072C189.249 113.811 188.619 113.663 187.964 113.663Z" fill="#373B42"/>
<path d="M136.231 78.451C137.797 79.3547 137.806 80.8225 136.25 81.7263C134.694 82.63 132.161 82.63 130.594 81.7263C129.028 80.8225 129.02 79.356 130.576 78.451C132.132 77.5472 134.664 77.546 136.231 78.451Z" fill="white"/>
<path d="M133.427 82.6185C132.363 82.6185 131.299 82.3839 130.488 81.9147C129.658 81.4353 129.199 80.7854 129.199 80.0842C129.199 79.3868 129.648 78.7407 130.468 78.2638C132.085 77.3268 134.717 77.3255 136.339 78.2638C137.169 78.7433 137.628 79.3932 137.629 80.0944C137.629 80.7918 137.179 81.4379 136.36 81.9147C135.552 82.3839 134.491 82.6185 133.427 82.6185ZM133.401 77.9882C132.417 77.9882 131.434 78.2049 130.686 78.6394C130.006 79.0356 129.631 79.547 129.633 80.0842C129.633 80.6238 130.015 81.1417 130.704 81.5404C132.208 82.4096 134.65 82.4096 136.142 81.5404C136.823 81.1456 137.197 80.6328 137.196 80.0957C137.196 79.5547 136.814 79.0381 136.123 78.6394C135.372 78.2049 134.386 77.9882 133.401 77.9882Z" fill="#DBDEE4"/>
<path d="M133.422 81.1225C132.812 81.1225 132.221 80.9841 131.8 80.7405C131.463 80.5457 131.27 80.3072 131.27 80.0842C131.27 79.865 131.459 79.6278 131.79 79.4355C132.207 79.1933 132.795 79.0548 133.405 79.0548C134.015 79.0548 134.606 79.1933 135.026 79.4355C135.363 79.6304 135.556 79.8701 135.558 80.0919C135.558 80.3111 135.368 80.5482 135.037 80.7392C134.62 80.9815 134.032 81.12 133.423 81.12L133.422 81.1225Z" fill="#ED8406"/>
<path d="M144.909 87.8615C144.253 87.8615 143.618 87.7128 143.168 87.4512C142.807 87.2423 142.598 86.9859 142.598 86.7475C142.598 86.5116 142.801 86.2578 143.157 86.0514C143.604 85.7912 144.236 85.6425 144.891 85.6425C145.546 85.6425 146.181 85.7912 146.631 86.0514C146.993 86.2603 147.201 86.518 147.201 86.7564C147.201 86.9923 146.997 87.2461 146.642 87.4525C146.195 87.7128 145.564 87.8615 144.909 87.8615Z" fill="#373B42"/>
<path d="M207.33 105.043V114.223C207.31 114.747 206.955 115.262 206.271 115.666C204.838 116.49 202.533 116.49 201.108 115.666C200.425 115.264 200.078 114.748 200.059 114.223V105.043H207.328H207.33Z" fill="url(#paint7_linear_15_12744)"/>
<defs>
<linearGradient id="paint0_linear_15_12744" x1="37.6682" y1="166.583" x2="37.6682" y2="173.135" gradientUnits="userSpaceOnUse">
<stop stop-color="#E30613"/>
<stop offset="1" stop-color="#95060F"/>
</linearGradient>
<linearGradient id="paint1_linear_15_12744" x1="88.387" y1="137.298" x2="88.387" y2="143.85" gradientUnits="userSpaceOnUse">
<stop stop-color="#E30613"/>
<stop offset="1" stop-color="#95060F"/>
</linearGradient>
<linearGradient id="paint2_linear_15_12744" x1="63.051" y1="160.78" x2="63.051" y2="167.332" gradientUnits="userSpaceOnUse">
<stop stop-color="#E30613"/>
<stop offset="1" stop-color="#95060F"/>
</linearGradient>
<linearGradient id="paint3_linear_15_12744" x1="62.762" y1="59.6879" x2="62.762" y2="66.2396" gradientUnits="userSpaceOnUse">
<stop stop-color="#E30613"/>
<stop offset="1" stop-color="#95060F"/>
</linearGradient>
<linearGradient id="paint4_linear_15_12744" x1="62.9068" y1="79.9185" x2="62.9068" y2="147.098" gradientUnits="userSpaceOnUse">
<stop stop-color="#E30613"/>
<stop offset="1" stop-color="#95060F"/>
</linearGradient>
<linearGradient id="paint5_linear_15_12744" x1="88.387" y1="56.8069" x2="88.387" y2="63.358" gradientUnits="userSpaceOnUse">
<stop stop-color="#E30613"/>
<stop offset="1" stop-color="#95060F"/>
</linearGradient>
<linearGradient id="paint6_linear_15_12744" x1="37.6682" y1="86.444" x2="37.6682" y2="92.9957" gradientUnits="userSpaceOnUse">
<stop stop-color="#E30613"/>
<stop offset="1" stop-color="#95060F"/>
</linearGradient>
<linearGradient id="paint7_linear_15_12744" x1="203.695" y1="116.71" x2="203.695" y2="105.56" gradientUnits="userSpaceOnUse">
<stop stop-color="#1FB6FF"/>
<stop offset="1" stop-color="white"/>
</linearGradient>
</defs>
</svg>
