<svg width="81" height="232" viewBox="0 0 81 232" fill="none" xmlns="http://www.w3.org/2000/svg">
<path opacity="0.5" fill-rule="evenodd" clip-rule="evenodd" d="M66.3905 73.239H84.9088L94.168 57.2048L84.9088 40.9448H66.3905L57.1313 57.2048L66.3905 73.239ZM84.683 72.7873H66.6163L57.583 56.979L66.6163 41.1707H84.683L93.7163 56.979L84.683 72.7873Z" fill="#A7A9AC"/>
<path opacity="0.5" fill-rule="evenodd" clip-rule="evenodd" d="M10.8365 73.239H29.5807L38.8398 57.2048L29.5807 40.9448H10.8365L1.57734 57.2048L10.8365 73.239ZM29.3548 72.7873H11.0624L2.02902 56.979L11.0624 41.1707H29.3548L38.3882 56.979L29.3548 72.7873Z" fill="#A7A9AC"/>
<path opacity="0.3" fill-rule="evenodd" clip-rule="evenodd" d="M38.6092 57.2051H57.1276L66.3867 41.1709L57.1276 24.9109H38.6092L29.35 41.1709L38.6092 57.2051ZM56.9017 56.7534H38.835L29.8017 40.9451L38.835 25.1367H56.9017L66.1609 40.9451L56.9017 56.7534Z" fill="#A7A9AC"/>
<path opacity="0.7" fill-rule="evenodd" clip-rule="evenodd" d="M66.3905 41.3967H84.9088L94.168 25.1367L84.9088 8.87671H66.3905L57.1313 25.1367L66.3905 41.3967ZM84.683 40.945H66.6163L57.583 25.1367L66.6163 9.32837H84.683L93.7163 25.1367L84.683 40.945Z" fill="#A7A9AC"/>
<path opacity="0.4" fill-rule="evenodd" clip-rule="evenodd" d="M38.6092 25.3625H57.1276L66.3867 9.10252L57.1276 -6.93164H38.6092L29.35 9.10252L38.6092 25.3625ZM56.9017 25.1367H38.835L29.8017 9.32836L38.835 -6.47997H56.9017L66.1609 9.32836L56.9017 25.1367Z" fill="#A7A9AC"/>
<path opacity="0.9" fill-rule="evenodd" clip-rule="evenodd" d="M66.3905 9.32859H84.9088L94.168 -6.93141L84.9088 -22.9656H66.3905L57.1313 -6.93141L66.3905 9.32859ZM84.683 9.10276H66.6163L57.583 -6.70557L66.6163 -22.5139H84.683L93.7163 -6.70557L84.683 9.10276Z" fill="#A7A9AC"/>
<path opacity="0.3" fill-rule="evenodd" clip-rule="evenodd" d="M10.8365 9.32859H29.5807L38.8398 -6.93141L29.5807 -22.9656H10.8365L1.57734 -6.93141L10.8365 9.32859ZM29.3548 9.10276H11.0624L2.02902 -6.70557L11.0624 -22.5139H29.3548L38.3882 -6.70557L29.3548 9.10276Z" fill="#A7A9AC"/>
<path opacity="0.8" d="M65.0354 232C65.3365 231.699 65.7881 231.473 66.3904 231.322C66.842 231.473 67.2184 231.699 67.5195 232H65.0354Z" fill="#A7A9AC"/>
<path opacity="0.2" d="M55.332 217.095C55.332 217.999 56.2353 218.902 57.1387 218.902C58.042 218.902 58.9453 217.999 58.9453 217.095C58.9453 215.966 58.042 215.289 57.1387 215.289C56.2353 215.289 55.332 215.966 55.332 217.095Z" fill="#A7A9AC"/>
<path opacity="0.6" d="M27.9978 137.15C27.9978 137.828 28.6753 138.505 29.3528 138.505C30.2561 138.505 30.9336 137.828 30.9336 137.15C30.9336 136.247 30.2561 135.569 29.3528 135.569C28.6753 135.569 27.9978 136.247 27.9978 137.15Z" fill="#A7A9AC"/>
<path opacity="0.7" d="M55.5507 89.0474C55.5507 90.1766 56.2282 90.8541 57.3574 90.8541C58.2607 90.8541 59.1641 90.1766 59.1641 89.0474C59.1641 88.1441 58.2607 87.2407 57.3574 87.2407C56.2282 87.2407 55.5507 88.1441 55.5507 89.0474Z" fill="#A7A9AC"/>
<path opacity="0.4" d="M27.3217 105.081C27.3217 106.21 28.225 107.114 29.3542 107.114C30.4834 107.114 31.3867 106.21 31.3867 105.081C31.3867 103.952 30.4834 103.049 29.3542 103.049C28.225 103.049 27.3217 103.952 27.3217 105.081Z" fill="#A7A9AC"/>
<path opacity="0.9" d="M55.5532 89.0474C55.5532 89.9507 56.2307 90.6282 57.134 90.6282C58.0374 90.6282 58.7148 89.9507 58.7148 89.0474C58.7148 88.1441 58.0374 87.4666 57.134 87.4666C56.2307 87.4666 55.5532 88.1441 55.5532 89.0474Z" fill="#A7A9AC"/>
<path opacity="0.4" d="M9.03511 73.0135C9.03511 74.1426 9.93845 74.8201 10.8418 74.8201C11.7451 74.8201 12.6484 74.1426 12.6484 73.0135C12.6484 72.1101 11.7451 71.2068 10.8418 71.2068C9.93845 71.2068 9.03511 72.1101 9.03511 73.0135Z" fill="#A7A9AC"/>
<path opacity="0.6" d="M65.2619 73.0134C65.2619 73.9168 65.7136 74.3684 66.3911 74.3684C67.2944 74.3684 67.7461 73.9168 67.7461 73.0134C67.7461 72.3359 67.2944 71.6584 66.3911 71.6584C65.7136 71.6584 65.2619 72.3359 65.2619 73.0134Z" fill="#A7A9AC"/>
<path opacity="0.8" d="M64.8117 9.10256C64.8117 10.2317 65.4892 10.9092 66.3926 10.9092C67.5217 10.9092 68.1992 10.2317 68.1992 9.10256C68.1992 8.19923 67.5217 7.2959 66.3926 7.2959C65.4892 7.2959 64.8117 8.19923 64.8117 9.10256Z" fill="#A7A9AC"/>
<path opacity="0.4" d="M27.5507 41.1707C27.5507 42.074 28.4541 42.9773 29.3574 42.9773C30.4866 42.9773 31.1641 42.074 31.1641 41.1707C31.1641 40.0415 30.4866 39.364 29.3574 39.364C28.4541 39.364 27.5507 40.0415 27.5507 41.1707Z" fill="#A7A9AC"/>
<path opacity="0.5" d="M27.5507 9.10256C27.5507 10.2317 28.4541 10.9092 29.3574 10.9092C30.4866 10.9092 31.1641 10.2317 31.1641 9.10256C31.1641 8.19923 30.4866 7.2959 29.3574 7.2959C28.4541 7.2959 27.5507 8.19923 27.5507 9.10256Z" fill="#A7A9AC"/>
</svg>
