<svg width="82" height="111" viewBox="0 0 82 111" fill="none" xmlns="http://www.w3.org/2000/svg">
<g opacity="0.5">
<path opacity="0.5" fill-rule="evenodd" clip-rule="evenodd" d="M14.8908 112.239H-3.62755L-12.8867 96.2048L-3.62755 79.9448H14.8908L24.1499 96.2048L14.8908 112.239ZM-3.40172 111.787H14.665L23.6983 95.979L14.665 80.1707H-3.40172L-12.4351 95.979L-3.40172 111.787Z" fill="#A7A9AC"/>
<path opacity="0.5" fill-rule="evenodd" clip-rule="evenodd" d="M70.4447 112.239H51.7006L42.4414 96.2048L51.7006 79.9448H70.4447L79.7039 96.2048L70.4447 112.239ZM51.9264 111.787H70.2189L79.2522 95.979L70.2189 80.1707H51.9264L42.8931 95.979L51.9264 111.787Z" fill="#A7A9AC"/>
<path opacity="0.3" fill-rule="evenodd" clip-rule="evenodd" d="M42.672 96.2051H24.1537L14.8945 80.1709L24.1537 63.9109H42.672L51.9312 80.1709L42.672 96.2051ZM24.3795 95.7534H42.4462L51.4795 79.9451L42.4462 64.1367H24.3795L15.1204 79.9451L24.3795 95.7534Z" fill="#A7A9AC"/>
<path opacity="0.7" fill-rule="evenodd" clip-rule="evenodd" d="M14.8908 80.3967H-3.62755L-12.8867 64.1367L-3.62755 47.8767H14.8908L24.1499 64.1367L14.8908 80.3967ZM-3.40172 79.945H14.665L23.6983 64.1367L14.665 48.3284H-3.40172L-12.4351 64.1367L-3.40172 79.945Z" fill="#A7A9AC"/>
<path opacity="0.4" fill-rule="evenodd" clip-rule="evenodd" d="M42.672 64.3625H24.1537L14.8945 48.1025L24.1537 32.0684H42.672L51.9312 48.1025L42.672 64.3625ZM24.3795 64.1367H42.4462L51.4795 48.3284L42.4462 32.52H24.3795L15.1204 48.3284L24.3795 64.1367Z" fill="#A7A9AC"/>
<path opacity="0.9" fill-rule="evenodd" clip-rule="evenodd" d="M14.8908 48.3286H-3.62755L-12.8867 32.0686L-3.62755 16.0344H14.8908L24.1499 32.0686L14.8908 48.3286ZM-3.40172 48.1028H14.665L23.6983 32.2944L14.665 16.4861H-3.40172L-12.4351 32.2944L-3.40172 48.1028Z" fill="#A7A9AC"/>
<path opacity="0.3" fill-rule="evenodd" clip-rule="evenodd" d="M70.4447 48.3286H51.7006L42.4414 32.0686L51.7006 16.0344H70.4447L79.7039 32.0686L70.4447 48.3286ZM51.9264 48.1028H70.2189L79.2522 32.2944L70.2189 16.4861H51.9264L42.8931 32.2944L51.9264 48.1028Z" fill="#A7A9AC"/>
<path opacity="0.6" fill-rule="evenodd" clip-rule="evenodd" d="M42.672 32.2942H24.1537L14.8945 16.26L24.1537 0H42.672L51.9312 16.26L42.672 32.2942ZM24.3795 31.8425H42.4462L51.4795 16.0342L42.4462 0.225833H24.3795L15.1204 16.0342L24.3795 31.8425Z" fill="#A7A9AC"/>
<path opacity="0.5" d="M23.6983 0V0.225833L14.665 16.0342H-3.40172L-12.4351 0.225833V0H-12.8867V0.225833L-3.62755 16.26H14.8908L24.1499 0.225833V0L23.6983 0Z" fill="#A7A9AC"/>
<path opacity="0.6" d="M79.0264 0L79.2522 0.225833L70.2189 16.0342H51.9264L42.8931 0.225833L43.1189 0H42.6672L42.4414 0.225833L51.7006 16.26H70.4447L79.7039 0.225833L79.4781 0L79.0264 0Z" fill="#A7A9AC"/>
<path opacity="0.4" d="M72.2461 112.013C72.2461 113.143 71.3428 113.82 70.4395 113.82C69.5361 113.82 68.6328 113.143 68.6328 112.013C68.6328 111.11 69.5361 110.207 70.4395 110.207C71.3428 110.207 72.2461 111.11 72.2461 112.013Z" fill="#A7A9AC"/>
<path opacity="0.6" d="M16.0193 112.013C16.0193 112.917 15.5677 113.368 14.8902 113.368C13.9868 113.368 13.5352 112.917 13.5352 112.013C13.5352 111.336 13.9868 110.658 14.8902 110.658C15.5677 110.658 16.0193 111.336 16.0193 112.013Z" fill="#A7A9AC"/>
<path opacity="0.8" d="M16.4695 48.1026C16.4695 49.2317 15.792 49.9092 14.8887 49.9092C13.7595 49.9092 13.082 49.2317 13.082 48.1026C13.082 47.1992 13.7595 46.2959 14.8887 46.2959C15.792 46.2959 16.4695 47.1992 16.4695 48.1026Z" fill="#A7A9AC"/>
<path opacity="0.4" d="M53.7305 80.1707C53.7305 81.074 52.8272 81.9773 51.9239 81.9773C50.7947 81.9773 50.1172 81.074 50.1172 80.1707C50.1172 79.0415 50.7947 78.364 51.9239 78.364C52.8272 78.364 53.7305 79.0415 53.7305 80.1707Z" fill="#A7A9AC"/>
<path opacity="0.6" d="M72.0203 16.2598C72.0203 17.1631 71.117 17.8406 70.2136 17.8406C69.3103 17.8406 68.6328 17.1631 68.6328 16.2598C68.6328 15.1306 69.3103 14.4531 70.2136 14.4531C71.117 14.4531 72.0203 15.1306 72.0203 16.2598Z" fill="#A7A9AC"/>
<path opacity="0.5" d="M53.7305 48.1026C53.7305 49.2317 52.8272 49.9092 51.9239 49.9092C50.7947 49.9092 50.1172 49.2317 50.1172 48.1026C50.1172 47.1992 50.7947 46.2959 51.9239 46.2959C52.8272 46.2959 53.7305 47.1992 53.7305 48.1026Z" fill="#A7A9AC"/>
<path opacity="0.3" d="M77.8945 0C77.8945 0 77.8945 0.0752778 77.8945 0.225833C77.8945 1.12917 78.7979 1.80667 79.7012 1.80667C80.6045 1.80667 81.282 1.12917 81.282 0.225833C81.282 0.0752778 81.282 0 81.282 0L77.8945 0Z" fill="#A7A9AC"/>
</g>
</svg>
