<svg width="49" height="49" viewBox="0 0 49 49" fill="none" xmlns="http://www.w3.org/2000/svg">
<path d="M45.0584 28.571L40.9216 26.1819L44.7145 13.8878C45.5511 11.1733 44.0265 8.28684 41.312 7.45021L20.5074 1.02661C17.7976 0.185287 14.9065 1.71453 14.0698 4.42436L12.7312 8.77034H7.03279C4.1928 8.77034 1.88281 11.0804 1.88281 13.9203V43.0543C1.88281 45.8942 4.19289 48.2043 7.03279 48.2043H28.8089C30.2126 48.2043 31.4769 47.628 32.4065 46.7076L34.0379 47.6512C34.6746 48.0184 35.3905 48.2043 36.1017 48.2043C36.8128 48.2043 37.5286 48.0184 38.1654 47.6512L45.0585 43.6724C46.3274 42.938 47.1176 41.5715 47.1176 40.0981V32.1407C47.1175 30.672 46.3273 29.3008 45.0584 28.571ZM14.9578 4.69874C15.641 2.48628 18.0023 1.22663 20.2333 1.91455L41.0379 8.33814C43.2643 9.02137 44.5146 11.3918 43.8267 13.6137L40.0943 25.7033L38.1653 24.5878C36.8918 23.8533 35.3114 23.8533 34.0379 24.5878L33.9543 24.6389V13.9204C33.9543 11.0804 31.6442 8.77043 28.8089 8.77043H13.7028L14.9578 4.69874ZM28.8089 47.2748H7.03279C4.70873 47.2748 2.81238 45.383 2.81238 43.0544V13.9204C2.81238 11.5918 4.70873 9.7 7.03279 9.7H28.8089C31.1329 9.7 33.0246 11.5918 33.0246 13.9204V25.1733L27.1448 28.571C25.8713 29.3055 25.0811 30.672 25.0811 32.1408V40.0982C25.0811 41.5716 25.8712 42.9382 27.1448 43.6725L31.5697 46.2242C30.8307 46.875 29.8686 47.2748 28.8089 47.2748ZM46.1879 40.0982C46.1879 41.2369 45.579 42.2968 44.5937 42.8684L37.7006 46.8472C36.7152 47.4142 35.4881 47.4142 34.5027 46.8472L27.6096 42.8684C26.6243 42.2967 26.0107 41.2369 26.0107 40.0982V32.1408C26.0107 31.002 26.6243 29.9423 27.6096 29.3751L33.9356 25.7218C33.9449 25.7218 33.9496 25.7171 33.9542 25.7171V25.7124L34.5026 25.3917C34.9953 25.1081 35.5485 24.9688 36.1016 24.9688C36.6546 24.9688 37.2078 25.1082 37.7005 25.3917L44.5936 29.375C45.5789 29.9421 46.1878 31.0019 46.1878 32.1407L46.1879 40.0982Z" fill="#212121" stroke="#212121" stroke-width="0.5"/>
<path d="M23.6497 30.077L18.3184 38.9734C18.2347 39.1128 18.086 39.1964 17.9186 39.1964C17.7559 39.1964 17.6072 39.1128 17.5235 38.9734L12.1922 30.077C12.0853 29.905 12.1086 29.6819 12.2433 29.5285C12.3782 29.3798 12.5965 29.3333 12.7826 29.4169L17.9187 31.7316L23.0594 29.4169C23.2453 29.3333 23.4638 29.3797 23.5986 29.5285C23.7334 29.6819 23.7566 29.905 23.6497 30.077Z" fill="#EA231C"/>
<path d="M23.6954 27.2742C23.6534 27.4043 23.5605 27.5066 23.4397 27.5624L18.1084 29.9608C18.0479 29.9886 17.9829 30.0026 17.9179 30.0026C17.8528 30.0026 17.7877 29.9886 17.7273 29.9608L12.4007 27.5624C12.2798 27.5066 12.1869 27.4043 12.145 27.2742C12.1079 27.1487 12.1218 27.0139 12.1916 26.8977L17.5229 18.006C17.6902 17.7224 18.1503 17.7224 18.3177 18.006L23.649 26.8977C23.7186 27.0139 23.7326 27.1486 23.6954 27.2742Z" fill="#EA231C"/>
<path d="M41.3475 32.4335C41.301 32.4196 36.2997 30.6952 36.2532 30.6859C36.1556 30.6534 36.0533 30.6534 35.9557 30.6859C35.9046 30.7045 30.8661 32.4335 30.8614 32.4335C30.6802 32.4986 30.5547 32.6846 30.5547 32.8704V39.3731C30.5547 39.5729 30.6802 39.7496 30.8707 39.81L35.9556 41.553H35.9603C36.0068 41.5716 36.0533 41.5808 36.1044 41.5808C36.1555 41.5808 36.202 41.5716 36.2485 41.553H36.2532L41.3381 39.81C41.5287 39.7496 41.6541 39.5729 41.6541 39.3731V32.8704C41.6542 32.6893 41.5381 32.5033 41.3475 32.4335ZM35.6397 40.4654L31.4843 39.0385V33.5213L35.0819 34.753L35.6397 34.9435V40.4654ZM40.7247 39.0385L36.5693 40.4654V34.9435L37.1968 34.7297L40.7246 33.5213V39.0385H40.7247Z" fill="#212121"/>
</svg>
