<svg width="38" height="38" viewBox="0 0 38 38" fill="none" xmlns="http://www.w3.org/2000/svg">
<path fill-rule="evenodd" clip-rule="evenodd" d="M28.5051 0.782029C28.8921 0.659392 29.3053 0.873658 29.428 1.26076C29.5506 1.64779 29.3363 2.0609 28.9492 2.18361L27.5994 2.61329C28.7834 3.23124 29.9076 3.98141 30.9478 4.85857C32.3587 6.04819 33.6148 7.4725 34.6554 9.11821C37.3839 13.4326 38.1052 18.4452 37.0657 23.0616C36.0261 27.6781 33.225 31.8984 28.9089 34.6278C24.5944 37.3562 19.5819 38.0775 14.9656 37.0379C10.349 35.9983 6.1288 33.1972 3.39938 28.881C0.670936 24.5667 -0.0502009 19.5542 0.989299 14.9378C2.02896 10.3214 4.83 6.10118 9.14616 3.37176C11.0376 2.17558 13.063 1.36535 15.1304 0.919923C17.2736 0.458169 19.4628 0.389099 21.5949 0.689333C21.9978 0.745033 22.2794 1.11688 22.2236 1.51982C22.1678 1.92276 21.7959 2.2042 21.393 2.14851C19.4298 1.87214 17.4126 1.93596 15.4361 2.36187C13.5342 2.77153 11.6708 3.51703 9.93062 4.61756C5.95965 7.12879 3.38231 11.0121 2.42558 15.2608C1.46877 19.5096 2.13314 24.124 4.64543 28.0965C7.15665 32.0676 11.0402 34.6449 15.2888 35.6017C19.5376 36.5585 24.1521 35.8941 28.1247 33.3818C32.0956 30.8706 34.6729 26.9871 35.6297 22.7384C36.5865 18.4896 35.9221 13.8752 33.4097 9.90251C32.4538 8.39076 31.2972 7.08006 29.9963 5.98322C29.0922 5.22099 28.1182 4.56269 27.093 4.01242L27.6449 5.18219C27.8184 5.5501 27.6609 5.98913 27.2929 6.1627C26.9251 6.33628 26.4861 6.1787 26.3125 5.81087L24.8944 2.80517L24.8957 2.80459C24.8819 2.77531 24.8699 2.74471 24.8597 2.71288C24.7372 2.32594 24.9514 1.91275 25.3385 1.79011L28.5051 0.782029Z" fill="#212121"/>
<path fill-rule="evenodd" clip-rule="evenodd" d="M19.0288 31.6816C26.0133 31.6816 31.7097 25.9851 31.7097 19.0005C31.7097 12.016 26.0133 6.31934 19.0288 6.31934C12.0443 6.31934 6.34766 12.016 6.34766 19.0005C6.34766 25.9851 12.0442 31.6816 19.0288 31.6816Z" fill="#FFA1A1"/>
<path fill-rule="evenodd" clip-rule="evenodd" d="M19.0289 28.7285C24.3868 28.7285 28.7569 24.3586 28.7569 19.0005C28.7569 13.6425 24.3869 9.27246 19.0289 9.27246C13.6708 9.27246 9.30078 13.6424 9.30078 19.0005C9.30078 24.3585 13.6708 28.7285 19.0289 28.7285Z" fill="white"/>
<path fill-rule="evenodd" clip-rule="evenodd" d="M19.7678 17.959C20.0693 17.8981 20.3888 18.0321 20.5506 18.3134C20.7528 18.6654 20.6315 19.1148 20.2795 19.3169L19.7678 19.6125V20.2104C19.7678 20.6182 19.4373 20.9487 19.0295 20.9487C18.7031 20.9487 18.4262 20.737 18.3287 20.4433L15.0273 22.3494C14.6753 22.5517 14.2258 22.4303 14.0237 22.0783C13.8213 21.7263 13.9428 21.2769 14.2948 21.0747L18.2913 18.7674V12.0312C18.2913 11.6235 18.6218 11.293 19.0296 11.293C19.4373 11.293 19.7678 11.6235 19.7678 12.0312V17.959H19.7678Z" fill="#212121"/>
</svg>
