<svg width="42" height="40" viewBox="0 0 42 40" fill="none" xmlns="http://www.w3.org/2000/svg">
<path d="M40.2146 0H10.8773C9.89172 0.00114872 9.09303 0.799839 9.09188 1.78544V9.87737L7.75034 7.86506C7.13627 6.93878 5.90131 6.66087 4.94967 7.2349L2.18962 8.89431C1.28574 9.4247 0.622681 10.2848 0.339767 11.2938C-0.667089 14.96 0.0799921 21.2762 9.351 30.5486C16.7238 37.9138 22.2208 39.8974 26.0095 39.8974C26.8866 39.9014 27.7604 39.7874 28.6071 39.5585C29.6158 39.2756 30.4759 38.6134 31.0073 37.7108L32.6646 34.9478C33.2363 33.9969 32.9587 32.7645 32.0344 32.1506L25.4255 27.7451C24.5189 27.1455 23.3037 27.3426 22.6332 28.1981L20.7091 30.6718C20.508 30.9365 20.1432 31.0136 19.8521 30.8531L19.4859 30.6515C18.2808 29.9947 16.7811 29.1769 13.7522 26.148C13.4245 25.8203 13.1276 25.5136 12.8489 25.2202H40.2146C41.1977 25.2209 41.9961 24.4263 42 23.4431V1.78544C41.9989 0.799839 41.2002 0.00114872 40.2146 0ZM18.8158 31.8811L19.1715 32.0764C20.0656 32.5764 21.1911 32.3444 21.8146 31.5317L23.7388 29.058C23.9575 28.7794 24.3533 28.7151 24.649 28.9102L31.2579 33.3158C31.5581 33.5159 31.6484 33.9165 31.463 34.226L29.8057 36.9889C29.4596 37.5824 28.8973 38.0189 28.2367 38.2072C24.9269 39.1174 19.1344 38.3472 10.343 29.5552C1.55159 20.7631 0.784322 14.9711 1.69239 11.6642C1.88053 11.0036 2.3168 10.4414 2.90995 10.0951L5.67288 8.43712C5.98246 8.25218 6.38279 8.34235 6.58308 8.64225L10.9906 15.2512C11.1861 15.5467 11.1218 15.9429 10.8429 16.1614L8.36844 18.0861C7.55588 18.7095 7.32384 19.8347 7.8237 20.7286L8.01972 21.0843C8.71986 22.3684 9.59018 23.9662 12.7627 27.138C15.9353 30.3099 17.5325 31.1809 18.8158 31.8811ZM40.5997 23.4432C40.5974 23.6538 40.4252 23.8229 40.2146 23.8213H11.5858C10.6765 22.7814 9.8923 21.6384 9.24934 20.4157L9.04766 20.0481C8.88684 19.7576 8.9638 19.3931 9.22834 19.1924L11.7028 17.2677C12.5586 16.5973 12.7557 15.382 12.1558 14.4754L10.4922 11.9786V1.78544C10.491 1.68296 10.5312 1.58433 10.6037 1.51188C10.6761 1.43943 10.7748 1.39923 10.8772 1.40038H40.2146C40.317 1.39923 40.4157 1.43943 40.4881 1.51188C40.5606 1.58433 40.6008 1.68296 40.5996 1.78544V23.4432H40.5997Z" fill="#212121"/>
<path d="M37.8018 3.24199L26.0998 12.1167C25.7687 12.3573 25.3204 12.3573 24.9893 12.1167L13.2916 3.24199C12.9834 3.00823 12.544 3.06862 12.3104 3.3768C12.0766 3.68499 12.137 4.12438 12.4452 4.35806L24.1443 13.232C24.9767 13.8469 26.1127 13.8469 26.945 13.232L38.6477 4.35806C38.7958 4.24581 38.8932 4.07925 38.9184 3.89512C38.9436 3.711 38.8946 3.52442 38.7821 3.37648C38.5484 3.06886 38.1098 3.00872 37.8018 3.24199Z" fill="#EA231C"/>
<path d="M19.5716 13.2907L12.399 20.9716C12.1353 21.2544 12.1508 21.6976 12.4336 21.9613C12.7165 22.225 13.1596 22.2095 13.4233 21.9267L20.596 14.2423C20.8329 13.9564 20.8054 13.5353 20.5334 13.2825C20.2614 13.0297 19.8393 13.0333 19.5716 13.2907Z" fill="#EA231C"/>
<path d="M31.5679 13.2906C31.3042 13.0078 30.8611 12.9922 30.5782 13.256C30.2954 13.5197 30.2798 13.9628 30.5436 14.2457L37.7141 21.9266C37.9778 22.2094 38.4209 22.225 38.7038 21.9612C38.9866 21.6975 39.0022 21.2544 38.7384 20.9715L31.5679 13.2906Z" fill="#EA231C"/>
</svg>
