<svg width="81" height="81" viewBox="0 0 81 81" fill="none" xmlns="http://www.w3.org/2000/svg">
<g clip-path="url(#clip0_116_5176)">
<path d="M44.1104 16.4258V25.9203H72.5941V16.4258H44.1104ZM64.5066 61.5119L52.4205 53.4521C49.611 51.5815 45.8303 51.9546 43.4381 54.3446L40.2578 57.5226C38.3918 57.2537 33.9551 56.1433 29.4048 51.5931C24.8546 47.0428 23.7443 42.6061 23.4753 40.7401L26.6533 37.5597C29.0432 35.1698 29.4188 31.3916 27.5434 28.5752L19.486 16.4914C18.2968 14.7088 16.3938 13.5662 14.2611 13.3552C12.1285 13.1467 10.04 13.8929 8.52641 15.4067L3.48938 20.4413C1.09042 22.8405 -0.175212 26.1181 0.0195852 29.4352C0.399685 35.8933 3.19758 48.8857 17.655 63.3431C32.1147 77.8005 45.1049 80.5984 51.5628 80.9785C54.8107 81.1815 58.127 79.9407 60.5543 77.5084L65.5914 72.4713C67.105 70.9577 67.8538 68.8669 67.6428 66.7366C67.432 64.6041 66.2892 62.7011 64.5066 61.5119Z" fill="#EA231C"/>
<path d="M59.6323 0C47.8589 0 38.2695 9.54205 38.2695 21.3628C38.2695 25.0184 39.2188 28.5788 41.0228 31.7594L38.4118 39.5926C38.127 40.4471 38.3643 41.3965 38.9815 42.0137C39.6861 42.6474 40.5622 42.9188 41.4026 42.5833L49.2358 39.9722C52.4163 41.7761 55.9769 42.7258 59.6323 42.7258C71.4531 42.7258 80.9951 33.1361 80.9951 21.363C80.9951 9.54205 71.4531 0 59.6323 0ZM50.1378 23.7364C48.8558 23.7364 47.7641 22.6447 47.7641 21.3628C47.7641 20.0337 48.8558 18.9892 50.1378 18.9892C51.4668 18.9892 52.5114 20.0337 52.5114 21.3628C52.5114 22.6447 51.4668 23.7364 50.1378 23.7364ZM59.6323 23.7364C58.3504 23.7364 57.2587 22.6447 57.2587 21.3628C57.2587 20.0337 58.3504 18.9892 59.6323 18.9892C60.9614 18.9892 62.006 20.0337 62.006 21.3628C62.006 22.6447 60.9614 23.7364 59.6323 23.7364ZM69.1269 23.7364C67.845 23.7364 66.7533 22.6447 66.7533 21.3628C66.7533 20.0337 67.845 18.9892 69.1269 18.9892C70.456 18.9892 71.5006 20.0337 71.5006 21.3628C71.5006 22.6447 70.456 23.7364 69.1269 23.7364Z" fill="url(#paint0_linear_116_5176)"/>
</g>
<defs>
<linearGradient id="paint0_linear_116_5176" x1="59.6323" y1="42.7281" x2="59.6323" y2="0" gradientUnits="userSpaceOnUse">
<stop stop-color="#FFDACA"/>
<stop offset="1" stop-color="#FFF2F4"/>
</linearGradient>
<clipPath id="clip0_116_5176">
<rect width="81" height="81" fill="white"/>
</clipPath>
</defs>
</svg>
