<svg width="104" height="78" viewBox="0 0 104 78" fill="none" xmlns="http://www.w3.org/2000/svg">
<path d="M97.2357 77.7889H6.76427C3.02839 77.7889 0 74.7603 0 71.0246V6.76439C0 3.02872 3.02839 0.00012207 6.76427 0.00012207H97.2357C100.972 0.00012207 104 3.02872 104 6.76439V71.0246C104 74.7603 100.972 77.7889 97.2357 77.7889Z" fill="white"/>
<path d="M97.2351 0.00012207H91.3164C95.0523 0.00012207 98.0807 3.02851 98.0807 6.76439V71.0246C98.0807 74.7605 95.0523 77.7889 91.3164 77.7889H97.2351C100.971 77.7889 103.999 74.7605 103.999 71.0246V6.76439C103.999 3.02872 100.971 0.00012207 97.2351 0.00012207Z" fill="#E0E0E6"/>
<path d="M82.3824 71.0097L82.7563 70.9585L83.4283 70.8084L86.4499 69.4501V8.59793L84.4672 7.41595L82.8885 6.82953L82.3082 6.76453H9.72495C8.09061 6.76453 6.76562 8.08951 6.76562 9.72385V68.0652C6.76562 69.6996 8.09061 71.0245 9.72495 71.0245H82.1577L82.3824 71.0097Z" fill="#EA231C"/>
<path d="M87.5116 6.76428H82.0156C83.65 6.76428 84.975 8.08927 84.975 9.72361V68.0652C84.975 69.6995 83.65 71.0245 82.0156 71.0245H87.5116C89.1459 71.0245 90.4709 69.6995 90.4709 68.0652V9.72361C90.4709 8.08927 89.1459 6.76428 87.5116 6.76428Z" fill="#A41D21"/>
<path d="M97.2344 42.5318C97.0343 42.5318 96.8362 42.4924 96.6513 42.4158C96.4665 42.3393 96.2986 42.2271 96.1571 42.0856C96.0156 41.9441 95.9034 41.7762 95.8268 41.5913C95.7503 41.4065 95.7109 41.2084 95.7109 41.0083V36.7809C95.7109 35.9393 96.3928 35.2574 97.2344 35.2574C98.0759 35.2574 98.7578 35.9393 98.7578 36.7809V41.0083C98.7578 41.8499 98.0759 42.5318 97.2344 42.5318Z" fill="#E0E0E6"/>
<path d="M39.7305 34.6812V18.1474C39.7305 16.194 41.846 14.9736 43.537 15.9516L57.8307 24.2184C59.5195 25.1952 59.5195 27.6332 57.8307 28.61L43.537 36.8768C41.846 37.855 39.7305 36.6346 39.7305 34.6812Z" fill="#EAF6FF"/>
<path d="M39.4898 48.6532C40.3314 48.6532 41.0133 47.9713 41.0133 47.1298C41.0133 46.2882 40.3314 45.6063 39.4898 45.6063H33.7895C33.5895 45.6063 33.3914 45.6457 33.2065 45.7222C33.0217 45.7988 32.8537 45.911 32.7122 46.0525C32.5708 46.1939 32.4586 46.3619 32.382 46.5467C32.3055 46.7316 32.2661 46.9297 32.2661 47.1298V60.6583C32.2661 61.4998 32.948 62.1817 33.7895 62.1817H39.4898C40.3314 62.1817 41.0133 61.4998 41.0133 60.6583C41.0133 59.8167 40.3314 59.1349 39.4898 59.1349H35.313V55.4175H39.0696C39.9111 55.4175 40.593 54.7356 40.593 53.894C40.593 53.0525 39.9111 52.3706 39.0696 52.3706H35.313V48.6532H39.4898ZM21.562 45.6063H17.7305C17.5302 45.6063 17.3318 45.6459 17.1468 45.7226C16.9618 45.7994 16.7937 45.9119 16.6522 46.0537C16.5107 46.1954 16.3986 46.3637 16.3222 46.5489C16.2458 46.7341 16.2067 46.9325 16.207 47.1328L16.2347 60.6613C16.2355 61.0649 16.3963 61.4516 16.6819 61.7366C16.9676 62.0216 17.3546 62.1817 17.7581 62.1817H17.7638C17.8794 62.1813 20.6104 62.1708 21.7008 62.1519C25.6686 62.0824 28.5487 58.6098 28.5487 53.8942C28.5487 48.937 25.7409 45.6063 21.562 45.6063ZM21.6475 59.1052C21.1062 59.1147 20.1219 59.1221 19.2783 59.1271L19.2572 48.6532H21.5622C24.4671 48.6532 25.502 51.3604 25.502 53.894C25.5018 57.4473 23.5658 59.0717 21.6475 59.1052ZM59.4889 47.0694C59.4079 46.6737 59.1982 46.3159 58.8925 46.0518C58.5869 45.7877 58.2024 45.6321 57.7991 45.6094C57.3864 45.5858 56.9779 45.703 56.6405 45.9417C56.303 46.1804 56.0565 46.5266 55.9413 46.9236L53.3596 55.9801L50.6828 46.9079C50.5633 46.5118 50.3129 46.1678 49.9727 45.9323C49.6324 45.6968 49.2223 45.5837 48.8094 45.6114C47.9809 45.6669 47.2927 46.2754 47.1326 47.1078L44.7548 60.2821C44.6831 60.6797 44.7722 61.0896 45.0026 61.4215C45.2331 61.7534 45.5859 61.9802 45.9835 62.0519C46.3812 62.1237 46.791 62.0345 47.1229 61.8041C47.4548 61.5737 47.6816 61.2209 47.7534 60.8232L49.2177 52.7092L51.6288 60.8809C51.6339 60.8988 51.6398 60.9165 51.6454 60.9341C51.7668 61.2978 51.9996 61.6141 52.3109 61.838C52.6221 62.0619 52.9959 62.1822 53.3793 62.1817H53.3887C53.783 62.1803 54.1663 62.0511 54.4812 61.8137C54.796 61.5762 55.0255 61.2432 55.1353 60.8645L57.4632 52.699L59.0187 60.8387C59.1765 61.665 59.9746 62.2083 60.8009 62.0489C60.9974 62.0114 61.1846 61.9355 61.3518 61.8256C61.5189 61.7157 61.6628 61.574 61.7752 61.4085C61.8876 61.243 61.9663 61.057 62.0068 60.861C62.0472 60.6651 62.0487 60.4632 62.0111 60.2667L59.4889 47.0694ZM72.7383 45.6063C68.1684 45.6063 64.4506 49.3241 64.4506 53.894C64.4506 58.4639 68.1684 62.1817 72.7383 62.1817C77.3083 62.1817 81.0261 58.4639 81.0261 53.894C81.0261 49.3241 77.3085 45.6063 72.7383 45.6063ZM72.7383 59.1349C69.8485 59.1349 67.4975 56.7839 67.4975 53.894C67.4975 51.0042 69.8485 48.6532 72.7383 48.6532C75.6282 48.6532 77.9792 51.0042 77.9792 53.894C77.9792 56.7839 75.6282 59.1349 72.7383 59.1349Z" fill="#EAF6FF"/>
</svg>
