<svg width="95" height="96" viewBox="0 0 95 96" fill="none" xmlns="http://www.w3.org/2000/svg">
<path d="M48.0668 40.285H21.7475C9.73658 40.285 0 50.0216 0 62.0324C0 70.7207 5.09567 78.2188 12.4607 81.7022C15.4182 83.1015 17.3154 86.0679 17.3154 89.3399V94.0053C17.3154 95.7794 19.608 96.4862 20.6063 95.021L25.7582 87.4647C26.5325 86.3293 27.5724 85.4001 28.7875 84.7579C30.0026 84.1157 31.3561 83.78 32.7305 83.7799H48.0664C60.0774 83.7799 69.8139 74.0433 69.8139 62.0324C69.8131 50.0214 60.0765 40.285 48.0664 40.285H48.0668Z" fill="white"/>
<path d="M20.7712 81.7024C13.4059 78.2188 8.31047 70.7207 8.31047 62.0324C8.31047 50.0214 18.0471 40.285 30.0578 40.285H21.7475C9.73658 40.285 0 50.0216 0 62.0324C0 70.7207 5.09483 78.2188 12.4599 81.7022C15.4182 83.1015 17.3146 86.0679 17.3146 89.3399V94.0053C17.3146 95.7794 19.6071 96.4862 20.6061 95.021L25.4888 87.8591C25.2501 86.5311 24.6974 85.2795 23.8768 84.2085C23.0561 83.1375 21.9913 82.2783 20.7712 81.7024Z" fill="#EBDFE0"/>
<path d="M24.2006 62.4479C24.2006 64.6652 22.4038 66.4627 20.1867 66.4627C17.9694 66.4627 16.1719 64.6652 16.1719 62.4481C16.1719 60.231 17.9694 58.4331 20.1865 58.4331C22.4038 58.4331 24.2006 60.2308 24.2006 62.4479ZM38.9217 62.4479C38.9217 64.6652 37.1242 66.4627 34.9071 66.4627C32.6898 66.4627 30.8921 64.6652 30.8921 62.4481C30.8921 60.231 32.6898 58.4331 34.9069 58.4331C37.1242 58.4331 38.9217 60.2308 38.9217 62.4479ZM53.6421 62.4479C53.6421 64.6652 51.8445 66.4627 49.6273 66.4627C47.41 66.4627 45.6125 64.6652 45.6125 62.4481C45.6125 60.231 47.41 58.4331 49.6271 58.4331C51.8445 58.4331 53.6421 60.2308 53.6421 62.4479Z" fill="#212121"/>
<path d="M46.7593 0H73.0773C85.088 0 94.8246 9.73658 94.8246 21.7475C94.8246 30.4359 89.7298 37.9332 82.365 41.4171C79.4064 42.8165 77.5101 45.783 77.5101 49.0549V53.7205C77.5101 55.4935 75.2175 56.2011 74.2185 54.7361L69.0665 47.1791C68.2922 46.0435 67.2523 45.1143 66.0372 44.4722C64.8221 43.8302 63.4685 43.4947 62.0941 43.4949H46.7591C34.7481 43.4949 25.0117 33.7583 25.0117 21.7473C25.0117 9.73637 34.7485 0 46.7593 0Z" fill="#EA231C"/>
<path d="M71.0447 40.7249H55.7088C43.6981 40.7249 33.9615 30.9875 33.9615 18.9775C33.9615 11.0597 38.1934 4.13066 44.5183 0.327148C33.5606 1.44898 25.0117 10.7061 25.0117 21.9604C25.0117 33.9713 34.7483 43.7079 46.7593 43.7079H62.0952C63.4695 43.7079 64.823 44.0436 66.038 44.6858C67.253 45.3279 68.2928 46.2572 69.0669 47.3927L74.2188 54.949C75.2177 56.4142 77.5103 55.7072 77.5103 53.9333V49.2679C77.5104 47.8464 77.8713 46.4482 78.5594 45.2042L78.0162 44.4099C77.2423 43.2742 76.2026 42.3449 74.9876 41.7026C73.7725 41.0604 72.419 40.7247 71.0447 40.7249Z" fill="#CF2328"/>
<path d="M78.6547 22.1628C78.6547 24.3801 76.8572 26.1778 74.6401 26.1778C72.4228 26.1778 70.6251 24.3801 70.6251 22.163C70.6251 19.9459 72.4228 18.1482 74.6399 18.1482C76.8572 18.1482 78.6547 19.9457 78.6547 22.1628ZM63.9336 22.1628C63.9336 24.3801 62.1368 26.1778 59.9197 26.1778C57.7023 26.1778 55.9049 24.3801 55.9049 22.163C55.9049 19.9459 57.7023 18.1482 59.9195 18.1482C62.1368 18.1482 63.9336 19.9457 63.9336 22.1628ZM49.2132 22.1628C49.2132 24.3801 47.4157 26.1778 45.1986 26.1778C42.9815 26.1778 41.1836 24.3801 41.1836 22.163C41.1836 19.9459 42.9813 18.1482 45.1984 18.1482C47.4155 18.1482 49.2132 19.9457 49.2132 22.1628Z" fill="#F8FAFD"/>
</svg>
