<svg width="18" height="18" viewBox="0 0 18 18" fill="none" xmlns="http://www.w3.org/2000/svg">
<path d="M6.5 9.625L8.375 11.5L11.5 7.125M16.5 9C16.5 10.0569 15.9753 10.9913 15.1722 11.5568C15.3401 12.5245 15.0504 13.556 14.3031 14.3033C13.5559 15.0505 12.5243 15.3402 11.5567 15.1724C10.9911 15.9754 10.0568 16.5 9 16.5C7.94321 16.5 7.00894 15.9754 6.44337 15.1725C5.47555 15.3405 4.4438 15.0508 3.69642 14.3034C2.94905 13.5561 2.65937 12.5243 2.82738 11.5565C2.02451 10.9909 1.5 10.0567 1.5 9C1.5 7.94323 2.02455 7.00898 2.82748 6.4434C2.65956 5.47566 2.94925 4.44403 3.69656 3.69672C4.44388 2.94941 5.47553 2.65972 6.44328 2.82765C7.00884 2.02463 7.94315 1.5 9 1.5C10.0568 1.5 10.9911 2.02458 11.5566 2.82756C12.5245 2.65954 13.5562 2.94921 14.3036 3.69659C15.0509 4.44395 15.3406 5.47568 15.1726 6.44348C15.9755 7.00906 16.5 7.94327 16.5 9Z" stroke="url(#paint0_linear_15_12155)" stroke-width="1.5" stroke-linecap="round" stroke-linejoin="round"/>
<defs>
<linearGradient id="paint0_linear_15_12155" x1="1" y1="3.5" x2="12" y2="17.5" gradientUnits="userSpaceOnUse">
<stop offset="0.51" stop-color="#EA231C"/>
<stop offset="1" stop-color="#ED8406"/>
</linearGradient>
</defs>
</svg>
