<svg width="56" height="48" viewBox="0 0 56 48" fill="none" xmlns="http://www.w3.org/2000/svg">
<path d="M22.2531 18.2458C18.4889 22.005 18.4889 28.1217 22.2531 31.8809C24.1353 33.7605 26.6076 34.7003 29.0799 34.7003C31.5522 34.7003 34.0245 33.7605 35.9066 31.8809C39.6709 28.1217 39.6709 22.005 35.9066 18.2458C32.1424 14.4867 26.0174 14.4867 22.2531 18.2458ZM34.9203 30.8958C33.31 32.5039 31.1955 33.308 29.0799 33.308C26.9654 33.308 24.8486 32.5039 23.2395 30.8958C20.019 27.6797 20.019 22.4459 23.2395 19.2297C24.8498 17.6216 26.9643 16.8176 29.0799 16.8176C31.1944 16.8176 33.31 17.6216 34.9203 19.2297C38.1419 22.4459 38.1419 27.6797 34.9203 30.8958ZM51.8954 8.81081C49.6322 8.81081 47.7919 10.6486 47.7919 12.9088C47.7919 13.4854 47.9127 14.0342 48.1288 14.5331L41.1347 19.0916C41.036 18.8921 40.9326 18.6937 40.8234 18.4999L42.5684 16.6447C42.9228 16.2676 42.9146 15.6852 42.5475 15.3186L38.8379 11.6139C38.4707 11.2485 37.8875 11.2392 37.5099 11.593L35.6534 13.3357C34.7309 12.8194 33.7515 12.4145 32.7326 12.1291L32.6559 9.58585C32.6408 9.06838 32.2214 8.6623 31.7021 8.6623H26.4565C25.9372 8.6623 25.519 9.06838 25.5027 9.58585L25.426 12.1291C24.406 12.4157 23.4254 12.8206 22.5029 13.338L20.6487 11.5942C20.2711 11.2392 19.6867 11.2473 19.3196 11.6139L17.958 12.9737L11.5599 6.58432C12.0897 5.89398 12.4046 5.03193 12.4046 4.09794C12.4046 1.83781 10.5643 0 8.30107 0C6.03788 0 4.19875 1.83665 4.19875 4.09678C4.19875 6.35692 6.03904 8.19473 8.30223 8.19473C9.12595 8.19473 9.8939 7.94992 10.5375 7.53107L16.9739 13.9588L15.6123 15.3186C15.2452 15.6852 15.2359 16.2676 15.5925 16.6447L17.3387 18.4964C16.8217 19.4177 16.4151 20.3969 16.1281 21.4156L13.5826 21.4922C13.0633 21.5072 12.6567 21.9261 12.6567 22.4447V24.3672H8.14655C7.81428 22.4377 6.1285 20.9654 4.10348 20.9654C1.84029 20.9654 0 22.8032 0 25.0634C0 27.3235 1.84029 29.1613 4.10348 29.1613C6.1285 29.1613 7.81428 27.689 8.14655 25.7595H12.6567V27.6832C12.6567 28.2018 13.0633 28.6195 13.5815 28.6357L16.1281 28.7123C16.4151 29.731 16.8206 30.7102 17.3387 31.6314L15.5925 33.4832C15.237 33.8602 15.2452 34.4438 15.6123 34.8093L19.3219 38.5139C19.6891 38.8806 20.2723 38.8887 20.6499 38.5337L22.5041 36.7898C22.6121 36.8502 22.7214 36.9093 22.8306 36.9662L19.7785 40.7114C19.0745 40.1452 18.181 39.8041 17.2086 39.8041C14.9454 39.8041 13.1051 41.6419 13.1051 43.9021C13.1051 46.1622 14.9454 48 17.2086 48C19.4718 48 21.3121 46.1622 21.3121 43.9021C21.3121 43.1224 21.0925 42.3926 20.7126 41.7719L24.1422 37.5637C24.5616 37.7285 24.9904 37.8746 25.426 37.9976L25.505 40.542C25.5213 41.0595 25.9395 41.4656 26.4577 41.4656H26.4589H31.7044C32.2226 41.4656 32.642 41.0595 32.6582 40.542L32.7372 37.9976C33.755 37.7122 34.7332 37.3073 35.6557 36.791L37.5122 38.5337C37.8898 38.8887 38.4742 38.8794 38.8402 38.5128L40.2018 37.153L43.7198 40.6662C43.3247 41.2962 43.0947 42.0399 43.0947 42.8358C43.0947 45.0959 44.935 46.9338 47.1982 46.9338C49.4614 46.9338 51.3017 45.0959 51.3017 42.8358C51.3017 40.5757 49.4614 38.7379 47.1982 38.7379C46.2362 38.7379 45.3509 39.0708 44.6504 39.6266L41.187 36.1679L42.5487 34.8082C42.9158 34.4415 42.9239 33.8591 42.5684 33.482L40.8234 31.628C41.3392 30.7079 41.7447 29.731 42.0317 28.7134L44.5795 28.6346C45.0977 28.6183 45.5043 28.2006 45.5043 27.682V22.4435C45.5043 21.9261 45.0977 21.5072 44.5795 21.491L42.0317 21.4121C41.9341 21.0652 41.8214 20.7241 41.6971 20.3876L48.8933 15.698C49.6426 16.5032 50.7115 17.0079 51.8965 17.0079C54.1597 17.0079 56 15.17 56 12.9099C56 10.6498 54.1585 8.81081 51.8954 8.81081ZM5.59291 4.09678C5.59291 2.60472 6.80816 1.39112 8.30223 1.39112C9.79631 1.39112 11.0116 2.60472 11.0116 4.09678C11.0116 5.58884 9.79631 6.80245 8.30223 6.80245C6.80816 6.80245 5.59291 5.58884 5.59291 4.09678ZM4.10348 27.769C2.60941 27.769 1.39416 26.5554 1.39416 25.0634C1.39416 23.5713 2.60941 22.3577 4.10348 22.3577C5.59756 22.3577 6.8128 23.5713 6.8128 25.0634C6.8128 26.5554 5.59756 27.769 4.10348 27.769ZM17.2074 46.6077C15.7134 46.6077 14.4981 45.3941 14.4981 43.9021C14.4981 42.41 15.7134 41.1964 17.2074 41.1964C17.8464 41.1964 18.4343 41.4192 18.8979 41.7904L18.8165 41.8902L19.4753 42.4262C19.753 42.8509 19.9156 43.3579 19.9156 43.9021C19.9168 45.3941 18.7015 46.6077 17.2074 46.6077ZM47.197 40.1301C48.6911 40.1301 49.9063 41.3437 49.9063 42.8358C49.9063 44.3279 48.6911 45.5415 47.197 45.5415C45.7029 45.5415 44.4877 44.3279 44.4877 42.8358C44.4877 41.3437 45.7029 40.1301 47.197 40.1301ZM44.109 22.8694V27.2562L41.661 27.3316C41.2312 27.3444 40.8722 27.6333 40.7653 28.0486C40.4818 29.159 40.0415 30.2206 39.4571 31.2045C39.2375 31.5734 39.2886 32.0306 39.5826 32.3438L41.2591 34.1259L38.1536 37.2272L36.369 35.553C36.0565 35.2595 35.5976 35.2096 35.2281 35.4277C34.2429 36.0113 33.1799 36.451 32.068 36.7341C31.6521 36.8397 31.3628 37.1994 31.3501 37.6275L31.2745 40.0721H26.8818L26.8062 37.6275C26.7923 37.1982 26.5042 36.8397 26.0883 36.7341C24.9752 36.451 23.911 36.0113 22.9258 35.4266C22.5564 35.2073 22.0975 35.2572 21.7849 35.5519L20.0051 37.2261L16.8996 34.1248L18.5772 32.3461C18.8711 32.034 18.9223 31.5757 18.7027 31.2068C18.1171 30.2206 17.6756 29.1578 17.3922 28.0452C17.2864 27.6298 16.9263 27.3409 16.4964 27.3281L14.0497 27.255V22.8694L16.4964 22.7963C16.9263 22.7835 17.2864 22.4946 17.3922 22.0792C17.6756 20.9666 18.1171 19.9026 18.7027 18.9176C18.9223 18.5486 18.8711 18.0904 18.5772 17.7783L16.8996 15.9996L20.0051 12.8983L21.7861 14.5737C22.0986 14.8684 22.5575 14.9183 22.927 14.699C23.9145 14.1131 24.9787 13.6733 26.0929 13.3902C26.5088 13.2835 26.797 12.925 26.8109 12.4957L26.8841 10.0523H31.2757L31.3489 12.4957C31.3617 12.925 31.6498 13.2847 32.0669 13.3902C33.1799 13.6733 34.2441 14.1131 35.2293 14.6967C35.5988 14.916 36.0565 14.8649 36.3702 14.5714L38.1547 12.8972L41.2602 15.9985L39.5826 17.7806C39.2886 18.0927 39.2387 18.551 39.4571 18.9188C40.0415 19.9026 40.4818 20.9643 40.7653 22.0746C40.871 22.49 41.2312 22.7789 41.6599 22.7916L44.109 22.8694ZM51.8954 15.6144C50.4013 15.6144 49.186 14.4008 49.186 12.9088C49.186 11.4167 50.4013 10.2031 51.8954 10.2031C53.3894 10.2031 54.6047 11.4167 54.6047 12.9088C54.6047 14.4008 53.3894 15.6144 51.8954 15.6144ZM25.081 21.8483C23.839 21.8483 22.8294 22.8566 22.8294 24.0969V27.5822C22.8294 27.9663 23.1419 28.2784 23.5265 28.2784C23.911 28.2784 24.2236 27.9663 24.2236 27.5822V26.5357H25.9384V27.5822C25.9384 27.9663 26.2509 28.2784 26.6355 28.2784C27.02 28.2784 27.3325 27.9663 27.3325 27.5822V24.0969C27.3325 22.8566 26.3218 21.8483 25.081 21.8483ZM24.2224 25.1434V24.0969C24.2224 23.6247 24.607 23.2406 25.0798 23.2406C25.5527 23.2406 25.9372 23.6247 25.9372 24.0969V25.1434H24.2224ZM31.2025 21.8483H29.3088C28.9242 21.8483 28.6117 22.1604 28.6117 22.5445V27.5822C28.6117 27.9663 28.9242 28.2784 29.3088 28.2784C29.6933 28.2784 30.0058 27.9663 30.0058 27.5822V25.7595H31.2025C32.2818 25.7595 33.1601 24.8824 33.1601 23.8045C33.1601 22.7266 32.2818 21.8483 31.2025 21.8483ZM31.2025 24.3672H30.0058V23.2406H31.2025C31.5139 23.2406 31.766 23.4936 31.766 23.8033C31.766 24.1131 31.5139 24.3672 31.2025 24.3672ZM34.6345 21.8483C35.019 21.8483 35.3315 22.1604 35.3315 22.5445V27.5822C35.3315 27.9663 35.019 28.2784 34.6345 28.2784C34.2499 28.2784 33.9374 27.9663 33.9374 27.5822V22.5445C33.9374 22.1593 34.2487 21.8483 34.6345 21.8483Z" fill="#212121"/>
<path d="M25.0797 21.8484C23.8377 21.8484 22.8281 22.8566 22.8281 24.0969V27.5823C22.8281 27.9663 23.1406 28.2784 23.5252 28.2784C23.9098 28.2784 24.2223 27.9663 24.2223 27.5823V26.5357H25.9371V27.5823C25.9371 27.9663 26.2496 28.2784 26.6342 28.2784C27.0187 28.2784 27.3313 27.9663 27.3313 27.5823V24.0969C27.3313 22.8566 26.3205 21.8484 25.0797 21.8484ZM24.2211 25.1434V24.0969C24.2211 23.6247 24.6057 23.2407 25.0785 23.2407C25.5514 23.2407 25.9359 23.6247 25.9359 24.0969V25.1434H24.2211ZM31.2012 21.8484H29.3075C28.9229 21.8484 28.6104 22.1605 28.6104 22.5445V27.5823C28.6104 27.9663 28.9229 28.2784 29.3075 28.2784C29.692 28.2784 30.0046 27.9663 30.0046 27.5823V25.7595H31.2012C32.2805 25.7595 33.1589 24.8824 33.1589 23.8045C33.1589 22.7267 32.2805 21.8484 31.2012 21.8484ZM31.2012 24.3673H30.0046V23.2407H31.2012C31.5126 23.2407 31.7647 23.4936 31.7647 23.8034C31.7647 24.1132 31.5126 24.3673 31.2012 24.3673ZM34.6332 21.8484C35.0177 21.8484 35.3303 22.1605 35.3303 22.5445V27.5823C35.3303 27.9663 35.0177 28.2784 34.6332 28.2784C34.2486 28.2784 33.9361 27.9663 33.9361 27.5823V22.5445C33.9361 22.1593 34.2475 21.8484 34.6332 21.8484Z" fill="#EA231C"/>
</svg>
