<svg width="42" height="42" viewBox="0 0 42 42" fill="none" xmlns="http://www.w3.org/2000/svg">
<path d="M21.7746 19.725C21.4577 19.4081 20.9446 19.4081 20.6277 19.725C20.3116 20.0411 20.3116 20.5542 20.6277 20.8711C20.9446 21.1872 21.4577 21.1872 21.7746 20.8711C22.0908 20.5542 22.0908 20.0411 21.7746 19.725Z" fill="#212121"/>
<path d="M32.0922 9.40805C30.5084 7.82431 27.9444 7.82423 26.3605 9.40805C24.7809 10.9877 24.7808 13.5588 26.3608 15.1398C27.941 16.719 30.5121 16.7197 32.0922 15.1396C33.6758 13.556 33.6762 10.9919 32.0922 9.40805ZM30.9459 13.9932C29.9981 14.9411 28.4553 14.9411 27.5071 13.9934C26.5591 13.0449 26.559 11.5021 27.5069 10.5543C28.4571 9.60412 29.9955 9.60396 30.9459 10.5543C31.8961 11.5045 31.8963 13.043 30.9459 13.9932Z" fill="#EA231C"/>
<path d="M41.2612 0.237418C41.102 0.078307 40.8848 -0.00793544 40.6589 0.000575328C40.4757 0.00714078 36.1121 0.182544 30.925 2.01593C26.7685 3.48351 23.3039 5.5847 20.6276 8.26113C20.0278 8.86086 19.4443 9.49681 18.8859 10.1575C16.2396 8.59978 14.119 9.08822 12.7785 9.80563C9.6918 11.4575 7.78125 15.9428 7.78125 19.1509C7.78149 19.4787 7.97902 19.7743 8.28185 19.8997C8.38211 19.9413 8.48748 19.9615 8.59188 19.9615C8.80287 19.9615 9.01012 19.8791 9.16518 19.7241C10.793 18.0963 12.8008 18.1981 13.4567 18.2843L13.7406 18.5682C13.1819 19.8975 12.7319 21.2193 12.4019 22.5049C12.2827 22.9702 12.3229 23.4625 12.5 23.9128C11.7196 24.2725 10.9667 24.8006 10.3111 25.4561C8.2247 27.5427 7.80103 32.6276 7.78401 32.843C7.76536 33.0794 7.85112 33.3122 8.01882 33.4799C8.17145 33.6325 8.3779 33.7173 8.59188 33.7173C8.61312 33.7173 8.63443 33.7165 8.65575 33.7148C8.8712 33.6979 13.9563 33.2742 16.0427 31.1878C16.698 30.5324 17.226 29.7796 17.5857 28.9994C18.0624 29.1868 18.5531 29.21 18.9944 29.0969C20.2794 28.7669 21.6011 28.3171 22.9306 27.7583L23.2144 28.0422C23.3006 28.6982 23.4024 30.706 21.7747 32.3336C21.5429 32.5655 21.4735 32.9141 21.599 33.2169C21.7244 33.5198 22.0199 33.7173 22.3478 33.7173C25.556 33.7173 30.0411 31.8067 31.693 28.7201C32.4105 27.3797 32.8989 25.2591 31.3412 22.6127C32.0015 22.0546 32.6376 21.471 33.2375 20.871C35.914 18.1946 38.0151 14.73 39.4827 10.5739C41.3161 5.38652 41.4914 1.02284 41.498 0.839656C41.5061 0.614729 41.4203 0.39661 41.2612 0.237418ZM9.59348 17.4075C10.097 14.9708 11.5595 12.2969 13.5437 11.2349C14.8697 10.5253 16.319 10.5949 17.86 11.4384C16.5472 13.165 15.4058 15.0252 14.4545 16.9896C14.4424 16.9822 14.2965 16.7987 14.0255 16.7376C13.914 16.7124 11.7694 16.2511 9.59348 17.4075ZM14.8964 30.0414C13.7819 31.1559 11.1675 31.7437 9.51502 31.9837C9.7551 30.3312 10.343 27.7168 11.4574 26.6024C12.0815 25.9783 12.8052 25.5051 13.5326 25.2386L16.2603 27.9662C15.9937 28.6936 15.5206 29.4173 14.8964 30.0414ZM18.5917 27.5265C18.3571 27.5866 18.0854 27.4984 17.8835 27.2967C16.8348 26.2481 16.4246 25.8379 16.2959 25.7093C16.0599 25.4732 15.4811 24.8944 14.2026 23.6159C14.0004 23.4133 13.9122 23.1417 13.9721 22.9075C14.2318 21.8964 14.5713 20.8591 14.9842 19.8118L21.687 26.5146C20.6396 26.9276 19.6024 27.2671 18.5917 27.5265ZM30.264 27.9551C29.202 29.9393 26.5281 31.4018 24.0915 31.9053C24.8684 30.4433 25.0396 28.5822 24.7558 27.4537C24.6899 27.1915 24.5189 27.0597 24.5093 27.0442C26.4735 26.0929 28.3336 24.9516 30.0604 23.6387C30.904 25.1799 30.9734 26.6294 30.264 27.9551ZM32.0914 19.7247C31.361 20.455 30.5746 21.1606 29.7538 21.8218C27.7808 23.4105 25.6091 24.7561 23.2923 25.8274L15.6715 18.2067C16.7427 15.8897 18.0884 13.7181 19.6769 11.7453C20.3386 10.9239 21.0441 10.1374 21.7742 9.40741C24.1754 7.00608 27.2745 5.09496 30.9878 3.7193L37.7795 10.5111C36.404 14.2243 34.4929 17.3233 32.0914 19.7247ZM38.3627 8.80153L32.6973 3.13611C35.784 2.17739 38.4692 1.8184 39.8096 1.68936C39.6804 3.02992 39.3214 5.71519 38.3627 8.80153Z" fill="#212121"/>
<path d="M19.4845 33.4795C19.1678 33.163 18.6545 33.1631 18.3381 33.4797L16.0459 35.7727C15.7294 36.0893 15.7295 36.6025 16.046 36.919C16.3627 37.2354 16.876 37.2354 17.1924 36.9188L19.4846 34.6258C19.8011 34.3092 19.801 33.7959 19.4845 33.4795Z" fill="#212121"/>
<path d="M8.02059 22.017C7.70415 21.7004 7.19099 21.7004 6.87431 22.0168L4.58126 24.3091C4.26466 24.6255 4.26458 25.1388 4.58102 25.4554C4.89738 25.7718 5.41054 25.7721 5.7273 25.4555L8.02034 23.1633C8.33694 22.8469 8.33702 22.3336 8.02059 22.017Z" fill="#212121"/>
<path d="M13.7533 34.6266C13.437 34.31 12.9236 34.31 12.607 34.6265L7.11637 40.1163C6.79977 40.4329 6.79977 40.9461 7.11629 41.2626C7.43264 41.5791 7.94596 41.5793 8.26257 41.2627L13.7532 35.7728C14.0698 35.4563 14.0698 34.9431 13.7533 34.6266Z" fill="#EA231C"/>
<path d="M7.26894 34.6266C6.9525 34.31 6.43918 34.31 6.12266 34.6265L0.631992 40.1163C0.315391 40.4329 0.315391 40.9461 0.631911 41.2626C0.948268 41.5791 1.46159 41.5793 1.77819 41.2627L7.26886 35.7728C7.58546 35.4563 7.58546 34.9431 7.26894 34.6266Z" fill="#EA231C"/>
<path d="M6.87351 27.7483C6.55707 27.4319 6.04375 27.4319 5.72723 27.7484L0.23738 33.2391C-0.07914 33.5557 -0.07914 34.0688 0.237461 34.3854C0.55398 34.7019 1.06722 34.7019 1.38374 34.3853L6.87359 28.8947C7.19011 28.5781 7.19011 28.0649 6.87351 27.7483Z" fill="#EA231C"/>
<path d="M25.2174 16.2855C24.9008 15.969 24.3877 15.969 24.071 16.2855L22.9249 17.4316C22.6084 17.7481 22.6084 18.2614 22.9249 18.578C23.2415 18.8945 23.7546 18.8945 24.0713 18.578L25.2174 17.4318C25.5339 17.1153 25.5339 16.6021 25.2174 16.2855Z" fill="#212121"/>
</svg>
