<svg width="89" height="77" viewBox="0 0 89 77" fill="none" xmlns="http://www.w3.org/2000/svg">
<path d="M73.0666 12.9793C73.2148 13.1025 90.6961 27.7349 60.7635 51.3819C60.7635 51.3819 67.6971 28.9568 52.2487 11.0723L50.4942 11.8013C50.4942 11.8013 62.1544 27.6341 56.1636 54.4842L48.2476 59.4056C48.2476 59.4056 37.6568 59.9399 31.1317 57.801C31.1317 57.801 25.034 36.2325 30.8112 22.1448L25.3546 25.8149C25.3546 25.8149 22.1455 45.7117 27.3866 56.0879C27.2961 56.0482 21.4975 53.5009 19.7947 50.5314C19.9058 50.7554 23.5182 57.938 29.0989 59.833C29.0989 59.833 32.5226 65.1818 33.6988 66.0375C33.6988 66.0375 21.2613 70.1515 16.4727 70.3273C21.07 70.3471 46.1631 69.7603 69.8566 55.4476C69.8566 55.4476 110.185 30.6295 73.0666 12.9793ZM34.8398 65.5033C34.8398 65.5033 32.8431 62.7931 32.5579 61.3669C32.5579 61.3669 38.335 63.149 40.4739 63.0783C40.4739 63.0783 35.6955 65.5033 34.8398 65.5033Z" fill="#E4221C"/>
<path d="M64.923 5.76332C62.7591 5.20922 43.0425 7.39718 35.7306 9.34127C25.2364 12.1316 15.9856 15.4364 9.45703 22.145C15.4866 9.0724 28.7083 0 44.049 0C51.6332 0 58.5995 2.43528 64.923 5.76332Z" fill="#E4221C"/>
<path d="M24.6445 71.1247C26.8282 71.5935 46.444 68.6343 53.674 66.405C64.0502 63.2053 73.1648 59.5404 79.4254 52.5801C73.9128 65.8793 61.0574 75.4636 45.7287 76.0651C38.1506 76.3624 31.0938 74.202 24.6445 71.1247Z" fill="#212121"/>
<path d="M15.7266 70.3174C15.7266 70.3174 15.9842 70.326 16.472 70.3277C16.1971 70.3381 15.9472 70.3346 15.7266 70.3174Z" fill="#E4221C"/>
<path d="M75.4416 35.1462C61.4159 49.5993 38.4996 46.5091 38.4996 46.5091C24.4265 45.7482 15.7255 37.048 15.7255 37.048C3.44488 55.0446 15.4705 63.2984 15.7221 63.4682C7.35115 59.9031 -1.12924 53.3255 0.123733 43.2362C1.38101 33.1168 10.219 26.3065 18.1858 21.1429C29.0868 14.0775 41.6415 9.77482 54.3987 7.58859C58.6058 6.86731 62.8559 6.37009 67.1189 6.14C68.6959 6.05555 70.4375 6.25978 71.9946 6.02539C52.3624 8.98461 37.905 17.3314 28.6732 24.4977C52.0462 32.3248 66.3683 20.0787 66.5372 19.9339C51.5309 38.1028 28.2441 27.5344 26.1483 26.5314C19.7051 31.919 16.471 36.1923 16.471 36.1923C46.9559 53.2014 75.4416 35.1462 75.4416 35.1462Z" fill="#212121"/>
</svg>
