<svg width="45" height="45" viewBox="0 0 45 45" fill="none" xmlns="http://www.w3.org/2000/svg">
<path fill-rule="evenodd" clip-rule="evenodd" d="M25.125 39.75H8.62501C8.21077 39.75 7.875 40.0858 7.875 40.5C7.875 40.9142 8.21077 41.25 8.62501 41.25H25.125C25.5392 41.25 25.875 40.9143 25.875 40.5C25.875 40.0858 25.5392 39.75 25.125 39.75Z" fill="#212121"/>
<path d="M3.37497 25.5V39.75C3.37868 42.6479 5.72704 44.9963 8.62499 45H25.125C26.5194 45.0016 27.8563 44.4443 28.8367 43.4527C28.8727 43.5023 28.899 43.5562 28.9372 43.6027C28.9556 43.63 28.9754 43.6563 28.9964 43.6815C29.7137 44.5167 30.7591 44.9981 31.86 45H40.1174C42.6037 44.9996 44.6204 42.9863 44.6249 40.5V31.125C44.6249 30.4288 44.3484 29.7611 43.8561 29.2688C43.3638 28.7766 42.6961 28.5 41.9999 28.5C41.6059 28.5022 41.2176 28.5944 40.8644 28.7693C40.8078 27.3651 39.6553 26.2545 38.2499 26.2501C37.8558 26.2523 37.4675 26.3444 37.1143 26.5193C37.087 25.6374 36.6141 24.8295 35.8586 24.3737C35.103 23.9179 34.1678 23.8764 33.3749 24.2634V10.5C33.3749 8.84319 32.0317 7.50005 30.3749 7.50005V5.25001C30.3713 2.35206 28.0229 0.00370194 25.125 0H8.62499C5.72704 0.00370194 3.37868 2.35206 3.37497 5.25001V7.49997C1.71814 7.49997 0.375 8.84311 0.375 10.5V22.4999C0.375 24.1568 1.71814 25.5 3.37497 25.5ZM25.125 43.5H8.62499C6.55494 43.4975 4.87744 41.82 4.875 39.75V25.5H28.0949V32.5237L25.2 31.0822C24.2301 30.5749 23.0656 30.6117 22.1298 31.1793C21.1939 31.747 20.6232 32.7627 20.625 33.8572C20.6212 34.842 21.0866 35.7697 21.8782 36.3555C23.5402 37.5768 25.1228 38.9025 26.6167 40.3245C27.1538 40.8692 27.6253 41.4752 28.0214 42.1297C27.312 42.9998 26.2477 43.5033 25.125 43.5ZM34.5 25.5C35.1213 25.5 35.625 26.0037 35.625 26.625V33C35.625 33.4143 35.9607 33.75 36.375 33.75C36.7892 33.75 37.125 33.4143 37.125 33V28.875C37.125 28.2537 37.6287 27.75 38.25 27.75C38.8714 27.75 39.375 28.2537 39.375 28.875V33C39.375 33.4143 39.7108 33.75 40.1251 33.75C40.5393 33.75 40.8751 33.4143 40.8751 33V31.125C40.8751 30.5037 41.3788 30 42.0001 30C42.6214 30 43.1251 30.5037 43.1251 31.125V40.5C43.1214 42.1582 41.7758 43.5004 40.1176 43.5H31.86C31.2192 43.5023 30.6079 43.2314 30.1792 42.7552C30.1665 42.7357 30.1514 42.7178 30.1372 42.6997C30.0382 42.5837 29.951 42.458 29.877 42.3247C29.2938 41.2004 28.5502 40.1668 27.6697 39.2564C26.1271 37.7868 24.4926 36.4168 22.776 35.1547C22.3641 34.8501 22.1222 34.3672 22.125 33.8549C22.1283 33.5175 22.2328 33.1888 22.425 32.9115C22.9122 32.2492 23.8104 32.0429 24.5378 32.4262L28.5127 34.407C28.7458 34.5231 29.0225 34.51 29.2436 34.3725C29.4647 34.2348 29.5985 33.9924 29.5973 33.732V20.625C29.5958 20.3249 29.7169 20.0372 29.9325 19.8285C30.2587 19.5091 30.7435 19.4144 31.1659 19.5876C31.5882 19.7608 31.867 20.1686 31.8751 20.625V33C31.8751 33.4142 32.2108 33.75 32.6251 33.75C33.0393 33.75 33.3751 33.4142 33.3751 33V26.6249C33.3749 26.0037 33.8786 25.5 34.5 25.5ZM24.0172 1.50002L23.4922 2.80725C23.2667 3.37757 22.7149 3.75162 22.1017 3.74999H11.6481C11.0343 3.75221 10.4819 3.37809 10.2561 2.80725L9.7326 1.50002H24.0172ZM4.875 5.25001C4.88085 3.37328 6.27559 1.79092 8.13678 1.54948L8.8628 3.36373C9.31503 4.50548 10.4202 5.25394 11.6483 5.25001H22.1018C23.3299 5.25394 24.4351 4.50555 24.8873 3.36373L25.6133 1.54948C27.4745 1.79085 28.8692 3.3732 28.8751 5.25001V7.49997H4.875V5.25001ZM1.87502 10.5C1.87502 9.6716 2.54663 9 3.37505 9H30.375C31.2035 9 31.8751 9.6716 31.8751 10.5V18.2678C30.8723 17.7749 29.6672 17.9731 28.8751 18.7613C28.3728 19.2508 28.0912 19.9236 28.0951 20.625V24H3.37497C2.54656 24 1.87495 23.3284 1.87495 22.5L1.87502 10.5Z" fill="#212121"/>
<path d="M6.37501 21.7499H9.37499C10.626 21.7555 11.7479 20.9809 12.1862 19.8092C12.6244 18.6374 12.286 17.3167 11.3384 16.4999C12.286 15.6832 12.6244 14.3625 12.1862 13.1907C11.7479 12.0189 10.6259 11.2444 9.37499 11.2499H6.37501C5.96077 11.2499 5.625 11.5857 5.625 11.9999V20.9999C5.625 21.4142 5.96077 21.7499 6.37501 21.7499ZM10.8749 18.75C10.8749 19.5784 10.2033 20.25 9.37491 20.25H7.12495V17.25H9.37491C10.2034 17.2499 10.8749 17.9215 10.8749 18.75ZM7.12495 12.7499H9.37491C10.2033 12.7499 10.8749 13.4215 10.8749 14.25C10.8749 15.0784 10.2033 15.75 9.37491 15.75H7.12495V12.7499Z" fill="#EA231C"/>
<path fill-rule="evenodd" clip-rule="evenodd" d="M14.625 21.75H19.125C19.5393 21.75 19.875 21.4143 19.875 21C19.875 20.5858 19.5393 20.25 19.125 20.25H15.375V17.25H19.125C19.5393 17.25 19.875 16.9143 19.875 16.5C19.875 16.0858 19.5393 15.75 19.125 15.75H15.375V12.75H19.125C19.5393 12.75 19.875 12.4143 19.875 12C19.875 11.5858 19.5393 11.25 19.125 11.25H14.625C14.2108 11.25 13.875 11.5858 13.875 12V21C13.875 21.4143 14.2108 21.75 14.625 21.75Z" fill="#EA231C"/>
<path fill-rule="evenodd" clip-rule="evenodd" d="M22.125 12.75H24.375V21C24.375 21.4143 24.7107 21.75 25.125 21.75C25.5392 21.75 25.875 21.4143 25.875 21V12.75H28.125C28.5392 12.75 28.875 12.4143 28.875 12C28.875 11.5858 28.5392 11.25 28.125 11.25H22.125C21.7108 11.25 21.375 11.5858 21.375 12C21.375 12.4143 21.7108 12.75 22.125 12.75Z" fill="#EA231C"/>
</svg>
