<svg width="617" height="242" viewBox="0 0 617 242" fill="none" xmlns="http://www.w3.org/2000/svg">
<path d="M645.321 166.632L662.872 208.441L609.216 194.064L645.321 166.632Z" fill="#333940"/>
<path d="M618.473 187.155L618.47 187.154L600.918 145.345L600.922 145.343L654.575 159.719L654.577 159.723L618.473 187.155Z" fill="#EA231C"/>
<path d="M500.894 276.372L500.897 276.37L536.999 248.937L554.55 290.746L554.549 290.749L554.55 290.746L554.556 290.748L554.552 290.75L525.084 313.141L518.448 318.182L572.101 332.558L572.107 332.56L608.211 305.128L625.76 346.936L625.766 346.938L625.761 346.943L643.312 388.752L589.663 374.376L589.66 374.376L589.656 374.378L589.654 374.374L572.102 332.565L536.002 359.995L518.452 318.19L518.448 318.195L518.443 318.187L518.442 318.18L513.541 306.508L500.894 276.372Z" fill="#E94B64"/>
<path d="M591.657 152.249L591.664 152.251L591.66 152.254L591.657 152.249Z" fill="#212121"/>
<path d="M573.107 221.499L626.76 235.875L626.766 235.876L626.762 235.879L590.657 263.314L590.653 263.316L590.651 263.312L573.103 221.501L573.101 221.497L573.107 221.499Z" fill="#E94B64"/>
<path d="M609.208 194.067L609.21 194.062L609.215 194.064L609.208 194.067Z" fill="#212121"/>
<path d="M609.211 194.067L609.215 194.065L662.871 208.442L662.87 208.445L626.773 235.875L609.223 194.07L573.122 221.503L626.769 235.878L626.763 235.876L573.11 221.5L609.211 194.067Z" fill="#E94B64"/>
<path d="M609.227 194.071L626.776 235.876L626.778 235.88L626.772 235.879L573.125 221.504L609.227 194.071Z" fill="#333940"/>
<path style="mix-blend-mode:multiply" opacity="0.5" d="M500.907 276.37L507.54 271.328L537.008 248.937L554.559 290.746L500.907 276.37Z" fill="url(#paint0_linear_15_22572)"/>
<path d="M565.874 215.462L576.408 240.559L576.407 240.562L576.404 240.561L544.2 231.932L565.874 215.462Z" fill="#EA231C"/>
<path opacity="0.1" d="M39.6441 174.948L31.0974 200.789L31.0948 200.791L31.0931 200.788L12.4829 173.125L39.6441 174.948Z" fill="#EA231C"/>
<defs>
<linearGradient id="paint0_linear_15_22572" x1="571.892" y1="260.016" x2="505.655" y2="284.944" gradientUnits="userSpaceOnUse">
<stop offset="0.37" stop-color="#3B5276"/>
<stop offset="0.4" stop-color="#637592"/>
<stop offset="0.43" stop-color="#8795AB"/>
<stop offset="0.47" stop-color="#A8B2C2"/>
<stop offset="0.51" stop-color="#C3CAD5"/>
<stop offset="0.55" stop-color="#D9DDE4"/>
<stop offset="0.6" stop-color="#EAECF0"/>
<stop offset="0.66" stop-color="#F6F7F8"/>
<stop offset="0.75" stop-color="#FDFDFD"/>
<stop offset="1" stop-color="white"/>
</linearGradient>
</defs>
</svg>
