<svg width="46" height="42" viewBox="0 0 46 42" fill="none" xmlns="http://www.w3.org/2000/svg">
<path d="M41.1666 1H4.65154C2.6377 1 1 2.6377 1 4.65154V37.5151C1 39.529 2.6377 41.1667 4.65154 41.1667H41.1667C43.1804 41.1667 44.8181 39.529 44.8181 37.5151V4.65154C44.8181 2.6377 43.1804 1 41.1666 1ZM42.9924 37.5151C42.9924 38.522 42.1735 39.3409 41.1667 39.3409H4.65154C3.64466 39.3409 2.82581 38.522 2.82581 37.5151V4.65154C2.82581 3.64466 3.64466 2.82581 4.65154 2.82581H41.1667C42.1735 2.82581 42.9924 3.64466 42.9924 4.65154V37.5151Z" fill="#212121" stroke="#FFF2F2" stroke-width="0.5"/>
<path d="M7.38831 4.65137H6.47541C5.9715 4.65137 5.5625 5.05942 5.5625 5.56427C5.5625 6.06912 5.9715 6.47718 6.47541 6.47718H7.38831C7.89222 6.47718 8.30122 6.06912 8.30122 5.56427C8.30113 5.05942 7.89222 4.65137 7.38831 4.65137Z" fill="#212121"/>
<path d="M11.9547 4.65137H11.0418C10.5379 4.65137 10.1289 5.05942 10.1289 5.56427C10.1289 6.06912 10.5379 6.47718 11.0418 6.47718H11.9547C12.4586 6.47718 12.8676 6.06912 12.8676 5.56427C12.8676 5.05942 12.4586 4.65137 11.9547 4.65137Z" fill="#212121"/>
<path d="M39.3414 4.65137H38.4285C37.9237 4.65137 37.5156 5.05942 37.5156 5.56427C37.5156 6.06912 37.9237 6.47718 38.4285 6.47718H39.3414C39.8463 6.47718 40.2543 6.06912 40.2543 5.56427C40.2543 5.05942 39.8463 4.65137 39.3414 4.65137Z" fill="#212121"/>
<path d="M40.2546 8.30322H5.56525C5.06134 8.30322 4.65234 8.71128 4.65234 9.21613C4.65234 9.72098 5.06134 10.129 5.56525 10.129H40.2546C40.7594 10.129 41.1675 9.72098 41.1675 9.21613C41.1675 8.71128 40.7594 8.30322 40.2546 8.30322Z" fill="#212121" stroke="#FFF2F2" stroke-width="0.5"/>
<path d="M31.1238 18.3447C30.619 18.3447 30.2109 18.7528 30.2109 19.2576V28.3864C30.2109 28.8913 30.619 29.2993 31.1238 29.2993C31.6287 29.2993 32.0367 28.8913 32.0367 28.3864V19.2576C32.0367 18.7528 31.6287 18.3447 31.1238 18.3447Z" fill="#EA231C"/>
<path d="M24.7375 18.3447H21.9988C21.4949 18.3447 21.0859 18.7528 21.0859 19.2576V28.3864C21.0859 28.8913 21.4949 29.2993 21.9988 29.2993C22.5028 29.2993 22.9117 28.8912 22.9117 28.3864V25.6477H24.7375C26.7467 25.6477 27.4761 24.01 27.4761 22.9091V21.0834C27.4761 19.0741 25.8384 18.3447 24.7375 18.3447ZM25.6504 22.8981C25.6394 23.3199 25.4733 23.822 24.7375 23.822H22.9117V20.1705H24.7265C25.1483 20.1814 25.6504 20.3476 25.6504 21.0834V22.8981Z" fill="#EA231C"/>
<path d="M32.9512 18.3448H29.2996C28.7948 18.3448 28.3867 18.7529 28.3867 19.2578C28.3867 19.7626 28.7948 20.1707 29.2996 20.1707H32.9512C33.456 20.1707 33.8641 19.7626 33.8641 19.2578C33.8641 18.7529 33.456 18.3448 32.9512 18.3448Z" fill="#EA231C"/>
<path d="M32.9512 27.4735H29.2996C28.7948 27.4735 28.3867 27.8816 28.3867 28.3864C28.3867 28.8913 28.7948 29.2993 29.2996 29.2993H32.9512C33.456 29.2993 33.8641 28.8913 33.8641 28.3864C33.8641 27.8816 33.456 27.4735 32.9512 27.4735Z" fill="#EA231C"/>
<path d="M15.6047 18.3448C13.5908 18.3448 11.9531 19.9826 11.9531 21.9964V28.3866C11.9531 28.8914 12.3621 29.2995 12.866 29.2995C13.3699 29.2995 13.7789 28.8914 13.7789 28.3866V21.9964C13.7789 20.9895 14.5978 20.1707 15.6047 20.1707C16.6115 20.1707 17.4304 20.9895 17.4304 21.9964V28.3866C17.4304 28.8914 17.8394 29.2995 18.3433 29.2995C18.8472 29.2995 19.2562 28.8914 19.2562 28.3866V21.9964C19.2561 19.9826 17.6184 18.3448 15.6047 18.3448Z" fill="#EA231C"/>
<path d="M18.3433 23.8219H12.866C12.3621 23.8219 11.9531 24.23 11.9531 24.7348C11.9531 25.2397 12.3621 25.6477 12.866 25.6477H18.3433C18.8472 25.6477 19.2562 25.2397 19.2562 24.7348C19.2561 24.23 18.8472 23.8219 18.3433 23.8219Z" fill="#EA231C"/>
</svg>
