<svg width="318" height="197" viewBox="0 0 318 197" fill="none" xmlns="http://www.w3.org/2000/svg">
<path opacity="0.3" d="M6.12722 187.287L10.1316 196.388L10.1326 196.389L10.1331 196.388L15.9422 185.682L6.12722 187.287Z" fill="#EA231C"/>
<path opacity="0.1" d="M297.967 5.78825L283.502 16.7809L283.501 16.7829L283.503 16.7835L305 22.5435L297.967 5.78825Z" fill="#EA231C"/>
<g style="mix-blend-mode:overlay">
<path d="M292.341 70.3386C292.341 68.147 290.572 66.3779 288.354 66.3779H163.488C161.296 66.3779 159.527 68.147 159.527 70.3386C159.527 72.5301 161.296 74.2992 163.488 74.2992H255.375C257.567 74.2992 259.336 76.0947 259.336 78.2863C259.336 80.4779 257.567 82.247 255.375 82.247H194.988C192.797 82.247 191.028 84.016 191.028 86.2076C191.028 88.3992 192.797 90.1947 194.988 90.1947H228.205C230.397 90.1947 232.166 91.9638 232.166 94.1553C232.166 96.3469 230.397 98.116 228.205 98.116H216.059C213.868 98.116 212.072 99.9115 212.072 102.103C212.072 104.295 213.868 106.064 216.059 106.064H281.885C284.077 106.064 285.846 104.295 285.846 102.103C285.846 99.9115 284.077 98.116 281.885 98.116H260.286C258.095 98.116 256.326 96.3469 256.326 94.1553C256.326 91.9638 258.095 90.1947 260.286 90.1947H313.914C316.105 90.1947 317.901 88.3992 317.901 86.2076C317.901 84.016 316.105 82.247 313.914 82.247H275.759C273.568 82.247 271.772 80.4779 271.772 78.2863C271.772 76.0947 273.568 74.2992 275.759 74.2992H288.354C290.572 74.2992 292.341 72.5301 292.341 70.3386Z" fill="white"/>
</g>
<g style="mix-blend-mode:overlay">
<path d="M132.196 118.579C132.196 116.387 130.427 114.618 128.235 114.618H42.2361C40.0445 114.618 38.2754 116.387 38.2754 118.579C38.2754 120.77 40.0445 122.539 42.2361 122.539H70.9376C73.1292 122.539 74.8983 124.335 74.8983 126.527C74.8983 128.718 73.1292 130.487 70.9376 130.487H4.7419C2.55034 130.487 0.78125 132.256 0.78125 134.448C0.78125 136.639 2.55034 138.435 4.7419 138.435H52.745C54.9366 138.435 56.7057 140.204 56.7057 142.396C56.7057 144.587 54.9366 146.356 52.745 146.356H40.599C38.4075 146.356 36.6384 148.152 36.6384 150.343C36.6384 152.535 38.4075 154.304 40.599 154.304H108.537C110.729 154.304 112.498 152.535 112.498 150.343C112.498 148.152 110.729 146.356 108.537 146.356H86.9387C84.7471 146.356 82.978 144.587 82.978 142.396C82.978 140.204 84.7471 138.435 86.9387 138.435H160.66C162.851 138.435 164.62 136.639 164.62 134.448C164.62 132.256 162.851 130.487 160.66 130.487H90.7937C88.6021 130.487 86.833 128.718 86.833 126.527C86.833 124.335 88.6021 122.539 90.7937 122.539H128.235C130.427 122.539 132.196 120.77 132.196 118.579Z" fill="white"/>
</g>
<g style="mix-blend-mode:multiply" opacity="0.6">
<path d="M288.2 164.919C287.883 167.11 287.302 169.249 286.51 171.256L292.794 176.88L290.418 180.946L282.417 178.332C281.044 180.048 279.486 181.606 277.77 182.979L280.41 190.98L276.318 193.33L270.694 187.072C268.687 187.864 266.574 188.445 264.356 188.762L262.614 197H257.914L256.171 188.762C253.98 188.445 251.841 187.864 249.834 187.072L244.21 193.33L240.144 190.98L242.758 182.979C241.041 181.606 239.484 180.048 238.111 178.332L230.11 180.946L227.76 176.88L234.018 171.256C233.226 169.249 232.645 167.11 232.328 164.919L224.09 163.176V158.449L232.328 156.733C232.645 154.515 233.226 152.403 234.018 150.396L227.76 144.772L230.11 140.679L238.111 143.293C239.484 141.577 241.041 140.019 242.758 138.673L240.144 130.672L244.21 128.296L249.834 134.58C251.841 133.761 253.98 133.207 256.171 132.89L257.914 124.625H262.614L264.356 132.89C266.574 133.207 268.687 133.761 270.694 134.58L276.318 128.296L280.41 130.672L277.77 138.673C279.486 140.019 281.044 141.577 282.417 143.293L290.418 140.679L292.794 144.772L286.51 150.396C287.302 152.403 287.883 154.515 288.2 156.733L296.464 158.449V163.176L288.2 164.919ZM260.237 140.257C248.884 140.257 239.668 149.472 239.668 160.826C239.668 172.18 248.884 181.395 260.237 181.395C271.618 181.395 280.833 172.18 280.833 160.826C280.833 149.472 271.618 140.257 260.237 140.257Z" fill="#C5CAE9"/>
<path d="M288.2 164.919C287.883 167.11 287.302 169.249 286.51 171.256L292.794 176.88L290.418 180.946L282.417 178.332C281.044 180.048 279.486 181.606 277.77 182.979L280.41 190.98L276.318 193.33L270.694 187.072C268.687 187.864 266.574 188.445 264.356 188.762L262.614 197H257.914L256.171 188.762C253.98 188.445 251.841 187.864 249.834 187.072L244.21 193.33L240.144 190.98L242.758 182.979C241.041 181.606 239.484 180.048 238.111 178.332L230.11 180.946L227.76 176.88L234.018 171.256C233.226 169.249 232.645 167.11 232.328 164.919L224.09 163.176V158.449L232.328 156.733C232.645 154.515 233.226 152.403 234.018 150.396L227.76 144.772L230.11 140.679L238.111 143.293C239.484 141.577 241.041 140.019 242.758 138.673L240.144 130.672L244.21 128.296L249.834 134.58C251.841 133.761 253.98 133.207 256.171 132.89L257.914 124.625H262.614L264.356 132.89C266.574 133.207 268.687 133.761 270.694 134.58L276.318 128.296L280.41 130.672L277.77 138.673C279.486 140.019 281.044 141.577 282.417 143.293L290.418 140.679L292.794 144.772L286.51 150.396C287.302 152.403 287.883 154.515 288.2 156.733L296.464 158.449V163.176L288.2 164.919ZM260.237 140.257C248.884 140.257 239.668 149.472 239.668 160.826C239.668 172.18 248.884 181.395 260.237 181.395C271.618 181.395 280.833 172.18 280.833 160.826C280.833 149.472 271.618 140.257 260.237 140.257Z" stroke="#231F20"/>
<path d="M269.266 160.826C269.266 165.79 265.226 169.804 260.262 169.804C255.298 169.804 251.258 165.79 251.258 160.826C251.258 155.862 255.298 151.822 260.262 151.822C265.226 151.822 269.266 155.862 269.266 160.826Z" fill="#C5CAE9"/>
<path d="M269.266 160.826C269.266 165.79 265.226 169.804 260.262 169.804C255.298 169.804 251.258 165.79 251.258 160.826C251.258 155.862 255.298 151.822 260.262 151.822C265.226 151.822 269.266 155.862 269.266 160.826Z" stroke="#231F20"/>
</g>
<path d="M112.632 174.979H60.668V125.365H112.632V174.979Z" fill="#242B5B"/>
<path d="M112.632 174.979H60.668V125.365H112.632V174.979Z" stroke="#231F20"/>
<path d="M119.097 129.589H54.1953C54.1953 124.942 57.9711 121.167 62.6447 121.167H110.674C115.321 121.167 119.097 124.942 119.097 129.589Z" fill="url(#paint0_linear_2001_7)"/>
<path d="M119.097 129.589H54.1953C54.1953 124.942 57.9711 121.167 62.6447 121.167H110.674C115.321 121.167 119.097 124.942 119.097 129.589Z" stroke="#231F20"/>
<path d="M119.097 142H54.1953V133.55H119.097V142Z" fill="url(#paint1_linear_2001_7)"/>
<path d="M119.097 142H54.1953V133.55H119.097V142Z" stroke="#231F20"/>
<path d="M119.097 154.41H54.1953V145.96H119.097V154.41Z" fill="url(#paint2_linear_2001_7)"/>
<path d="M119.097 154.41H54.1953V145.96H119.097V154.41Z" stroke="#231F20"/>
<path d="M119.097 166.793H54.1953V158.37H119.097V166.793Z" fill="url(#paint3_linear_2001_7)"/>
<path d="M119.097 166.793H54.1953V158.37H119.097V166.793Z" stroke="#231F20"/>
<path d="M110.674 179.203H62.6447C57.9711 179.203 54.1953 175.427 54.1953 170.754H119.097C119.097 175.427 115.321 179.203 110.674 179.203Z" fill="url(#paint4_linear_2001_7)"/>
<path d="M110.674 179.203H62.6447C57.9711 179.203 54.1953 175.427 54.1953 170.754H119.097C119.097 175.427 115.321 179.203 110.674 179.203Z" stroke="#231F20"/>
<path d="M110.674 179.203H62.6447C57.9711 179.203 54.1953 175.427 54.1953 170.754H119.097C119.097 175.427 115.321 179.203 110.674 179.203Z" fill="url(#paint5_linear_2001_7)"/>
<path d="M110.674 179.203H62.6447C57.9711 179.203 54.1953 175.427 54.1953 170.754H119.097C119.097 175.427 115.321 179.203 110.674 179.203Z" stroke="#231F20"/>
<path d="M66.7401 125.365C66.7401 126.131 66.1328 126.712 65.3935 126.712C64.6542 126.712 64.0469 126.131 64.0469 125.365C64.0469 124.626 64.6542 124.019 65.3935 124.019C66.1328 124.019 66.7401 124.626 66.7401 125.365Z" fill="#242B5B"/>
<path d="M66.7401 125.365C66.7401 126.131 66.1328 126.712 65.3935 126.712C64.6542 126.712 64.0469 126.131 64.0469 125.365C64.0469 124.626 64.6542 124.019 65.3935 124.019C66.1328 124.019 66.7401 124.626 66.7401 125.365Z" stroke="#231F20"/>
<path d="M72.8143 125.365C72.8143 126.131 72.207 126.712 71.4677 126.712C70.7284 126.712 70.1211 126.131 70.1211 125.365C70.1211 124.626 70.7284 124.019 71.4677 124.019C72.207 124.019 72.8143 124.626 72.8143 125.365Z" fill="#242B5B"/>
<path d="M72.8143 125.365C72.8143 126.131 72.207 126.712 71.4677 126.712C70.7284 126.712 70.1211 126.131 70.1211 125.365C70.1211 124.626 70.7284 124.019 71.4677 124.019C72.207 124.019 72.8143 124.626 72.8143 125.365Z" stroke="#231F20"/>
<path d="M78.8846 125.365C78.8846 126.131 78.2774 126.712 77.538 126.712C76.7987 126.712 76.1914 126.131 76.1914 125.365C76.1914 124.626 76.7987 124.019 77.538 124.019C78.2774 124.019 78.8846 124.626 78.8846 125.365Z" fill="#242B5B"/>
<path d="M78.8846 125.365C78.8846 126.131 78.2774 126.712 77.538 126.712C76.7987 126.712 76.1914 126.131 76.1914 125.365C76.1914 124.626 76.7987 124.019 77.538 124.019C78.2774 124.019 78.8846 124.626 78.8846 125.365Z" stroke="#231F20"/>
<g style="mix-blend-mode:screen" opacity="0.3">
<path d="M119.091 129.589C119.091 124.942 115.316 121.167 110.669 121.167H76.9766L85.426 129.589H119.091Z" fill="url(#paint6_linear_2001_7)"/>
<path d="M119.091 129.589C119.091 124.942 115.316 121.167 110.669 121.167H76.9766L85.426 129.589H119.091Z" stroke="#231F20"/>
<path d="M119.092 133.55H89.3867L97.8097 142H119.092V133.55Z" fill="url(#paint7_linear_2001_7)"/>
<path d="M119.092 133.55H89.3867L97.8097 142H119.092V133.55Z" stroke="#231F20"/>
<path d="M119.091 145.96H101.77L110.219 154.41H119.091V145.96Z" fill="url(#paint8_linear_2001_7)"/>
<path d="M119.091 145.96H101.77L110.219 154.41H119.091V145.96Z" stroke="#231F20"/>
<path d="M119.091 158.37H114.18L119.091 163.281V158.37Z" fill="url(#paint9_linear_2001_7)"/>
<path d="M119.091 158.37H114.18L119.091 163.281V158.37Z" stroke="#231F20"/>
</g>
<path d="M187.823 187.917H140.348L147.002 155.281H181.169L187.823 187.917Z" fill="#7986CB"/>
<path d="M187.823 187.917H140.348L147.002 155.281H181.169L187.823 187.917Z" stroke="#231F20"/>
<g style="mix-blend-mode:multiply" opacity="0.6">
<path d="M184.26 170.173H143.914L147.003 155.281H181.171L184.26 170.173Z" fill="#7986CB"/>
<path d="M184.26 170.173H143.914L147.003 155.281H181.171L184.26 170.173Z" stroke="#231F20"/>
</g>
<path d="M204.802 192.67H123.371C123.371 188.577 126.672 185.25 130.764 185.25H197.409C201.502 185.25 204.802 188.577 204.802 192.67Z" fill="url(#paint10_linear_2001_7)"/>
<path d="M204.802 192.67H123.371C123.371 188.577 126.672 185.25 130.764 185.25H197.409C201.502 185.25 204.802 188.577 204.802 192.67Z" stroke="#231F20"/>
<path d="M236.542 166.82H91.6348C87.4365 166.82 84.0039 163.414 84.0039 159.189V69.7837C84.0039 65.559 87.4365 62.1528 91.6348 62.1528H236.542C240.74 62.1528 244.173 65.559 244.173 69.7837V159.189C244.173 163.414 240.74 166.82 236.542 166.82Z" fill="url(#paint11_linear_2001_7)"/>
<path d="M239.844 149.499H88.3359V69.6255H239.844V149.499Z" fill="#0078C0"/>
<path d="M239.844 149.499H88.3359V69.6255H239.844V149.499Z" stroke="#231F20"/>
<path d="M239.844 149.499H88.3359V69.6255H239.844V149.499Z" fill="url(#paint12_linear_2001_7)"/>
<path d="M239.844 149.499H88.3359V69.6255H239.844V149.499Z" stroke="#231F20"/>
<g style="mix-blend-mode:multiply" opacity="0.6">
<path d="M239.84 75.0115H88.332V69.625H239.84V75.0115Z" fill="#7986CB"/>
<path d="M239.84 75.0115H88.332V69.625H239.84V75.0115Z" stroke="#231F20"/>
</g>
<path d="M167.467 158.159C167.467 160.007 165.935 161.512 164.087 161.512C162.238 161.512 160.707 160.007 160.707 158.159C160.707 156.311 162.238 154.779 164.087 154.779C165.935 154.779 167.467 156.311 167.467 158.159Z" fill="white"/>
<g style="mix-blend-mode:overlay" opacity="0.2">
<path d="M239.848 69.625H133.781L213.654 149.498H239.848V69.625Z" fill="white"/>
<path d="M239.848 69.625H133.781L213.654 149.498H239.848V69.625Z" stroke="#231F20"/>
</g>
<path d="M149.786 100.228H51.5617C49.9774 100.228 48.6836 98.9606 48.6836 97.3763V53.8356C48.6836 52.2513 49.9774 50.9839 51.5617 50.9839H149.786C151.37 50.9839 152.664 52.2513 152.664 53.8356V97.3763C152.664 98.9606 151.37 100.228 149.786 100.228Z" fill="url(#paint13_linear_2001_7)"/>
<path d="M149.786 100.228H51.5617C49.9774 100.228 48.6836 98.9606 48.6836 97.3763V53.8356C48.6836 52.2513 49.9774 50.9839 51.5617 50.9839H149.786C151.37 50.9839 152.664 52.2513 152.664 53.8356V97.3763C152.664 98.9606 151.37 100.228 149.786 100.228Z" stroke="#231F20"/>
<path d="M145.745 61.1763H55.6004C53.7521 61.1763 52.2734 59.6977 52.2734 57.8758C52.2734 56.0275 53.7521 54.5488 55.6004 54.5488H145.745C147.593 54.5488 149.072 56.0275 149.072 57.8758C149.072 59.6977 147.593 61.1763 145.745 61.1763Z" fill="url(#paint14_linear_2001_7)"/>
<path d="M145.745 61.1763H55.6004C53.7521 61.1763 52.2734 59.6977 52.2734 57.8758C52.2734 56.0275 53.7521 54.5488 55.6004 54.5488H145.745C147.593 54.5488 149.072 56.0275 149.072 57.8758C149.072 59.6977 147.593 61.1763 145.745 61.1763Z" stroke="#231F20"/>
<g style="mix-blend-mode:multiply" opacity="0.6">
<path d="M55.6004 55.7898H145.745C147.356 55.7898 148.702 56.9516 149.019 58.4831C149.054 58.2894 149.072 58.087 149.072 57.8758C149.072 56.0275 147.593 54.5488 145.745 54.5488H55.6004C53.7521 54.5488 52.2734 56.0275 52.2734 57.8758C52.2734 58.087 52.291 58.2894 52.3262 58.4831C52.6167 56.9516 53.9633 55.7898 55.6004 55.7898Z" fill="#FB8C00"/>
<path d="M55.6004 55.7898H145.745C147.356 55.7898 148.702 56.9516 149.019 58.4831C149.054 58.2894 149.072 58.087 149.072 57.8758C149.072 56.0275 147.593 54.5488 145.745 54.5488H55.6004C53.7521 54.5488 52.2734 56.0275 52.2734 57.8758C52.2734 58.087 52.291 58.2894 52.3262 58.4831C52.6167 56.9516 53.9633 55.7898 55.6004 55.7898Z" stroke="#231F20"/>
</g>
<path d="M56.737 57.8759C56.737 58.3775 56.3146 58.8264 55.7865 58.8264C55.2584 58.8264 54.8359 58.3775 54.8359 57.8759C54.8359 57.3478 55.2584 56.9253 55.7865 56.9253C56.3146 56.9253 56.737 57.3478 56.737 57.8759Z" fill="white"/>
<path d="M56.737 57.8759C56.737 58.3775 56.3146 58.8264 55.7865 58.8264C55.2584 58.8264 54.8359 58.3775 54.8359 57.8759C54.8359 57.3478 55.2584 56.9253 55.7865 56.9253C56.3146 56.9253 56.737 57.3478 56.737 57.8759Z" stroke="#231F20"/>
<path d="M61.3552 57.8759C61.3552 58.3775 60.9327 58.8264 60.431 58.8264C59.9029 58.8264 59.4805 58.3775 59.4805 57.8759C59.4805 57.3478 59.9029 56.9253 60.431 56.9253C60.9327 56.9253 61.3552 57.3478 61.3552 57.8759Z" fill="white"/>
<path d="M61.3552 57.8759C61.3552 58.3775 60.9327 58.8264 60.431 58.8264C59.9029 58.8264 59.4805 58.3775 59.4805 57.8759C59.4805 57.3478 59.9029 56.9253 60.431 56.9253C60.9327 56.9253 61.3552 57.3478 61.3552 57.8759Z" stroke="#231F20"/>
<path d="M66.0027 57.8759C66.0027 58.3775 65.5802 58.8264 65.0521 58.8264C64.524 58.8264 64.1016 58.3775 64.1016 57.8759C64.1016 57.3478 64.524 56.9253 65.0521 56.9253C65.5802 56.9253 66.0027 57.3478 66.0027 57.8759Z" fill="white"/>
<path d="M66.0027 57.8759C66.0027 58.3775 65.5802 58.8264 65.0521 58.8264C64.524 58.8264 64.1016 58.3775 64.1016 57.8759C64.1016 57.3478 64.524 56.9253 65.0521 56.9253C65.5802 56.9253 66.0027 57.3478 66.0027 57.8759Z" stroke="#231F20"/>
<path d="M143.456 77.5998H97.3807C96.6678 77.5998 96.1133 77.0189 96.1133 76.306C96.1133 75.5931 96.6678 75.0386 97.3807 75.0386H143.456C144.169 75.0386 144.75 75.5931 144.75 76.306C144.75 77.0189 144.169 77.5998 143.456 77.5998Z" fill="#C5CAE9"/>
<path d="M143.456 77.5998H97.3807C96.6678 77.5998 96.1133 77.0189 96.1133 76.306C96.1133 75.5931 96.6678 75.0386 97.3807 75.0386H143.456C144.169 75.0386 144.75 75.5931 144.75 76.306C144.75 77.0189 144.169 77.5998 143.456 77.5998Z" stroke="#231F20"/>
<path d="M143.456 83.5407H97.3807C96.6678 83.5407 96.1133 82.9598 96.1133 82.2733C96.1133 81.5604 96.6678 80.9795 97.3807 80.9795H143.456C144.169 80.9795 144.75 81.5604 144.75 82.2733C144.75 82.9598 144.169 83.5407 143.456 83.5407Z" fill="#C5CAE9"/>
<path d="M143.456 83.5407H97.3807C96.6678 83.5407 96.1133 82.9598 96.1133 82.2733C96.1133 81.5604 96.6678 80.9795 97.3807 80.9795H143.456C144.169 80.9795 144.75 81.5604 144.75 82.2733C144.75 82.9598 144.169 83.5407 143.456 83.5407Z" stroke="#231F20"/>
<path d="M143.456 89.508H97.3807C96.6678 89.508 96.1133 88.9271 96.1133 88.2142C96.1133 87.5013 96.6678 86.9468 97.3807 86.9468H143.456C144.169 86.9468 144.75 87.5013 144.75 88.2142C144.75 88.9271 144.169 89.508 143.456 89.508Z" fill="#C5CAE9"/>
<path d="M143.456 89.508H97.3807C96.6678 89.508 96.1133 88.9271 96.1133 88.2142C96.1133 87.5013 96.6678 86.9468 97.3807 86.9468H143.456C144.169 86.9468 144.75 87.5013 144.75 88.2142C144.75 88.9271 144.169 89.508 143.456 89.508Z" stroke="#231F20"/>
<path fill-rule="evenodd" clip-rule="evenodd" d="M158.547 25.979C158.362 27.3784 157.992 28.725 157.491 30.0189L161.478 33.5835L159.973 36.1975L154.877 34.534C154.005 35.6166 153.002 36.62 151.919 37.4913L153.583 42.5873L150.995 44.0924L147.404 40.0789C146.11 40.607 144.764 40.9767 143.364 41.1615L142.255 46.416H139.245L138.163 41.1615C136.737 40.9767 135.39 40.607 134.123 40.0789L130.532 44.0924L127.918 42.5873L129.608 37.4913C128.499 36.62 127.522 35.6166 126.65 34.534L121.554 36.1975L120.049 33.5835L124.036 30.0189C123.535 28.725 123.165 27.3784 122.954 25.979L117.699 24.87V21.8599L122.954 20.7509C123.165 19.3515 123.535 18.0049 124.036 16.7375L120.049 13.1465L121.554 10.5324L126.65 12.2223C127.522 11.1133 128.499 10.1364 129.608 9.26504L127.918 4.1426L130.532 2.66395L134.123 6.65101C135.39 6.14933 136.737 5.77967 138.163 5.56843L139.245 0.313965H142.255L143.364 5.56843C144.764 5.77967 146.11 6.14933 147.404 6.65101L150.995 2.66395L153.583 4.1426L151.919 9.26504C153.002 10.1364 154.005 11.1133 154.877 12.2223L159.973 10.5324L161.478 13.1465L157.491 16.7375C157.992 18.0049 158.362 19.3515 158.547 20.7509L163.801 21.8599V24.87L158.547 25.979ZM140.75 10.2684C133.515 10.2684 127.654 16.1302 127.654 23.365C127.654 30.5998 133.515 36.4879 140.75 36.4879C147.985 36.4879 153.873 30.5998 153.873 23.365C153.873 16.1302 147.985 10.2684 140.75 10.2684Z" fill="white"/>
<path d="M182.258 47.7361C182.152 48.4578 181.967 49.1443 181.703 49.7956L183.736 51.6175L182.971 52.9378L180.383 52.0928C179.943 52.6385 179.441 53.1314 178.878 53.5715L179.723 56.1855L178.403 56.9248L176.581 54.9181C175.929 55.1645 175.252 55.3406 174.548 55.4462L173.967 58.113H172.462L171.881 55.4462C171.177 55.3406 170.499 55.1645 169.848 54.9181L168.026 56.9248L166.706 56.1855L167.55 53.5715C166.987 53.1314 166.486 52.6385 166.045 52.0928L163.458 52.9378L162.692 51.6175L164.725 49.7956C164.461 49.1443 164.276 48.4578 164.171 47.7361L161.504 47.1816V45.6502L164.171 45.0957C164.276 44.3915 164.461 43.7138 164.725 43.0625L162.692 41.2406L163.458 39.9204L166.045 40.7653C166.486 40.2021 166.987 39.7004 167.55 39.2603L166.706 36.6727L168.026 35.9069L169.848 37.9401C170.499 37.676 171.177 37.4912 171.881 37.3856L172.462 34.7188H173.967L174.548 37.3856C175.252 37.4912 175.929 37.676 176.581 37.9401L178.403 35.9069L179.723 36.6727L178.878 39.2603C179.441 39.7004 179.943 40.2021 180.383 40.7653L182.971 39.9204L183.736 41.2406L181.703 43.0625C181.967 43.7138 182.152 44.3915 182.258 45.0957L184.925 45.6502V47.1816L182.258 47.7361ZM173.201 39.762C169.531 39.762 166.547 42.7457 166.547 46.4159C166.547 50.0861 169.531 53.0698 173.201 53.0698C176.898 53.0698 179.855 50.0861 179.855 46.4159C179.855 42.7457 176.898 39.762 173.201 39.762Z" fill="url(#paint15_linear_2001_7)"/>
<path d="M182.258 47.7361C182.152 48.4578 181.967 49.1443 181.703 49.7956L183.736 51.6175L182.971 52.9378L180.383 52.0928C179.943 52.6385 179.441 53.1314 178.878 53.5715L179.723 56.1855L178.403 56.9248L176.581 54.9181C175.929 55.1645 175.252 55.3406 174.548 55.4462L173.967 58.113H172.462L171.881 55.4462C171.177 55.3406 170.499 55.1645 169.848 54.9181L168.026 56.9248L166.706 56.1855L167.55 53.5715C166.987 53.1314 166.486 52.6385 166.045 52.0928L163.458 52.9378L162.692 51.6175L164.725 49.7956C164.461 49.1443 164.276 48.4578 164.171 47.7361L161.504 47.1816V45.6502L164.171 45.0957C164.276 44.3915 164.461 43.7138 164.725 43.0625L162.692 41.2406L163.458 39.9204L166.045 40.7653C166.486 40.2021 166.987 39.7004 167.55 39.2603L166.706 36.6727L168.026 35.9069L169.848 37.9401C170.499 37.676 171.177 37.4912 171.881 37.3856L172.462 34.7188H173.967L174.548 37.3856C175.252 37.4912 175.929 37.676 176.581 37.9401L178.403 35.9069L179.723 36.6727L178.878 39.2603C179.441 39.7004 179.943 40.2021 180.383 40.7653L182.971 39.9204L183.736 41.2406L181.703 43.0625C181.967 43.7138 182.152 44.3915 182.258 45.0957L184.925 45.6502V47.1816L182.258 47.7361ZM173.201 39.762C169.531 39.762 166.547 42.7457 166.547 46.4159C166.547 50.0861 169.531 53.0698 173.201 53.0698C176.898 53.0698 179.855 50.0861 179.855 46.4159C179.855 42.7457 176.898 39.762 173.201 39.762Z" stroke="#231F20"/>
<path d="M226.511 81.0325H192.449V30.2041H226.511V81.0325Z" fill="url(#paint16_linear_2001_7)"/>
<path d="M226.511 81.0325H192.449V30.2041H226.511V81.0325Z" stroke="#231F20"/>
<path d="M223.686 24.8438H195.274C193.717 24.8438 192.449 26.1112 192.449 27.6954V30.2038H226.511V27.6954C226.511 26.1112 225.243 24.8438 223.686 24.8438Z" fill="url(#paint17_linear_2001_7)"/>
<path d="M223.686 24.8438H195.274C193.717 24.8438 192.449 26.1112 192.449 27.6954V30.2038H226.511V27.6954C226.511 26.1112 225.243 24.8438 223.686 24.8438Z" stroke="#231F20"/>
<path d="M226.511 80.7153H192.449V83.2501C192.449 84.8344 193.717 86.1018 195.274 86.1018H223.686C225.243 86.1018 226.511 84.8344 226.511 83.2501V80.7153Z" fill="url(#paint18_linear_2001_7)"/>
<path d="M226.511 80.7153H192.449V83.2501C192.449 84.8344 193.717 86.1018 195.274 86.1018H223.686C225.243 86.1018 226.511 84.8344 226.511 83.2501V80.7153Z" stroke="#231F20"/>
<g style="mix-blend-mode:overlay" opacity="0.2">
<path d="M226.511 30.2041H192.449V39.0232L226.511 73.0848V30.2041Z" fill="white"/>
<path d="M226.511 30.2041H192.449V39.0232L226.511 73.0848V30.2041Z" stroke="#231F20"/>
</g>
<path d="M209.482 60.3314C202.723 60.3314 197.23 54.8393 197.23 48.0797C197.23 41.3202 202.723 35.8281 209.482 35.8281C216.242 35.8281 221.734 41.3202 221.734 48.0797C221.734 54.8393 216.242 60.3314 209.482 60.3314ZM209.482 36.5938C203.145 36.5938 197.996 41.7427 197.996 48.0797C197.996 54.4168 203.145 59.5656 209.482 59.5656C215.819 59.5656 220.968 54.4168 220.968 48.0797C220.968 41.7427 215.819 36.5938 209.482 36.5938Z" fill="white"/>
<path d="M209.482 60.3314C202.723 60.3314 197.23 54.8393 197.23 48.0797C197.23 41.3202 202.723 35.8281 209.482 35.8281C216.242 35.8281 221.734 41.3202 221.734 48.0797C221.734 54.8393 216.242 60.3314 209.482 60.3314ZM209.482 36.5938C203.145 36.5938 197.996 41.7427 197.996 48.0797C197.996 54.4168 203.145 59.5656 209.482 59.5656C215.819 59.5656 220.968 54.4168 220.968 48.0797C220.968 41.7427 215.819 36.5938 209.482 36.5938Z" stroke="#231F20"/>
<path d="M209.474 60.3314C205.857 60.3314 203.031 54.9449 203.031 48.0797C203.031 41.2146 205.857 35.8281 209.474 35.8281C213.091 35.8281 215.917 41.2146 215.917 48.0797C215.917 54.9449 213.091 60.3314 209.474 60.3314ZM209.474 36.5938C206.332 36.5938 203.797 41.7427 203.797 48.0797C203.797 54.4168 206.332 59.5656 209.474 59.5656C212.616 59.5656 215.151 54.4168 215.151 48.0797C215.151 41.7427 212.616 36.5938 209.474 36.5938Z" fill="white"/>
<path d="M209.474 60.3314C205.857 60.3314 203.031 54.9449 203.031 48.0797C203.031 41.2146 205.857 35.8281 209.474 35.8281C213.091 35.8281 215.917 41.2146 215.917 48.0797C215.917 54.9449 213.091 60.3314 209.474 60.3314ZM209.474 36.5938C206.332 36.5938 203.797 41.7427 203.797 48.0797C203.797 54.4168 206.332 59.5656 209.474 59.5656C212.616 59.5656 215.151 54.4168 215.151 48.0797C215.151 41.7427 212.616 36.5938 209.474 36.5938Z" stroke="#231F20"/>
<path d="M209.479 60.0675C209.425 60.0675 209.375 60.0726 209.33 60.0772C209.197 60.0907 209.109 60.0997 209.109 59.9619V36.1979C209.109 36.0457 209.192 36.058 209.317 36.0768C209.365 36.0841 209.42 36.0923 209.479 36.0923C209.538 36.0923 209.593 36.0841 209.641 36.0768C209.766 36.058 209.849 36.0457 209.849 36.1979V59.9619C209.849 60.0997 209.761 60.0907 209.628 60.0772C209.583 60.0726 209.533 60.0675 209.479 60.0675Z" fill="white"/>
<path d="M209.479 60.0675C209.425 60.0675 209.375 60.0726 209.33 60.0772C209.197 60.0907 209.109 60.0997 209.109 59.9619V36.1979C209.109 36.0457 209.192 36.058 209.317 36.0768C209.365 36.0841 209.42 36.0923 209.479 36.0923C209.538 36.0923 209.593 36.0841 209.641 36.0768C209.766 36.058 209.849 36.0457 209.849 36.1979V59.9619C209.849 60.0997 209.761 60.0907 209.628 60.0772C209.583 60.0726 209.533 60.0675 209.479 60.0675Z" stroke="#231F20"/>
<path d="M221.364 48.4493H197.6C197.389 48.4493 197.23 48.2909 197.23 48.0796C197.23 47.8684 197.389 47.71 197.6 47.71H221.364C221.549 47.71 221.734 47.8684 221.734 48.0796C221.734 48.2909 221.549 48.4493 221.364 48.4493Z" fill="white"/>
<path d="M221.364 48.4493H197.6C197.389 48.4493 197.23 48.2909 197.23 48.0796C197.23 47.8684 197.389 47.71 197.6 47.71H221.364C221.549 47.71 221.734 47.8684 221.734 48.0796C221.734 48.2909 221.549 48.4493 221.364 48.4493Z" stroke="#231F20"/>
<path d="M209.489 60.3311C206.505 60.3311 203.627 59.2485 201.383 57.2418C201.251 57.1098 201.224 56.8985 201.356 56.7401C203.442 54.1525 206.4 52.6738 209.489 52.6738C212.578 52.6738 215.535 54.1525 217.621 56.7401C217.753 56.8985 217.727 57.1098 217.595 57.2418C215.351 59.2485 212.473 60.3311 209.489 60.3311ZM202.175 56.9249C204.234 58.6412 206.822 59.5654 209.489 59.5654C212.156 59.5654 214.743 58.6412 216.803 56.9249C214.875 54.707 212.235 53.4396 209.489 53.4396C206.743 53.4396 204.102 54.707 202.175 56.9249Z" fill="white"/>
<path d="M209.489 60.3311C206.505 60.3311 203.627 59.2485 201.383 57.2418C201.251 57.1098 201.224 56.8985 201.356 56.7401C203.442 54.1525 206.4 52.6738 209.489 52.6738C212.578 52.6738 215.535 54.1525 217.621 56.7401C217.753 56.8985 217.727 57.1098 217.595 57.2418C215.351 59.2485 212.473 60.3311 209.489 60.3311ZM202.175 56.9249C204.234 58.6412 206.822 59.5654 209.489 59.5654C212.156 59.5654 214.743 58.6412 216.803 56.9249C214.875 54.707 212.235 53.4396 209.489 53.4396C206.743 53.4396 204.102 54.707 202.175 56.9249Z" stroke="#231F20"/>
<path d="M209.489 43.4854C206.4 43.4854 203.442 42.0067 201.356 39.4191C201.224 39.2607 201.251 39.0495 201.383 38.9174C203.627 36.9107 206.505 35.8281 209.489 35.8281C212.473 35.8281 215.351 36.9107 217.595 38.9174C217.727 39.0495 217.753 39.2607 217.621 39.4191C215.535 42.0067 212.578 43.4854 209.489 43.4854ZM202.175 39.2343C204.102 41.4523 206.743 42.7197 209.489 42.7197C212.235 42.7197 214.875 41.4523 216.803 39.2343C214.743 37.518 212.156 36.5938 209.489 36.5938C206.822 36.5938 204.234 37.518 202.175 39.2343Z" fill="white"/>
<path d="M209.489 43.4854C206.4 43.4854 203.442 42.0067 201.356 39.4191C201.224 39.2607 201.251 39.0495 201.383 38.9174C203.627 36.9107 206.505 35.8281 209.489 35.8281C212.473 35.8281 215.351 36.9107 217.595 38.9174C217.727 39.0495 217.753 39.2607 217.621 39.4191C215.535 42.0067 212.578 43.4854 209.489 43.4854ZM202.175 39.2343C204.102 41.4523 206.743 42.7197 209.489 42.7197C212.235 42.7197 214.875 41.4523 216.803 39.2343C214.743 37.518 212.156 36.5938 209.489 36.5938C206.822 36.5938 204.234 37.518 202.175 39.2343Z" stroke="#231F20"/>
<path d="M220.414 68.8863L211.41 63.6055L212.202 74.0088L214.684 71.0251L216.506 73.9296L218.46 72.6886L216.638 69.7841L220.414 68.8863Z" fill="white"/>
<path d="M220.414 68.8863L211.41 63.6055L212.202 74.0088L214.684 71.0251L216.506 73.9296L218.46 72.6886L216.638 69.7841L220.414 68.8863Z" stroke="#231F20"/>
<defs>
<linearGradient id="paint0_linear_2001_7" x1="54.204" y1="121.156" x2="119.104" y2="121.156" gradientUnits="userSpaceOnUse">
<stop stop-color="#FF9100"/>
<stop offset="1" stop-color="#FFC46E"/>
</linearGradient>
<linearGradient id="paint1_linear_2001_7" x1="54.204" y1="133.558" x2="119.104" y2="133.558" gradientUnits="userSpaceOnUse">
<stop stop-color="#FF9100"/>
<stop offset="1" stop-color="#FFC46E"/>
</linearGradient>
<linearGradient id="paint2_linear_2001_7" x1="54.204" y1="145.96" x2="119.104" y2="145.96" gradientUnits="userSpaceOnUse">
<stop stop-color="#FF9100"/>
<stop offset="1" stop-color="#FFC46E"/>
</linearGradient>
<linearGradient id="paint3_linear_2001_7" x1="54.204" y1="158.362" x2="119.104" y2="158.362" gradientUnits="userSpaceOnUse">
<stop stop-color="#FF9100"/>
<stop offset="1" stop-color="#FFC46E"/>
</linearGradient>
<linearGradient id="paint4_linear_2001_7" x1="54.204" y1="170.764" x2="119.104" y2="170.764" gradientUnits="userSpaceOnUse">
<stop stop-color="#FF9100"/>
<stop offset="1" stop-color="#FFC46E"/>
</linearGradient>
<linearGradient id="paint5_linear_2001_7" x1="54.204" y1="170.764" x2="119.104" y2="170.764" gradientUnits="userSpaceOnUse">
<stop stop-color="#FF9100"/>
<stop offset="1" stop-color="#FFC46E"/>
</linearGradient>
<linearGradient id="paint6_linear_2001_7" x1="54.1983" y1="121.156" x2="119.098" y2="121.156" gradientUnits="userSpaceOnUse">
<stop stop-color="#FF9100"/>
<stop offset="1" stop-color="#FFC46E"/>
</linearGradient>
<linearGradient id="paint7_linear_2001_7" x1="54.1984" y1="133.558" x2="119.098" y2="133.558" gradientUnits="userSpaceOnUse">
<stop stop-color="#FF9100"/>
<stop offset="1" stop-color="#FFC46E"/>
</linearGradient>
<linearGradient id="paint8_linear_2001_7" x1="54.1976" y1="145.96" x2="119.097" y2="145.96" gradientUnits="userSpaceOnUse">
<stop stop-color="#FF9100"/>
<stop offset="1" stop-color="#FFC46E"/>
</linearGradient>
<linearGradient id="paint9_linear_2001_7" x1="54.1973" y1="158.362" x2="119.097" y2="158.362" gradientUnits="userSpaceOnUse">
<stop stop-color="#FF9100"/>
<stop offset="1" stop-color="#FFC46E"/>
</linearGradient>
<linearGradient id="paint10_linear_2001_7" x1="123.364" y1="185.261" x2="204.81" y2="185.261" gradientUnits="userSpaceOnUse">
<stop stop-color="#CCD1EC"/>
<stop offset="1" stop-color="white"/>
</linearGradient>
<linearGradient id="paint11_linear_2001_7" x1="125.992" y1="242.377" x2="129.886" y2="62.1491" gradientUnits="userSpaceOnUse">
<stop stop-color="#CCD1EC"/>
<stop offset="1" stop-color="white"/>
</linearGradient>
<linearGradient id="paint12_linear_2001_7" x1="143.032" y1="149.502" x2="143.032" y2="69.6247" gradientUnits="userSpaceOnUse">
<stop stop-color="#3949AB"/>
<stop offset="1" stop-color="#3F50AE"/>
</linearGradient>
<linearGradient id="paint13_linear_2001_7" x1="89.0033" y1="114.875" x2="89.0033" y2="50.4518" gradientUnits="userSpaceOnUse">
<stop stop-color="#CCD1EC"/>
<stop offset="1" stop-color="white"/>
</linearGradient>
<linearGradient id="paint14_linear_2001_7" x1="52.2658" y1="54.5404" x2="149.071" y2="54.5404" gradientUnits="userSpaceOnUse">
<stop stop-color="#FF9100"/>
<stop offset="1" stop-color="#FFC46E"/>
</linearGradient>
<linearGradient id="paint15_linear_2001_7" x1="180.155" y1="76.7645" x2="92.1492" y2="-11.2417" gradientUnits="userSpaceOnUse">
<stop stop-color="white"/>
<stop offset="1" stop-color="#DFE2F3"/>
</linearGradient>
<linearGradient id="paint16_linear_2001_7" x1="209.48" y1="30.2041" x2="209.48" y2="81.0325" gradientUnits="userSpaceOnUse">
<stop stop-color="#E30613"/>
<stop offset="1" stop-color="#95060F"/>
</linearGradient>
<linearGradient id="paint17_linear_2001_7" x1="268.32" y1="29.5226" x2="222.657" y2="21.4529" gradientUnits="userSpaceOnUse">
<stop stop-color="#CCD1EC"/>
<stop offset="1" stop-color="white"/>
</linearGradient>
<linearGradient id="paint18_linear_2001_7" x1="60.7694" y1="48.7291" x2="15.1054" y2="40.6594" gradientUnits="userSpaceOnUse">
<stop stop-color="#CCD1EC"/>
<stop offset="1" stop-color="white"/>
</linearGradient>
</defs>
</svg>
