<svg width="38" height="38" viewBox="0 0 38 38" fill="none" xmlns="http://www.w3.org/2000/svg">
<path fill-rule="evenodd" clip-rule="evenodd" d="M17.3611 7.53857H20.6394C23.3242 7.73132 25.4613 9.98809 25.4613 12.7197V15.5567C25.4613 15.7553 25.2993 15.9174 25.1007 15.9174H12.8997C12.7011 15.9174 12.5391 15.7553 12.5391 15.5567V12.7197C12.5391 9.98794 14.6761 7.73132 17.3611 7.53857Z" fill="#FFA2A2"/>
<path fill-rule="evenodd" clip-rule="evenodd" d="M20.5505 11.9C21.3023 10.4798 21.5784 9.30246 21.6689 7.71922C21.3371 7.62548 20.9922 7.56403 20.6377 7.53857C20.6377 7.53857 19.5449 7.53857 17.3594 7.53857C17.0049 7.56403 16.6599 7.62548 16.3281 7.71922C16.4187 9.30246 16.6947 10.4798 17.4465 11.9C17.8954 12.7478 18.4414 13.557 18.9985 14.3369C19.5557 13.557 20.1016 12.7478 20.5505 11.9Z" fill="#F0F0F0"/>
<path fill-rule="evenodd" clip-rule="evenodd" d="M18.9996 6.35107L17.3477 11.7072C17.7401 12.4818 18.2744 13.3218 18.9996 14.3371C19.7248 13.3218 20.259 12.4818 20.6516 11.7072L18.9996 6.35107Z" fill="#FFA2A2"/>
<path d="M19.0018 7.89569C21.0329 7.89569 22.6794 6.2694 22.6794 4.26327C22.6794 2.25715 21.0329 0.630859 19.0018 0.630859C16.9707 0.630859 15.3242 2.25715 15.3242 4.26327C15.3242 6.2694 16.9707 7.89569 19.0018 7.89569Z" fill="white"/>
<path fill-rule="evenodd" clip-rule="evenodd" d="M4.30204 30.9932H6.79661C8.83955 31.1398 10.4658 32.857 10.4658 34.9356V37.0614C10.4658 37.2307 10.3276 37.3688 10.1583 37.3688H0.940227C0.770934 37.3688 0.632812 37.2307 0.632812 37.0614V34.9356C0.632812 32.857 2.25902 31.1399 4.30204 30.9932Z" fill="#FFA2A2"/>
<path fill-rule="evenodd" clip-rule="evenodd" d="M5.54834 31.2649C7.08964 31.2649 8.34669 30.0233 8.34669 28.5009C8.34669 26.9785 7.08957 25.7368 5.54834 25.7368C4.00704 25.7368 2.75 26.9785 2.75 28.5009C2.75 30.0232 4.00712 31.2649 5.54834 31.2649Z" fill="white"/>
<path fill-rule="evenodd" clip-rule="evenodd" d="M17.7552 30.9937H20.2497C22.2927 31.1403 23.9189 32.8575 23.9189 34.9361V37.0619C23.9189 37.2311 23.7808 37.3693 23.6115 37.3693H14.3934C14.2241 37.3693 14.0859 37.2311 14.0859 37.0619V34.9361C14.0859 32.8575 15.7121 31.1404 17.7552 30.9937Z" fill="#FFA2A2"/>
<path fill-rule="evenodd" clip-rule="evenodd" d="M19.0015 31.2654C20.5428 31.2654 21.7998 30.0238 21.7998 28.5014C21.7998 26.979 20.5427 25.7373 19.0015 25.7373C17.4602 25.7373 16.2031 26.979 16.2031 28.5014C16.2031 30.0237 17.4602 31.2654 19.0015 31.2654Z" fill="white"/>
<path fill-rule="evenodd" clip-rule="evenodd" d="M31.2083 30.9937H33.7029C35.7458 31.1403 37.372 32.8575 37.372 34.9361V37.0619C37.372 37.2311 37.2339 37.3693 37.0646 37.3693H27.8465C27.6772 37.3693 27.5391 37.2311 27.5391 37.0619V34.9361C27.5391 32.8575 29.1653 31.1404 31.2083 30.9937Z" fill="#FFA2A2"/>
<path fill-rule="evenodd" clip-rule="evenodd" d="M32.4546 31.2654C33.9959 31.2654 35.2529 30.0238 35.2529 28.5014C35.2529 26.979 33.9958 25.7373 32.4546 25.7373C30.9134 25.7373 29.6562 26.979 29.6562 28.5014C29.6562 30.0237 30.9134 31.2654 32.4546 31.2654Z" fill="white"/>
<path fill-rule="evenodd" clip-rule="evenodd" d="M36.8127 36.8125H28.0926V34.9362C28.0926 33.1972 29.4245 31.7337 31.1437 31.5586C31.5459 31.7277 31.9883 31.8223 32.4528 31.8223C32.9166 31.8223 33.3591 31.7278 33.7613 31.5586C35.4803 31.7336 36.8126 33.1972 36.8126 34.9362L36.8127 36.8125ZM32.4528 26.2936C33.6885 26.2936 34.6941 27.2845 34.6941 28.501C34.6941 29.7181 33.6885 30.7088 32.4528 30.7088C31.2165 30.7088 30.2107 29.7181 30.2107 28.501C30.2108 27.2845 31.2165 26.2936 32.4528 26.2936ZM21.2422 28.501C21.2422 29.7181 20.2366 30.7088 19.0001 30.7088C17.7641 30.7088 16.7584 29.7181 16.7584 28.501C16.7584 27.2845 17.7641 26.2936 19.0001 26.2936C20.2366 26.2936 21.2422 27.2845 21.2422 28.501ZM23.3597 34.9362V36.8125H14.6403V34.9362C14.6403 33.1972 15.9726 31.7337 17.6917 31.5586C18.0939 31.7277 18.536 31.8223 19.0001 31.8223C19.4639 31.8223 19.9061 31.7278 20.309 31.5586C22.0274 31.7336 23.3597 33.1972 23.3597 34.9362ZM7.78918 28.501C7.78918 29.7181 6.78352 30.7088 5.54711 30.7088C4.31114 30.7088 3.30578 29.7181 3.30578 28.501C3.30578 27.2845 4.31114 26.2936 5.54711 26.2936C6.78352 26.2936 7.78918 27.2845 7.78918 28.501ZM9.90739 34.9362V36.8125H1.18765V34.9362C1.18765 33.1972 2.51958 31.7337 4.23871 31.5586C4.6409 31.7277 5.08339 31.8223 5.54718 31.8223C6.01172 31.8223 6.45421 31.7278 6.8564 31.5586C8.57509 31.7336 9.90739 33.1972 9.90739 34.9362ZM13.0959 12.7198C13.0959 10.8568 14.2164 9.2245 15.834 8.49226C16.0594 10.6275 16.7437 12.1356 18.5472 14.6604C18.6512 14.8067 18.8202 14.8936 19.0001 14.8936C19.1794 14.8936 19.3488 14.8067 19.4527 14.6604C21.2568 12.1355 21.9412 10.6275 22.166 8.49226C23.7832 9.22457 24.904 10.8569 24.904 12.7198V15.3612H13.0959V12.7198ZM15.8792 4.26335C15.8792 2.56738 17.279 1.1875 19.0001 1.1875C20.721 1.1875 22.1208 2.56738 22.1208 4.26335C22.1208 5.95895 20.721 7.33882 19.0001 7.33882C17.279 7.33882 15.8792 5.95895 15.8792 4.26335ZM20.7368 10.0293C20.915 9.43847 21.0203 8.83493 21.0806 8.15449C20.9528 8.13207 20.8222 8.1153 20.6906 8.10268C20.538 8.16955 20.3798 8.22663 20.2181 8.27487L20.7368 10.0293ZM18.891 8.44988L17.9445 11.6532C18.2231 12.1772 18.5696 12.7352 19.0002 13.3663C19.4305 12.7351 19.777 12.1771 20.0552 11.6532L19.1091 8.44988C19.0727 8.45055 19.0363 8.45196 19.0002 8.45196C18.9638 8.45203 18.9273 8.45055 18.891 8.44988ZM17.3091 8.10268C17.1779 8.1153 17.0472 8.13207 16.9195 8.15449C16.9797 8.835 17.0851 9.43847 17.2633 10.0293L17.7821 8.27487C17.6203 8.22655 17.462 8.16948 17.3091 8.10268ZM34.9623 30.7021C35.4878 30.1157 35.8074 29.3446 35.8074 28.501C35.8074 26.8575 34.5955 25.4906 33.0094 25.227V20.8272C33.0094 20.5202 32.7602 20.2706 32.4528 20.2706H19.5567V16.4743H25.4606C25.7686 16.4743 26.0172 16.2251 26.0172 15.9178V12.7198C26.0172 10.1711 24.3265 7.97028 21.9835 7.23277C22.7554 6.47351 23.2343 5.42264 23.2343 4.26327C23.2343 1.95329 21.3349 0.0742188 19.0001 0.0742188C16.6649 0.0742188 14.7656 1.95329 14.7656 4.26327C14.7656 5.42264 15.2445 6.47351 16.0163 7.23277C13.6731 7.97028 11.9828 10.1711 11.9828 12.7198V15.9178C11.9828 16.2251 12.2313 16.4743 12.5393 16.4743H18.4432V20.2706H5.54718C5.23984 20.2706 4.99062 20.5202 4.99062 20.8272V25.227C3.40523 25.4906 2.19235 26.8575 2.19235 28.501C2.19235 29.3446 2.5123 30.1157 3.0377 30.7021C1.30462 31.3388 0.0742188 33.0103 0.0742188 34.9362V37.0621C0.0742188 37.5385 0.461715 37.926 0.938125 37.926H10.1562C10.6327 37.926 11.0209 37.5385 11.0209 37.0621V34.9362C11.0209 33.0103 9.78945 31.3388 8.05741 30.7021C8.5828 30.1157 8.90246 29.3446 8.90246 28.501C8.90246 26.8575 7.68988 25.4906 6.10382 25.227V21.3841H18.4433V25.227C16.8572 25.4906 15.6454 26.8575 15.6454 28.501C15.6454 29.3446 15.9653 30.1157 16.4907 30.7021C14.7577 31.3388 13.5273 33.0103 13.5273 34.9362V37.0621C13.5273 37.5385 13.9144 37.926 14.3912 37.926H23.6089C24.0853 37.926 24.4728 37.5385 24.4728 37.0621V34.9362C24.4728 33.0103 23.2424 31.3388 21.5093 30.7021C22.0347 30.1157 22.3554 29.3446 22.3554 28.501C22.3554 26.8575 21.1428 25.4906 19.5568 25.227V21.3841H31.8963V25.227C30.3102 25.4906 29.0972 26.8575 29.0972 28.501C29.0972 29.3446 29.4179 30.1157 29.9433 30.7021C28.2106 31.3388 26.9791 33.0103 26.9791 34.9362V37.0621C26.9791 37.5385 27.3673 37.926 27.8438 37.926H37.0619C37.5384 37.926 37.9259 37.5385 37.9259 37.0621V34.9362C37.9259 33.0103 36.6951 31.3388 34.9623 30.7021Z" fill="#212121"/>
</svg>
