<svg width="28" height="28" viewBox="0 0 28 28" fill="none" xmlns="http://www.w3.org/2000/svg">
<path d="M8.2625 23.675C9.95 24.6875 11.975 25.25 14 25.25C20.1875 25.25 25.25 20.1875 25.25 14C25.25 7.8125 20.1875 2.75 14 2.75C7.8125 2.75 2.75 7.8125 2.75 14C2.75 16.025 3.3125 17.9375 4.2125 19.625L3.19044 23.556C2.99572 24.3049 3.68892 24.9817 4.43299 24.7691L8.2625 23.675Z" stroke="#EA231C" stroke-width="1.5" stroke-miterlimit="10" stroke-linecap="round" stroke-linejoin="round"/>
<path d="M19.0625 17.2046C19.0625 17.3868 19.0219 17.5741 18.9357 17.7564C18.8496 17.9386 18.738 18.1108 18.591 18.2728C18.3425 18.5461 18.0688 18.7436 17.7595 18.8701C17.4553 18.9967 17.1257 19.0625 16.7708 19.0625C16.2537 19.0625 15.701 18.941 15.118 18.6929C14.5349 18.4449 13.9518 18.1108 13.3738 17.6906C12.7908 17.2653 12.2381 16.7945 11.7108 16.2731C11.1886 15.7466 10.7171 15.1948 10.2963 14.6176C9.88054 14.0405 9.54591 13.4634 9.30255 12.8913C9.05918 12.3142 8.9375 11.7624 8.9375 11.2359C8.9375 10.8916 8.99834 10.5626 9.12002 10.2588C9.24171 9.95 9.43437 9.6665 9.70309 9.41338C10.0276 9.09444 10.3825 8.9375 10.7577 8.9375C10.8996 8.9375 11.0416 8.96788 11.1683 9.02863C11.3002 9.08938 11.4168 9.1805 11.508 9.31213L12.6843 10.9676C12.7756 11.0941 12.8415 11.2106 12.8871 11.3219C12.9327 11.4283 12.9581 11.5346 12.9581 11.6308C12.9581 11.7523 12.9226 11.8738 12.8516 11.9902C12.7857 12.1066 12.6894 12.2281 12.5677 12.3496L12.1824 12.7496C12.1266 12.8053 12.1012 12.8711 12.1012 12.9521C12.1012 12.9926 12.1063 13.028 12.1165 13.0685C12.1317 13.109 12.1469 13.1394 12.157 13.1698C12.2483 13.3368 12.4055 13.5545 12.6285 13.8178C12.8567 14.081 13.1001 14.3493 13.3637 14.6176C13.6375 14.8859 13.9011 15.134 14.1698 15.3618C14.4335 15.5846 14.6515 15.7364 14.8239 15.8276C14.8492 15.8377 14.8797 15.8529 14.9152 15.8681C14.9557 15.8833 14.9963 15.8883 15.0419 15.8883C15.1281 15.8883 15.194 15.8579 15.2498 15.8023L15.6351 15.4226C15.7619 15.296 15.8835 15.1998 16.0002 15.1391C16.1168 15.0682 16.2334 15.0328 16.3601 15.0328C16.4565 15.0328 16.5579 15.053 16.6694 15.0986C16.781 15.1441 16.8976 15.2099 17.0243 15.296L18.7025 16.4857C18.8343 16.5768 18.9256 16.6831 18.9814 16.8097C19.0321 16.9362 19.0625 17.0628 19.0625 17.2046Z" stroke="#EA231C" stroke-width="1.5" stroke-miterlimit="10"/>
</svg>
