<svg width="238" height="40" viewBox="0 0 238 40" fill="none" xmlns="http://www.w3.org/2000/svg">
<path d="M36.6656 7.42097C36.74 7.48281 45.5124 14.8256 30.4917 26.6922C30.4917 26.6922 33.9711 15.4388 26.2187 6.46399L25.3383 6.82983C25.3383 6.82983 31.1896 14.775 28.1833 28.249L24.2109 30.7186C24.2109 30.7186 18.8963 30.9867 15.6218 29.9134C15.6218 29.9134 12.5619 19.0899 15.461 12.0204L12.7228 13.8621C12.7228 13.8621 11.1124 23.8467 13.7425 29.0537C13.6971 29.0338 10.7872 27.7555 9.93268 26.2654C9.98846 26.3778 11.8012 29.9822 14.6017 30.9331C14.6017 30.9331 16.3198 33.6172 16.9101 34.0467C16.9101 34.0467 10.6687 36.1111 8.26562 36.1993C10.5727 36.2093 23.1649 35.9148 35.0548 28.7324C35.0548 28.7324 55.2925 16.2782 36.6656 7.42097ZM17.4826 33.7785C17.4826 33.7785 16.4807 32.4185 16.3375 31.7028C16.3375 31.7028 19.2366 32.5971 20.3099 32.5617C20.3099 32.5617 17.912 33.7785 17.4826 33.7785Z" fill="#E4221C"/>
<path d="M32.579 3.7998C31.4932 3.52174 21.599 4.6197 17.9297 5.59528C12.6635 6.99552 8.02127 8.65392 4.74512 12.0205C7.77089 5.46036 14.4058 0.90765 22.1041 0.90765C25.91 0.90765 29.4058 2.12972 32.579 3.7998Z" fill="#E4221C"/>
<path d="M12.3691 36.5993C13.4649 36.8346 23.3085 35.3496 26.9367 34.2309C32.1437 32.6252 36.7176 30.7861 39.8593 27.2933C37.093 33.9671 30.6418 38.7767 22.9496 39.0785C19.1468 39.2277 15.6055 38.1436 12.3691 36.5993Z" fill="white"/>
<path d="M7.89111 36.1942C7.89111 36.1942 8.02041 36.1986 8.26517 36.1994C8.12722 36.2046 8.00182 36.2029 7.89111 36.1942Z" fill="#E4221C"/>
<path d="M37.8581 18.5447C30.8197 25.7975 19.3199 24.2468 19.3199 24.2468C12.2577 23.865 7.89139 19.4991 7.89139 19.4991C1.72871 28.5301 7.76339 32.672 7.88966 32.7572C3.68895 30.9682 -0.566674 27.6674 0.0620914 22.6044C0.693019 17.5263 5.12811 14.1087 9.12601 11.5176C14.5964 7.97199 20.8966 5.81282 27.2984 4.71572C29.4095 4.35377 31.5423 4.10426 33.6816 3.98879C34.473 3.94642 35.3469 4.0489 36.1283 3.93128C26.2765 5.41627 19.0215 9.60487 14.3888 13.201C26.1178 17.1289 33.3049 10.9835 33.3897 10.9108C25.8592 20.0284 14.1734 14.7249 13.1217 14.2216C9.8884 16.9252 8.26545 19.0697 8.26545 19.0697C23.5634 27.6051 37.8581 18.5447 37.8581 18.5447Z" fill="white"/>
<path d="M54.5228 31.5C53.8044 31.5 53.1443 31.3253 52.5424 30.9758C51.9599 30.6263 51.4939 30.1506 51.1445 29.5487C50.795 28.9468 50.6202 28.2867 50.6202 27.5683V26.1704H54.1151V27.4518C54.1151 27.6071 54.1636 27.7333 54.2607 27.8304C54.3578 27.9275 54.484 27.976 54.6393 27.976H67.5121C67.6674 27.976 67.7936 27.9275 67.8907 27.8304C68.0072 27.7333 68.0654 27.6071 68.0654 27.4518V23.2871C68.0654 23.1512 68.0072 23.0347 67.8907 22.9376C67.7936 22.8211 67.6674 22.7629 67.5121 22.7629H54.5228C53.8044 22.7629 53.1443 22.5881 52.5424 22.2386C51.9599 21.8892 51.4939 21.4232 51.1445 20.8407C50.795 20.2388 50.6202 19.5787 50.6202 18.8603V14.4626C50.6202 13.7442 50.795 13.084 51.1445 12.4821C51.4939 11.8802 51.9599 11.4046 52.5424 11.0551C53.1443 10.7056 53.8044 10.5308 54.5228 10.5308H67.6577C68.3761 10.5308 69.0265 10.7056 69.609 11.0551C70.2109 11.4046 70.6866 11.8802 71.0361 12.4821C71.405 13.084 71.5894 13.7442 71.5894 14.4626V15.8605H68.0654V14.5791C68.0654 14.4237 68.0072 14.2975 67.8907 14.2004C67.7936 14.1034 67.6674 14.0548 67.5121 14.0548H54.6393C54.484 14.0548 54.3578 14.1034 54.2607 14.2004C54.1636 14.2975 54.1151 14.4237 54.1151 14.5791V18.7438C54.1151 18.8797 54.1636 19.0059 54.2607 19.1224C54.3578 19.2195 54.484 19.268 54.6393 19.268H67.6577C68.3761 19.268 69.0265 19.4427 69.609 19.7922C70.2109 20.1417 70.6866 20.6174 71.0361 21.2193C71.405 21.8018 71.5894 22.4522 71.5894 23.1706V27.5683C71.5894 28.2867 71.405 28.9468 71.0361 29.5487C70.6866 30.1506 70.2109 30.6263 69.609 30.9758C69.0265 31.3253 68.3761 31.5 67.6577 31.5H54.5228ZM74.7405 31.5V10.56H91.7779C92.4963 10.56 93.1468 10.7444 93.7292 11.1133C94.3311 11.4628 94.8068 11.9385 95.1563 12.5404C95.5252 13.1229 95.7097 13.7733 95.7097 14.4917V20.2582C95.7097 20.9572 95.5252 21.6076 95.1563 22.2095C94.8068 22.8114 94.3311 23.2871 93.7292 23.6366C93.1468 23.9861 92.4963 24.1608 91.7779 24.1608L78.2353 24.1899V31.5H74.7405ZM78.7596 20.6368H91.6615C91.7974 20.6368 91.9139 20.5883 92.0109 20.4912C92.1274 20.3941 92.1857 20.2679 92.1857 20.1126V14.5791C92.1857 14.4431 92.1274 14.3267 92.0109 14.2296C91.9139 14.1131 91.7974 14.0548 91.6615 14.0548H78.7596C78.6237 14.0548 78.4975 14.1131 78.381 14.2296C78.2839 14.3267 78.2353 14.4431 78.2353 14.5791V20.1126C78.2353 20.2679 78.2839 20.3941 78.381 20.4912C78.4975 20.5883 78.6237 20.6368 78.7596 20.6368ZM101.651 31.5C100.933 31.5 100.273 31.3253 99.671 30.9758C99.0691 30.6263 98.5934 30.1506 98.2439 29.5487C97.8944 28.9468 97.7197 28.2867 97.7197 27.5683V14.4626C97.7197 13.7442 97.8944 13.084 98.2439 12.4821C98.5934 11.8802 99.0691 11.4046 99.671 11.0551C100.273 10.7056 100.933 10.5308 101.651 10.5308H114.757C115.476 10.5308 116.126 10.7056 116.708 11.0551C117.31 11.4046 117.786 11.8802 118.136 12.4821C118.504 13.084 118.689 13.7442 118.689 14.4626V27.5683C118.689 28.2867 118.504 28.9468 118.136 29.5487C117.786 30.1506 117.31 30.6263 116.708 30.9758C116.126 31.3253 115.476 31.5 114.757 31.5H101.651ZM101.739 27.976H114.641C114.777 27.976 114.893 27.9275 114.99 27.8304C115.107 27.7333 115.165 27.6071 115.165 27.4518V14.5791C115.165 14.4237 115.107 14.2975 114.99 14.2004C114.893 14.1034 114.777 14.0548 114.641 14.0548H101.739C101.603 14.0548 101.477 14.1034 101.36 14.2004C101.263 14.2975 101.215 14.4237 101.215 14.5791V27.4518C101.215 27.6071 101.263 27.7333 101.36 27.8304C101.477 27.9275 101.603 27.976 101.739 27.976ZM138.846 31.5L132.41 23.8113H136.982L142.778 30.6846V31.5H138.846ZM121.896 31.5V10.56H138.934C139.652 10.56 140.302 10.7444 140.885 11.1133C141.487 11.4628 141.962 11.9385 142.312 12.5404C142.681 13.1229 142.865 13.7733 142.865 14.4917V20.2582C142.865 20.9572 142.681 21.6076 142.312 22.2095C141.962 22.8114 141.487 23.2871 140.885 23.6366C140.302 23.9861 139.652 24.1608 138.934 24.1608L125.391 24.1899V31.5H121.896ZM125.915 20.6368H138.817C138.953 20.6368 139.07 20.5883 139.167 20.4912C139.283 20.3941 139.341 20.2679 139.341 20.1126V14.5791C139.341 14.4431 139.283 14.3267 139.167 14.2296C139.07 14.1131 138.953 14.0548 138.817 14.0548H125.915C125.779 14.0548 125.653 14.1131 125.537 14.2296C125.44 14.3267 125.391 14.4431 125.391 14.5791V20.1126C125.391 20.2679 125.44 20.3941 125.537 20.4912C125.653 20.5883 125.779 20.6368 125.915 20.6368ZM153.618 31.5V14.0548H144.881V10.5308H165.85V14.0548H157.113V31.5H153.618Z" fill="white"/>
<path d="M168.115 31.5V10.5308H184.308C185.027 10.5308 185.677 10.7056 186.259 11.0551C186.861 11.4046 187.337 11.8802 187.687 12.4821C188.055 13.084 188.24 13.7442 188.24 14.4626V18.6273C188.24 18.8991 188.211 19.1612 188.152 19.4136C188.114 19.6466 188.046 19.8699 187.949 20.0835C188.298 20.5689 188.57 21.0543 188.764 21.5397C188.978 22.0056 189.084 22.4813 189.084 22.9667V27.5683C189.084 28.2867 188.9 28.9468 188.531 29.5487C188.182 30.1506 187.706 30.6263 187.104 30.9758C186.522 31.3253 185.871 31.5 185.153 31.5H168.115ZM172.134 27.976H185.036C185.172 27.976 185.289 27.9275 185.386 27.8304C185.502 27.7333 185.56 27.6071 185.56 27.4518V23.1124C185.56 22.957 185.502 22.8308 185.386 22.7337C185.289 22.6367 185.172 22.5881 185.036 22.5881H172.134C171.998 22.5881 171.872 22.6367 171.756 22.7337C171.659 22.8308 171.61 22.957 171.61 23.1124V27.4518C171.61 27.6071 171.659 27.7333 171.756 27.8304C171.872 27.9275 171.998 27.976 172.134 27.976ZM172.134 19.0641H184.163C184.318 19.0641 184.444 19.0156 184.541 18.9185C184.638 18.802 184.687 18.6758 184.687 18.5399V14.5791C184.687 14.4237 184.638 14.2975 184.541 14.2004C184.444 14.1034 184.318 14.0548 184.163 14.0548H172.134C171.998 14.0548 171.872 14.1034 171.756 14.2004C171.659 14.2975 171.61 14.4237 171.61 14.5791V18.5399C171.61 18.6758 171.659 18.802 171.756 18.9185C171.872 19.0156 171.998 19.0641 172.134 19.0641ZM192.318 31.5V10.5308H211.569V14.0548H195.842V19.268H208.511V22.7629H195.842V27.976H211.569V31.5H192.318ZM214.267 31.5V30.6846L222.363 21.0154L214.267 11.3463V10.5308H218.169L224.693 18.2487L231.188 10.5308H235.09V11.3463L226.965 21.0154L235.09 30.6554V31.5H231.188L224.664 23.7822L218.169 31.5H214.267Z" fill="#EA231C"/>
</svg>
