<svg width="35" height="45" viewBox="0 0 35 45" fill="none" xmlns="http://www.w3.org/2000/svg">
<path fill-rule="evenodd" clip-rule="evenodd" d="M6.09401 15.3806C8.37592 13.1343 11.2668 11.6015 14.4124 10.9942L15.7308 10.7397L14.6066 11.4738C13.1582 12.4196 12.0595 13.9434 11.268 15.4566C11.0152 15.9399 10.7866 16.4359 10.5795 16.9406L10.4951 17.1461L10.2782 17.0979C8.88094 16.7867 7.49604 16.3686 6.17646 15.8114L5.8125 15.6578L6.09401 15.3806ZM17.1492 11.2732L16.8437 11.3224C14.5537 11.691 12.8972 13.8576 11.8923 15.7818C11.6873 16.1744 11.4981 16.5754 11.3251 16.9831L11.1959 17.2877L11.5217 17.3456C13.2877 17.6598 15.0881 17.8206 16.8812 17.8508L17.1492 17.8554V11.2732ZM18.1597 11.3224C20.4513 11.6913 22.1115 13.8545 23.1154 15.7822C23.3196 16.1743 23.5057 16.5762 23.6784 16.9832L23.8076 17.2878L23.4818 17.3457C21.7152 17.6599 19.9159 17.8208 18.1223 17.8509L17.8542 17.8554V11.2732L18.1597 11.3224ZM20.5909 10.9942L19.2682 10.7393L20.3972 11.4741C21.8479 12.4185 22.9454 13.9412 23.7352 15.4563C23.9874 15.9402 24.2168 16.4359 24.424 16.9406L24.5083 17.1461L24.7252 17.0979C26.1231 16.7866 27.5108 16.3688 28.8311 15.8114L29.1954 15.6576L28.9132 15.3804C26.6272 13.1341 23.7403 11.6015 20.5909 10.9942ZM10.6614 37.1933C10.8453 37.6318 11.048 38.0625 11.2681 38.484C12.059 39.9978 13.1579 41.521 14.6066 42.4666L15.7307 43.2004L14.4125 42.9463C11.3387 42.3539 8.50679 40.8777 6.2494 38.7107L5.95787 38.4309L6.33141 38.2767C7.62964 37.741 8.9908 37.3384 10.3617 37.0376L10.5764 36.9905L10.6614 37.1933ZM11.6092 36.7932L11.2778 36.8512L11.4133 37.1591C11.5622 37.4974 11.7213 37.8313 11.8923 38.159C12.8967 40.084 14.5533 42.2495 16.8437 42.6182L17.1492 42.6674V36.2976L16.8811 36.3022C15.1163 36.3324 13.3481 36.4888 11.6092 36.7932ZM23.5931 37.1616C23.4412 37.4975 23.2859 37.8322 23.1153 38.159C22.1103 40.0849 20.4507 42.2494 18.1598 42.6182L17.8542 42.6674V36.2976L18.1224 36.3022C19.888 36.3324 21.6586 36.4885 23.3985 36.7932L23.7333 36.8518L23.5931 37.1616ZM24.6417 37.0377L24.4269 36.9906L24.342 37.1933C24.158 37.6319 23.9547 38.0624 23.7352 38.4843C22.9461 40.0002 21.8483 41.5222 20.3972 42.4664L19.2676 43.2013L20.5909 42.9463C23.6663 42.3535 26.4976 40.8765 28.7579 38.7108L29.0503 38.4306L28.6758 38.2765C27.3756 37.7419 26.0142 37.3388 24.6417 37.0377Z" fill="#FFA2A2"/>
<path fill-rule="evenodd" clip-rule="evenodd" d="M17.501 6.78604C17.96 6.78604 18.3363 7.16106 18.3363 7.62091C18.3363 8.08075 17.9601 8.45578 17.501 8.45578C17.042 8.45578 16.6657 8.08075 16.6657 7.62091C16.6657 7.16115 17.0421 6.78604 17.501 6.78604ZM12.6712 3.66161C12.4313 3.42132 12.4313 3.03179 12.6712 2.79158C13.9614 1.50179 15.6775 0.791016 17.501 0.791016C19.3246 0.791016 21.0406 1.50188 22.3308 2.79158C22.5706 3.03179 22.5706 3.42132 22.3308 3.66161C22.2109 3.78193 22.0538 3.84188 21.8966 3.84188C21.7395 3.84188 21.5823 3.78193 21.4624 3.66161C20.4039 2.60429 18.9979 2.02157 17.501 2.02157C16.0041 2.02157 14.5982 2.6042 13.5438 3.66161C13.3039 3.90182 12.911 3.90182 12.6712 3.66161ZM19.3412 5.78294C19.4611 5.90326 19.6182 5.9632 19.7754 5.9632C19.9325 5.9632 20.0897 5.90326 20.2096 5.78294C20.4494 5.54265 20.4494 5.15312 20.2096 4.91335C19.4859 4.18966 18.5265 3.79143 17.501 3.79143C16.4796 3.79143 15.5162 4.18966 14.7925 4.91326C14.5526 5.15312 14.5526 5.54265 14.7925 5.78285C15.0324 6.02306 15.4211 6.0235 15.665 5.78285C16.153 5.29198 16.8063 5.02154 17.501 5.02154C18.1957 5.02163 18.8491 5.29207 19.3412 5.78294ZM26.4866 26.3551C26.4287 23.3509 25.9491 20.484 25.1014 18.003C26.7389 17.6287 28.2606 17.1317 29.6169 16.5213C31.9161 19.1827 33.3551 22.6057 33.4957 26.3551H26.4866ZM25.0352 36.1354C25.9243 33.6093 26.4287 30.6705 26.4866 27.5853H33.4956C33.3509 31.4069 31.8581 34.8891 29.4846 37.5716C28.1407 36.981 26.6438 36.4993 25.0352 36.1354ZM23.9684 38.6062C23.0007 40.4675 21.8305 41.8482 20.5404 42.6876C23.621 42.0938 26.3916 40.6126 28.5749 38.5206C27.3592 38.0207 26.0153 37.6093 24.5845 37.2954C24.3943 37.7489 24.1875 38.1877 23.9684 38.6062ZM10.4176 37.2953C10.6078 37.7489 10.8146 38.1877 11.0337 38.6061C12.0054 40.4674 13.1757 41.8481 14.4617 42.6875C11.381 42.0937 8.61054 40.6125 6.43129 38.5205C7.64295 38.0206 8.9868 37.6092 10.4176 37.2953ZM8.51544 27.5853H1.50643C1.65118 31.4069 3.14392 34.8891 5.51749 37.5716C6.86143 36.9811 8.36242 36.4994 9.96687 36.1354C9.07776 33.6093 8.57336 30.6705 8.51544 27.5853ZM9.90068 18.003C9.05298 20.4841 8.57327 23.351 8.51544 26.3551H1.50643C1.64705 22.6057 3.08608 19.1827 5.38522 16.5213C6.74146 17.1317 8.26319 17.6287 9.90068 18.003ZM11.0337 15.3345C12.0054 13.4734 13.1757 12.093 14.4617 11.2532C11.3107 11.8615 8.4823 13.3988 6.27827 15.5686C7.5105 16.0888 8.87509 16.5155 10.3349 16.8405C10.5499 16.3167 10.7814 15.8135 11.0337 15.3345ZM23.9684 15.3345C24.2206 15.8134 24.4522 16.3166 24.6672 16.8405C26.1269 16.5155 27.4956 16.0887 28.7278 15.5686C26.5197 13.3989 23.6954 11.8615 20.5403 11.2532C21.8305 12.093 23.0007 13.4734 23.9684 15.3345ZM18.1171 17.5874V11.5828C19.887 11.8677 21.5617 13.3762 22.8808 15.9039C23.0751 16.2823 23.2612 16.6767 23.435 17.0861C21.7519 17.3856 19.9614 17.5563 18.1171 17.5874ZM18.1171 26.3551H25.2544C25.1965 23.4241 24.7251 20.6394 23.8898 18.2539C22.062 18.5934 20.1186 18.7853 18.1171 18.818V26.3551ZM18.1171 35.3357C20.0896 35.368 22.0083 35.5553 23.8153 35.8865C24.6961 33.4584 25.1965 30.5989 25.2544 27.5854H18.1171V35.3357ZM18.1171 36.5659C19.9283 36.597 21.6899 36.7619 23.3522 37.053C23.1992 37.3913 23.0461 37.72 22.8808 38.0371C21.5617 40.5649 19.887 42.073 18.1171 42.3579V36.5659ZM16.8849 36.5659C15.0738 36.597 13.3163 36.7619 11.654 37.053C11.8029 37.3913 11.96 37.72 12.1254 38.0371C13.4445 40.5649 15.1151 42.073 16.8849 42.3579V36.5659ZM16.8849 27.5853V35.3357C14.9125 35.368 12.9937 35.5553 11.1867 35.8865C10.3059 33.4584 9.80559 30.5989 9.74767 27.5854H16.8849V27.5853ZM16.8849 18.818C14.8877 18.7853 12.94 18.5934 11.1165 18.2539C10.277 20.6394 9.80567 23.4241 9.74776 26.3551H16.8849V18.818ZM16.8849 17.5874C15.0448 17.5563 13.2502 17.3856 11.5672 17.0862C11.7408 16.6768 11.9269 16.2824 12.1254 15.904C13.4445 13.3762 15.1151 11.8677 16.8849 11.5828V17.5874ZM17.501 9.73195C7.99442 9.73195 0.261719 17.465 0.261719 26.9704C0.261719 36.4753 7.99442 44.2088 17.501 44.2088C27.0076 44.2088 34.7403 36.4753 34.7403 26.9704C34.7403 17.465 27.0076 9.73195 17.501 9.73195Z" fill="#212121"/>
</svg>
